<?xml version="1.0" encoding="UTF-8" standalone="no"?>
<!-- Generator: Adobe Illustrator 12.0.1, SVG Export Plug-In . SVG Version: 6.00 Build 51448)  -->
<svg xmlns:rdf="http://www.w3.org/1999/02/22-rdf-syntax-ns#" xmlns="http://www.w3.org/2000/svg" xmlns:cc="http://web.resource.org/cc/" xmlns:xlink="http://www.w3.org/1999/xlink" xmlns:dc="http://purl.org/dc/elements/1.1/" xmlns:svg="http://www.w3.org/2000/svg" xmlns:inkscape="http://www.inkscape.org/namespaces/inkscape" xmlns:sodipodi="http://sodipodi.sourceforge.net/DTD/sodipodi-0.dtd" xmlns:ns1="http://sozi.baierouge.fr" id="Layer_2" xml:space="preserve" overflow="visible" viewBox="0 0 384.349 240.001" version="1.1" enable-background="new 0 0 384.349 240.001">
<g id="bath_2_" stroke="#000000">
	<path stroke-width="3.3242" d="m16.103 100.93s-6.243 0.688-5.538-8.324c0.082-1.131 3.228-8.889 13.157-9.708 69.605-5.776 284.29-5.546 348.76 0.197 9.176 0.819 9.013 9.512 8.324 12.289-1.852 7.422-6.243 5.735-6.243 5.735s52.695 127.39-178.19 125.31c-270.47-2.44-180.27-125.5-180.27-125.5z" fill="#EEEEEE"/>
	<path stroke-width="3.3242" d="m25.115 100.93s51.302-6.251 126.18-8.324c74.897-2.081 203.16 5.538 212.17 6.931" fill="#EEEEEE"/>
	<path stroke-width="3.3242" d="m61.162 198s18.729 21.497 8.324 27.036c-10.404 5.546-20.104 0.688-20.809-2.081-0.688-2.77-6.227-4.154-9.7-2.081-3.458 2.081-2.081 14.566 6.931 14.566 9.028 0 25.659 1.385 27.74 0 2.081-1.393 5.538-22.882 14.566-27.044 9.012-4.162-3.474-7.619-6.243-6.932-2.769 0.688-4.162-9.716-9.012-8.323-4.867 1.385-6.948-4.851-11.093-2.081-4.178 2.76-0.704 6.92-0.704 6.92z" fill="#C0C0C0"/>
	<path stroke-width="3.3242" d="m323.8 200.28s-18.729 21.498-8.323 27.036c10.388 5.546 20.104 0.688 20.793-2.081 0.704-2.77 6.242-4.154 9.716-2.081 3.458 2.081 2.081 14.566-6.931 14.566-9.028 0-25.659 1.393-27.74 0s-5.538-22.882-14.566-27.044c-9.013-4.162 3.474-7.619 6.242-6.931 2.77 0.688 4.162-9.717 9.012-8.324 4.851 1.393 6.932-4.85 11.094-2.081 4.17 2.76 0.71 6.92 0.71 6.92z" fill="#C0C0C0"/>
	<path stroke-width="2.4724" d="m361 31.354l2.097-19.179 6.227 10.741-3.113 25.315c-0.01 0 0.33-6.136-5.22-16.877z" fill="#C0C0C0"/>
	<polygon stroke-width="2.9516" points="382.81 20.352 349.51 22.851 349.22 16.616 382.51 14.117" fill="#C0C0C0"/>
	<polygon stroke-width="2.9516" points="378.22 34.148 352.54 7.169 355.67 2.369 381.36 29.347" fill="#C0C0C0"/>
	<path stroke-width="3.3242" d="m365.47 81.805s9.094-30.108 2.163-37.039c-6.931-6.939-7.636-20.711-22.874-17.237-15.255 3.466-12.485 13.764-12.485 16.541s13.861 5.546 15.942 5.546-0.312-11.199-0.312-11.199 10.717 4.269 8.636 7.038c-2.081 2.777-7.603 35.163-7.603 35.163l16.52 1.187z" fill="#C0C0C0"/>
</g>
<metadata><rdf:RDF><cc:Work><dc:format>image/svg+xml</dc:format><dc:type rdf:resource="http://purl.org/dc/dcmitype/StillImage"/><cc:license rdf:resource="http://creativecommons.org/licenses/publicdomain/"/><dc:publisher><cc:Agent rdf:about="http://openclipart.org/"><dc:title>Openclipart</dc:title></cc:Agent></dc:publisher><dc:title>Bathtub 2</dc:title><dc:date>2008-08-15T10:43:56</dc:date><dc:description>Side view of bathtub.</dc:description><dc:source>https://openclipart.org/detail/18434/bathtub-2-by-monicams</dc:source><dc:creator><cc:Agent><dc:title>monicams</dc:title></cc:Agent></dc:creator><dc:subject><rdf:Bag><rdf:li>bath</rdf:li><rdf:li>bathtub</rdf:li><rdf:li>house</rdf:li><rdf:li>relaxing</rdf:li><rdf:li>toilet</rdf:li></rdf:Bag></dc:subject></cc:Work><cc:License rdf:about="http://creativecommons.org/licenses/publicdomain/"><cc:permits rdf:resource="http://creativecommons.org/ns#Reproduction"/><cc:permits rdf:resource="http://creativecommons.org/ns#Distribution"/><cc:permits rdf:resource="http://creativecommons.org/ns#DerivativeWorks"/></cc:License></rdf:RDF></metadata></svg>