<?xml version="1.0" encoding="UTF-8" standalone="no"?>
<!-- Created with Inkscape (http://www.inkscape.org/) -->
<svg xmlns:dc="http://purl.org/dc/elements/1.1/" xmlns:cc="http://creativecommons.org/ns#" xmlns:rdf="http://www.w3.org/1999/02/22-rdf-syntax-ns#" xmlns:svg="http://www.w3.org/2000/svg" xmlns="http://www.w3.org/2000/svg" xmlns:xlink="http://www.w3.org/1999/xlink" xmlns:sodipodi="http://sodipodi.sourceforge.net/DTD/sodipodi-0.dtd" xmlns:inkscape="http://www.inkscape.org/namespaces/inkscape" width="1651.6453" height="1665.202" id="svg4314" version="1.1" inkscape:version="0.48.5 r10040" sodipodi:docname="New document 2">
    <defs id="defs4316">
        <linearGradient gradientTransform="matrix(0.9993,0.0382,-0.0382,0.9993,6.349385e-5,6.552786e-5)" y2="150.03909" x2="178.7238" y1="150.03909" x1="174.7959" gradientUnits="userSpaceOnUse" id="SVGID_9_">
            <stop id="stop282" style="stop-color:#A5A4A4" offset="0.0118"/>
            <stop id="stop284" style="stop-color:#C7C7C7" offset="0.2824"/>
            <stop id="stop286" style="stop-color:#676767" offset="1"/>
        </linearGradient>
        <linearGradient gradientTransform="matrix(0.9992,-0.0387,0.0387,0.9992,-3.540516e-4,-9.231269e-5)" y2="158.06641" x2="33.515999" y1="158.06641" x1="30.288601" gradientUnits="userSpaceOnUse" id="SVGID_8_">
            <stop id="stop273" style="stop-color:#A5A4A4" offset="0.0118"/>
            <stop id="stop275" style="stop-color:#C7C7C7" offset="0.2824"/>
            <stop id="stop277" style="stop-color:#676767" offset="1"/>
        </linearGradient>
        <linearGradient gradientTransform="matrix(0.9999,-0.0168,0.0168,0.9999,4.373714e-4,5.427375e-5)" y2="54.480499" x2="38.577499" y1="54.480499" x1="35.6021" gradientUnits="userSpaceOnUse" id="SVGID_7_">
            <stop id="stop264" style="stop-color:#A5A4A4" offset="0.0118"/>
            <stop id="stop266" style="stop-color:#C7C7C7" offset="0.2824"/>
            <stop id="stop268" style="stop-color:#676767" offset="1"/>
        </linearGradient>
        <linearGradient gradientTransform="matrix(-0.9999,-0.0168,0.0168,-0.9999,3.237203e-4,-2.217777e-4)" y2="-49.350601" x2="-169.966" y1="-49.350601" x1="-172.94141" gradientUnits="userSpaceOnUse" id="SVGID_6_">
            <stop id="stop255" style="stop-color:#A5A4A4" offset="0.0118"/>
            <stop id="stop257" style="stop-color:#C7C7C7" offset="0.2824"/>
            <stop id="stop259" style="stop-color:#676767" offset="1"/>
        </linearGradient>
        <linearGradient gradientTransform="matrix(0.014,0.9999,-0.9999,0.014,-2.809241e-4,4.832894e-4)" y2="-100.4253" x2="139.0921" y1="-100.4253" x1="115.8398" gradientUnits="userSpaceOnUse" id="SVGID_11_">
            <stop id="stop318" style="stop-color:#221F1F" offset="0"/>
            <stop id="stop320" style="stop-color:#221F1F;stop-opacity:0" offset="1"/>
        </linearGradient>
        <linearGradient gradientTransform="matrix(0.014,0.9999,-0.9999,0.014,-2.809241e-4,4.832894e-4)" y2="-100.644" x2="123.4437" y1="-100.644" x1="100.1914" gradientUnits="userSpaceOnUse" id="SVGID_10_">
            <stop id="stop311" style="stop-color:#221F1F" offset="0"/>
            <stop id="stop313" style="stop-color:#221F1F;stop-opacity:0" offset="1"/>
        </linearGradient>
        <linearGradient inkscape:collect="always" xlink:href="#SVGID_13_" id="linearGradient3882" gradientUnits="userSpaceOnUse" x1="111.6855" y1="137.96291" x2="111.3565" y2="114.1379" gradientTransform="matrix(7.7378557,0,0,7.7378557,-422.96551,-448.73928)"/>
        <linearGradient y2="114.1379" x2="111.3565" y1="137.96291" x1="111.6855" gradientUnits="userSpaceOnUse" id="SVGID_13_">
            <stop id="stop344" style="stop-color:#221F1F" offset="0"/>
            <stop id="stop346" style="stop-color:#221F1F;stop-opacity:0" offset="1"/>
        </linearGradient>
        <linearGradient inkscape:collect="always" xlink:href="#SVGID_12_" id="linearGradient3885" gradientUnits="userSpaceOnUse" x1="111.6865" y1="122.3115" x2="111.3575" y2="98.486603" gradientTransform="matrix(7.7378557,0,0,7.7378557,-422.96551,-448.73928)"/>
        <linearGradient y2="98.486603" x2="111.3575" y1="122.3115" x1="111.6865" gradientUnits="userSpaceOnUse" id="SVGID_12_">
            <stop id="stop337" style="stop-color:#221F1F" offset="0"/>
            <stop id="stop339" style="stop-color:#221F1F;stop-opacity:0" offset="1"/>
        </linearGradient>
        <linearGradient inkscape:collect="always" xlink:href="#SVGID_15_" id="linearGradient3861" gradientUnits="userSpaceOnUse" x1="88.387703" y1="190.5986" x2="110.3126" y2="190.295" gradientTransform="matrix(7.7378557,0,0,7.7378557,-422.96551,-448.73928)"/>
        <linearGradient y2="190.295" x2="110.3126" y1="190.5986" x1="88.387703" gradientUnits="userSpaceOnUse" id="SVGID_15_">
            <stop id="stop370" style="stop-color:#221F1F" offset="0"/>
            <stop id="stop372" style="stop-color:#221F1F;stop-opacity:0" offset="1"/>
        </linearGradient>
        <linearGradient inkscape:collect="always" xlink:href="#SVGID_14_" id="linearGradient3864" gradientUnits="userSpaceOnUse" x1="102.7876" y1="190.5977" x2="124.7125" y2="190.29401" gradientTransform="matrix(7.7378557,0,0,7.7378557,-422.96551,-448.73928)"/>
        <linearGradient y2="190.29401" x2="124.7125" y1="190.5977" x1="102.7876" gradientUnits="userSpaceOnUse" id="SVGID_14_">
            <stop id="stop363" style="stop-color:#221F1F" offset="0"/>
            <stop id="stop365" style="stop-color:#221F1F;stop-opacity:0" offset="1"/>
        </linearGradient>
        <radialGradient gradientUnits="userSpaceOnUse" gradientTransform="matrix(-0.9973,-0.0736,-0.0135,0.3435,-11.3082,287.8362)" r="20.380301" cy="-214.2769" cx="-165.9165" id="SVGID_3_">
            <stop id="stop24" style="stop-color:#000000;stop-opacity:0.4471" offset="0.0863"/>
            <stop id="stop26" style="stop-color:#000000;stop-opacity:0" offset="1"/>
        </radialGradient>
        <radialGradient gradientUnits="userSpaceOnUse" gradientTransform="matrix(0.9997,0.0231,0.0064,-0.2784,-6.6231,286.5925)" r="21.5058" cy="224.2256" cx="55.5952" id="SVGID_2_">
            <stop id="stop17" style="stop-color:#000000;stop-opacity:0.6471" offset="0"/>
            <stop id="stop19" style="stop-color:#000000;stop-opacity:0" offset="0.9529"/>
        </radialGradient>
        <radialGradient inkscape:collect="always" xlink:href="#SVGID_1_" id="radialGradient3842" gradientUnits="userSpaceOnUse" gradientTransform="matrix(7.7378557,-0.03404657,-0.00546197,-1.2349618,-752.52567,1172.3307)" cx="105.2285" cy="219.918" r="109.6511"/>
        <radialGradient gradientUnits="userSpaceOnUse" gradientTransform="matrix(1,-0.0044,-7.058763e-4,-0.1596,1.1277,255.0139)" r="109.6511" cy="219.918" cx="105.2285" id="SVGID_1_">
            <stop id="stop10" style="stop-color:#000000;stop-opacity:0.349" offset="0"/>
            <stop id="stop12" style="stop-color:#000000;stop-opacity:0" offset="1"/>
        </radialGradient>
        <linearGradient gradientTransform="matrix(6.968642e-5,1,-1,-0.001,2.06668e-5,-1.695007e-5)" y2="-164.334" x2="229.76109" y1="-164.334" x1="215.4111" gradientUnits="userSpaceOnUse" id="SVGID_5_">
            <stop id="stop58" style="stop-color:#231F20" offset="0"/>
            <stop id="stop60" style="stop-color:#1E1B1B;stop-opacity:0.8549" offset="0.0627"/>
            <stop id="stop62" style="stop-color:#0D0C0C;stop-opacity:0.3765" offset="0.3333"/>
            <stop id="stop64" style="stop-color:#030303;stop-opacity:0.0902" offset="0.6314"/>
            <stop id="stop66" style="stop-color:#000000;stop-opacity:0" offset="1"/>
        </linearGradient>
        <linearGradient gradientTransform="matrix(7.889547e-5,1,-1,-0.001,2.663425e-4,-1.695007e-5)" y2="-45.5313" x2="232.3918" y1="-45.5313" x1="219.7168" gradientUnits="userSpaceOnUse" id="SVGID_4_">
            <stop id="stop43" style="stop-color:#231F20" offset="0"/>
            <stop id="stop45" style="stop-color:#1E1B1B;stop-opacity:0.8549" offset="0.0627"/>
            <stop id="stop47" style="stop-color:#0D0C0C;stop-opacity:0.3765" offset="0.3333"/>
            <stop id="stop49" style="stop-color:#030303;stop-opacity:0.0902" offset="0.6314"/>
            <stop id="stop51" style="stop-color:#000000;stop-opacity:0" offset="1"/>
        </linearGradient>
        <radialGradient inkscape:collect="always" xlink:href="#SVGID_1_" id="radialGradient4867" gradientUnits="userSpaceOnUse" gradientTransform="matrix(7.7378557,-0.03404657,-0.00546197,-1.2349618,-414.23953,1524.5215)" cx="105.2285" cy="219.918" r="109.6511"/>
        <radialGradient inkscape:collect="always" xlink:href="#SVGID_2_" id="radialGradient4869" gradientUnits="userSpaceOnUse" gradientTransform="matrix(7.7355343,0.17874447,0.04952228,-2.154219,-474.2141,1768.8722)" cx="55.5952" cy="224.2256" r="21.5058"/>
        <radialGradient inkscape:collect="always" xlink:href="#SVGID_3_" id="radialGradient4871" gradientUnits="userSpaceOnUse" gradientTransform="matrix(-7.7169635,-0.56950618,-0.10446105,2.6579534,-510.46673,1778.4958)" cx="-165.9165" cy="-214.2769" r="20.380301"/>
        <linearGradient inkscape:collect="always" xlink:href="#SVGID_4_" id="linearGradient4873" gradientUnits="userSpaceOnUse" gradientTransform="matrix(7.889547e-5,1,-1,-0.001,2.663425e-4,-1.695007e-5)" x1="219.7168" y1="-45.5313" x2="232.3918" y2="-45.5313"/>
        <linearGradient inkscape:collect="always" xlink:href="#SVGID_5_" id="linearGradient4875" gradientUnits="userSpaceOnUse" gradientTransform="matrix(6.968642e-5,1,-1,-0.001,2.06668e-5,-1.695007e-5)" x1="215.4111" y1="-164.334" x2="229.76109" y2="-164.334"/>
        <linearGradient inkscape:collect="always" xlink:href="#SVGID_6_" id="linearGradient4877" gradientUnits="userSpaceOnUse" gradientTransform="matrix(-7.7370819,-0.12999598,0.12999598,-7.7370819,-422.96301,-448.741)" x1="-172.94141" y1="-49.350601" x2="-169.966" y2="-49.350601"/>
        <linearGradient inkscape:collect="always" xlink:href="#SVGID_7_" id="linearGradient4879" gradientUnits="userSpaceOnUse" gradientTransform="matrix(7.7370819,-0.12999598,0.12999598,7.7370819,-422.96213,-448.73886)" x1="35.6021" y1="54.480499" x2="38.577499" y2="54.480499"/>
        <linearGradient inkscape:collect="always" xlink:href="#SVGID_8_" id="linearGradient4881" gradientUnits="userSpaceOnUse" gradientTransform="matrix(7.7316654,-0.29945502,0.29945502,7.7316654,-422.96825,-448.73999)" x1="30.288601" y1="158.06641" x2="33.515999" y2="158.06641"/>
        <linearGradient inkscape:collect="always" xlink:href="#SVGID_9_" id="linearGradient4883" gradientUnits="userSpaceOnUse" gradientTransform="matrix(7.7324392,0.29558609,-0.29558609,7.7324392,-422.96502,-448.73877)" x1="174.7959" y1="150.03909" x2="178.7238" y2="150.03909"/>
        <linearGradient inkscape:collect="always" xlink:href="#SVGID_10_" id="linearGradient4885" gradientUnits="userSpaceOnUse" gradientTransform="matrix(0.10832998,7.7370819,-7.7370819,0.10832998,-422.96768,-448.73554)" x1="100.1914" y1="-100.644" x2="123.4437" y2="-100.644"/>
        <linearGradient inkscape:collect="always" xlink:href="#SVGID_11_" id="linearGradient4887" gradientUnits="userSpaceOnUse" gradientTransform="matrix(0.10832998,7.7370819,-7.7370819,0.10832998,-422.96768,-448.73554)" x1="115.8398" y1="-100.4253" x2="139.0921" y2="-100.4253"/>
    </defs>
    <sodipodi:namedview id="base" pagecolor="#ffffff" bordercolor="#666666" borderopacity="1.0" inkscape:pageopacity="0.0" inkscape:pageshadow="2" inkscape:zoom="0.35" inkscape:cx="797.96551" inkscape:cy="804.02962" inkscape:document-units="px" inkscape:current-layer="layer1" showgrid="false" fit-margin-top="0" fit-margin-left="0" fit-margin-right="0" fit-margin-bottom="0"/>
    <metadata id="metadata4319">
        <rdf:RDF>
            <cc:Work rdf:about="">
                <dc:format>image/svg+xml</dc:format>
                <dc:type rdf:resource="http://purl.org/dc/dcmitype/StillImage"/>
                <dc:title/>
            </cc:Work>
        </rdf:RDF>
    </metadata>
    <g inkscape:label="Layer 1" inkscape:groupmode="layer" id="layer1" transform="translate(422.96551,328.81025)">
        <g id="g4733">
            <path style="fill:url(#radialGradient4867);fill-rule:evenodd" d="M -180.77063,1185.4959 C -21.115447,1168.2173 173.49936,1159.5663 403.05059,1159.5663 632.60959,1159.5663 827.20889,1168.2095 986.87179,1185.4959 1148.0746,1202.7745 1228.6798,1223.6745 1228.6798,1248.1725 1228.6798,1272.6783 1148.0746,1293.4467 986.87179,1310.4623 823.08459,1327.7409 628.48529,1336.3918 403.05059,1336.3918 177.1052,1336.3918 -17.501867,1327.7486 -180.77063,1310.4623 -342.23646,1293.439 -422.96551,1272.6783 -422.96551,1248.1725 -422.96551,1223.9298 -342.23646,1203.0376 -180.77063,1185.4959 z" id="path14" inkscape:connector-curvature="0"/>
            <path style="fill:url(#radialGradient4869);fill-rule:evenodd" d="M -156.78327,1267.1303 C -122.47362,1259.6478 -82.499857,1255.9104 -36.846507,1255.9104 9.3252729,1255.9104 49.299043,1259.6478 83.090253,1267.1303 116.10768,1274.0943 132.61253,1282.7375 132.61253,1293.0521 132.61253,1303.3744 116.10768,1312.1414 83.090253,1319.3608 49.043693,1326.588 9.0699329,1330.1938 -36.846507,1330.1938 -82.244507,1330.1938 -122.21827,1326.5802 -156.78327,1319.3608 -189.8007,1311.8783 -206.30555,1303.1113 -206.30555,1293.0521 -206.30555,1282.7375 -189.8007,1274.0943 -156.78327,1267.1303 z" id="path21" inkscape:connector-curvature="0"/>
            <path style="fill:url(#radialGradient4871);fill-rule:evenodd" d="M 774.85459,1255.9104 C 808.39039,1255.9104 837.53889,1259.6478 862.29229,1267.1303 886.28739,1274.0943 898.27339,1282.7375 898.27339,1293.0521 898.27339,1303.3744 886.27969,1312.1414 862.29229,1319.3608 837.53889,1326.588 808.39039,1330.1938 774.85459,1330.1938 741.83709,1330.1938 712.95169,1326.5802 688.19059,1319.3608 664.20319,1312.1336 652.21729,1303.3744 652.21729,1293.0521 652.21729,1282.7375 664.21099,1274.1021 688.19059,1267.1303 712.69639,1259.6478 741.58179,1255.9104 774.85459,1255.9104 z" id="path28" inkscape:connector-curvature="0"/>
            <polygon transform="matrix(7.7378556,0,0,7.7378556,-422.9655,-448.73927)" style="fill:#351b1a;fill-rule:evenodd" points="54.75,228.8 45.9,224.05 60.65,217 60,224.75 " id="polygon32"/>
            <polygon transform="matrix(7.7378556,0,0,7.7378556,-422.9655,-448.73927)" style="fill:#492624;fill-rule:evenodd" points="36.15,217 54.95,218.1 54.75,228.8 36.15,228.8 " id="polygon34"/>
            <path style="fill:#63352f;fill-rule:evenodd" d="M 0.68209286,1321.6822 C -0.09169714,1315.2365 -0.47858714,1307.1118 -0.47858714,1297.3157 -0.47858714,1291.8992 0.16365286,1284.4166 1.4558829,1274.8759 L 3.0034529,1263.656 3.7772329,1293.4545 C 3.7772329,1301.4399 2.7481029,1310.8492 0.68209286,1321.6822 z" id="path36" inkscape:connector-curvature="0"/>
            <polygon transform="matrix(7.7378556,0,0,7.7378556,-422.9655,-448.73927)" style="fill:#351b1a;fill-rule:evenodd" points="164,224.05 155.2,228.8 149.9,224.75 149.25,217 " id="polygon38"/>
            <polygon transform="matrix(7.7378556,0,0,7.7378556,-422.9655,-448.73927)" style="fill:#492624;fill-rule:evenodd" points="154.95,218.1 173.75,217 173.75,228.8 155.2,228.8 " id="polygon40"/>
            <polygon transform="matrix(7.7378556,0,0,7.7378556,-422.9655,-448.73927)" style="fill:url(#linearGradient4873);fill-rule:evenodd" points="36.15,217 54.95,218.1 54.75,228.8 36.15,228.8 " id="polygon53"/>
            <polygon transform="matrix(7.7378556,0,0,7.7378556,-422.9655,-448.73927)" style="fill:#492624;fill-rule:evenodd" points="154.95,218.1 173.75,217 173.75,228.8 155.2,228.8 " id="polygon55"/>
            <polygon transform="matrix(7.7378556,0,0,7.7378556,-422.9655,-448.73927)" style="fill:url(#linearGradient4875);fill-rule:evenodd" points="154.95,218.1 173.75,217 173.75,228.8 155.2,228.8 " id="polygon68"/>
            <path style="fill:#63352f;fill-rule:evenodd" d="M 777.94969,1321.6822 C 775.62839,1311.6229 774.46769,1302.206 774.46769,1293.4467 L 775.62839,1263.6482 777.16819,1274.8681 C 778.20509,1282.3506 778.71579,1289.8331 778.71579,1297.3079 L 777.94969,1321.6822 z" id="path70" inkscape:connector-curvature="0"/>
            <polygon transform="matrix(7.7378556,0,0,7.7378556,-422.9655,-448.73927)" style="fill:#63352f;fill-rule:evenodd" points="32.6,33.1 177.4,33.1 177.4,212.85 32.6,213.95 " id="polygon76"/>
            <path style="fill:#3a1e1e;fill-rule:evenodd" d="M -117.32021,916.21845 V -138.45127 H 890.14859 V 910.02815 L -117.32021,916.21845 z M -98.362457,-118.71973 -94.493537,895.71315 871.57779,893.77865 V -118.71973 H -98.362457 z" id="path78" inkscape:connector-curvature="0"/>
            <path style="fill:#3a1e1e;fill-rule:evenodd" d="M -117.32021,1142.9377 V 952.97325 H 890.14859 V 1141.7693 L -117.32021,1142.9377 z M -98.362457,959.55045 -98.749357,1127.8489 873.12529,1127.0751 871.57779,959.55045 H -98.362457 z" id="path80" inkscape:connector-curvature="0"/>
            <polygon transform="matrix(7.7378556,0,0,7.7378556,-422.9655,-448.73927)" id="polygon84" points="115.65,15.5 115.6,29.85 115.45,30.2 114.6,32.7 114.55,15.5 " style="fill:#512a27;fill-rule:evenodd"/>
            <path inkscape:connector-curvature="0" id="path86" d="M 389.89623,-241.36475 388.34866,-328.80252 H 394.92584 C 395.69962,-301.20159 400.07925,-216.47207 408.08019,-74.613956 414.01513,30.102444 416.59183,124.76737 415.81805,209.36535 415.03652,291.13127 413.10206,417.25832 410.01466,587.74649 407.68556,739.14535 407.17486,860.37435 408.46708,951.42575 408.72243,976.96065 410.40155,1077.9397 413.48895,1254.3551 H 403.04285 L 401.88217,1150.2886 C 399.81616,1052.0179 398.53168,986.24605 398.01324,952.97325 397.23946,903.70635 397.8817,834.70785 399.94771,745.98565 406.65643,482.63546 409.23313,283.90411 407.68556,149.78386 407.17486,100.78002 404.21126,29.847104 398.79477,-63.007166 393.37827,-158.70123 390.41467,-218.15118 389.89623,-241.36475 z" style="fill:#512a27;fill-rule:evenodd"/>
            <path inkscape:connector-curvature="0" id="path88" d="M 427.03794,-328.80252 H 433.62285 C 435.68886,-244.97833 438.64472,-156.24833 442.51365,-62.620276 446.90101,39.000984 449.22237,92.268384 449.47772,97.166444 450.76994,158.04015 449.98842,259.40606 447.15636,401.26417 445.86414,465.75146 442.50591,542.74312 437.09715,632.2469 435.03114,669.8993 435.80493,765.21425 439.41851,918.16065 441.48452,1004.817 444.83501,1116.8921 449.47772,1254.3628 H 440.96608 C 437.3525,1142.9454 434.51271,1051.7625 432.4467,980.82955 428.32242,847.73845 427.0302,745.08035 428.57777,672.86285 429.61465,623.34063 431.67291,546.34123 434.76806,441.88017 437.09715,361.41421 438.50544,299.24828 439.03161,255.39785 439.54231,212.83964 437.99474,122.05138 434.38116,-16.974666 430.00154,-195.96675 427.55637,-299.9171 427.03794,-328.80252 z" style="fill:#512a27;fill-rule:evenodd"/>
            <path inkscape:connector-curvature="0" id="path90" d="M 206.12216,-328.80252 H 213.08623 C 212.82314,-145.93377 212.82314,-43.917876 213.08623,-22.770316 214.11536,50.228614 218.24738,149.9154 225.4668,276.2978 231.91243,389.0074 238.3658,474.64225 244.81144,533.19461 248.16967,577.81882 249.97259,686.52795 250.22794,859.33745 250.22794,1003.2694 249.58569,1134.9367 248.29347,1254.3551 H 239.78183 L 240.94251,1150.6755 C 241.7163,1050.0834 239.78183,860.25055 235.13912,581.16158 234.88377,562.85381 229.97797,483.02235 220.43719,341.67494 211.40711,204.97025 206.7644,97.027164 206.50905,17.845684 L 206.12216,-328.80252 z" style="fill:#512a27;fill-rule:evenodd"/>
            <path inkscape:connector-curvature="0" id="path92" d="M 266.09054,-328.80252 H 272.66772 C 272.41237,-218.40653 272.02548,-104.53624 271.50704,12.823814 272.01774,85.559664 274.98907,162.29597 280.40557,243.02502 284.52985,303.38029 290.20944,363.86711 297.42886,424.47774 301.29778,457.23208 303.36379,502.76162 303.61914,561.05089 L 304.77982,1254.3628 H 295.88129 L 295.49439,699.95315 C 295.49439,628.24643 294.85215,574.21298 293.55993,537.84506 292.78614,518.50042 290.72014,484.19077 287.36964,434.93158 281.6978,378.70058 277.31043,332.40499 274.21529,296.03707 268.025,228.19929 265.18521,161.91682 265.70365,97.174184 266.47743,7.925754 266.60898,-134.0639 266.09054,-328.80252 z" style="fill:#512a27;fill-rule:evenodd"/>
            <path inkscape:connector-curvature="0" id="path94" d="M 240.55562,-328.80252 H 247.13279 C 244.81144,-233.88224 243.51922,-175.20608 243.26387,-152.7663 242.23473,-88.542096 242.49008,-25.091676 244.03765,37.584954 246.10366,111.60528 251.90705,198.01391 261.44783,296.80312 270.21482,389.3943 274.85753,457.62671 275.37597,501.4694 275.63132,535.00527 277.44197,584.14065 280.79247,648.87555 283.36917,706.13565 284.79294,778.48465 285.04829,865.93015 285.04829,926.03005 285.95362,991.02035 287.75654,1060.9164 289.04876,1110.4387 288.91721,1174.9183 287.36964,1254.3628 H 278.08422 C 279.63179,981.47185 279.63179,812.15205 278.08422,746.38025 277.05508,700.98225 274.21529,644.49592 269.57258,576.92123 264.15608,502.9009 261.19248,457.8898 260.67404,441.89565 255.51289,373.27634 251.00172,311.11815 247.13279,255.40559 239.65029,147.59405 236.43134,50.739314 237.46047,-35.150886 L 240.55562,-328.80252 z" style="fill:#512a27;fill-rule:evenodd"/>
            <path inkscape:connector-curvature="0" id="path96" d="M 321.02932,-328.80252 H 332.24921 V -313.7137 C 332.24921,-251.81085 331.47542,-179.72499 329.92785,-97.440626 329.6725,-36.311566 332.38075,17.466534 338.0526,63.893664 342.43222,101.5538 347.08268,141.27222 351.98074,183.05664 354.82053,214.5265 356.8788,260.82209 358.17102,321.95115 359.20016,368.37828 360.74773,442.40635 362.81374,544.02761 363.58752,662.16145 361.7846,835.48945 357.39724,1064.0116 L 353.52831,1254.3628 H 337.66571 C 346.17735,901.26115 350.43317,694.27355 350.43317,633.39984 350.43317,487.1621 350.30162,403.06709 350.04627,381.14574 349.01714,272.56041 345.922,199.94838 340.76085,163.32511 335.5997,127.47562 330.70164,85.691204 326.05892,37.971844 L 320.25553,-22.383426 321.02932,-328.80252 z" style="fill:#512a27;fill-rule:evenodd"/>
            <path inkscape:connector-curvature="0" id="path98" d="M 356.23656,-328.80252 H 364.36131 V -327.25495 C 364.87201,-197.77741 369.64626,-74.358606 378.67634,43.001454 387.96177,162.68286 392.72829,244.57259 392.99137,288.67837 393.50207,348.77829 392.47294,415.0685 389.89623,487.54126 386.80109,578.84796 384.86662,671.70225 384.09284,766.10405 383.31905,861.02435 382.28992,952.97325 380.9977,1041.9587 380.487,1098.7004 380.74235,1165.7644 381.77148,1243.1429 V 1254.3551 H 374.80741 C 374.28898,1059.3689 374.28898,914.28405 374.80741,819.10065 375.31811,746.88325 377.12877,639.45858 380.22391,496.82669 383.06371,371.72877 384.22438,289.19681 383.70595,249.2153 383.18751,209.49689 380.09237,149.26542 374.42052,68.536374 368.48558,-18.382956 364.7482,-88.410546 363.20063,-141.54641 361.39771,-203.7046 359.06861,-266.12589 356.23656,-328.80252 z" style="fill:#512a27;fill-rule:evenodd"/>
            <path inkscape:connector-curvature="0" id="path100" d="M 293.55993,-328.80252 H 300.91089 L 301.68468,-181.00947 C 302.20311,-44.567856 303.75068,36.555824 306.32739,62.346094 310.45167,101.80915 313.423,159.71153 315.22592,236.06095 316.25506,276.2978 319.61329,328.78367 325.28514,393.52631 328.11719,428.60975 329.40941,570.46786 329.15406,819.10835 329.15406,922.02955 328.38028,1067.1144 326.83271,1254.3628 H 314.83903 C 317.93417,934.78935 319.48174,681.50605 319.48174,494.51307 319.48174,463.81699 315.34973,384.37243 307.10117,256.18711 302.45846,187.57555 299.49486,140.62998 298.20264,115.35814 296.13663,77.442654 295.1075,27.146584 295.1075,-35.530046 295.1075,-74.227056 294.58906,-171.9794 293.55993,-328.80252 z" style="fill:#512a27;fill-rule:evenodd"/>
            <path style="fill:#512a27;fill-rule:evenodd" d="M -178.06238,1026.8699 C -178.06238,1138.8134 -178.31773,1214.7682 -178.83616,1254.7497 H -190.44295 L -189.66916,1169.6333 H -179.22306 L -178.83616,938.07015 C -178.31773,965.42345 -178.06238,995.01305 -178.06238,1026.8699 z" id="path104" inkscape:connector-curvature="0"/>
            <path style="fill:#512a27;fill-rule:evenodd" d="M -180.38373,-190.68179 -182.3182,-328.80252 H -169.55074 C -168.77695,-280.82781 -168.39006,-208.73421 -168.39006,-112.52945 -168.13471,70.083944 -169.29539,237.09008 -171.87209,388.49671 -173.16431,474.12382 -175.35413,583.09604 -178.44927,715.42115 L -179.02961,739.60195 -177.28859,178.80082 C -176.77789,103.48827 -177.42014,5.859744 -179.22306,-114.07702 V -187.58665 L -180.38373,-190.68179 z" id="path106" inkscape:connector-curvature="0"/>
            <path inkscape:connector-curvature="0" id="path108" d="M -122.73671,-271.92928 -123.1236,-328.80252 H -114.99885 L -114.61196,72.792194 C -114.35661,147.84939 -113.96972,247.66773 -113.45128,372.24721 -113.96972,495.02377 -116.41488,657.90563 -120.80224,860.89285 -123.37895,995.26845 -126.99253,1126.5566 -131.63524,1254.7497 H -138.98621 C -136.66485,1158.8003 -134.47504,1098.3135 -132.40903,1073.297 -129.56924,1035.6368 -127.37942,959.67425 -125.83185,845.41705 -125.31341,791.25215 -124.53963,690.40465 -123.51049,542.86693 -122.99206,460.59031 -122.73671,188.99157 -122.73671,-271.92928 z" style="fill:#512a27;fill-rule:evenodd"/>
            <path inkscape:connector-curvature="0" id="path110" d="M -154.46192,-225.50214 C -154.98035,-250.51863 -156.52792,-284.95983 -159.10463,-328.80252 H -152.52745 C -149.43231,-267.92881 -147.88474,-193.77693 -147.88474,-106.33917 -147.88474,-52.692606 -146.85561,15.013634 -144.7896,96.779554 -143.76046,147.84939 -144.14736,223.68038 -145.95028,324.2725 -148.01628,419.44813 -149.04542,511.52861 -149.04542,600.51395 -149.30077,707.04105 -149.95075,800.54525 -150.97988,881.01125 -151.49058,926.66455 -154.71727,1051.2441 -160.6522,1254.7574 H -172.64588 L -169.55074,1146.0328 C -164.38959,1009.8466 -160.78375,903.32725 -158.71774,826.45935 -156.39638,728.96235 -155.2357,632.3707 -155.2357,536.67664 -155.2357,496.95823 -154.84881,359.09286 -154.07502,123.08826 -153.30124,-63.394066 -153.43278,-179.59345 -154.46192,-225.50214 z" style="fill:#512a27;fill-rule:evenodd"/>
            <path inkscape:connector-curvature="0" id="path112" d="M 167.81977,-328.80252 H 175.55763 C 173.75471,-96.411496 176.58676,125.27807 184.06927,336.26618 191.03334,524.04073 195.03381,691.82065 196.06295,839.61365 196.57364,913.63405 196.3183,968.83585 195.28916,1005.2039 L 193.74159,1254.3628 H 184.06927 C 183.80618,1167.9619 182.5217,943.56405 180.20034,581.16931 179.68191,485.99369 177.62364,325.43318 174.01006,99.487804 170.14113,-143.48087 168.07512,-286.24431 167.81977,-328.80252 z" style="fill:#512a27;fill-rule:evenodd"/>
            <path inkscape:connector-curvature="0" id="path114" d="M -99.523137,-328.80252 H -89.463927 V -152.7663 C -89.727017,84.012084 -92.040637,358.31907 -96.427997,670.15465 -98.749357,833.94185 -101.58915,1028.812 -104.93964,1254.7574 H -113.83817 C -113.06439,1065.18 -111.00612,850.05985 -107.64789,609.42022 -103.52361,330.59433 -100.81536,17.853424 -99.523137,-328.80252 z" style="fill:#512a27;fill-rule:evenodd"/>
            <path inkscape:connector-curvature="0" id="path116" d="M 3.7772329,-328.80252 H 10.741303 C 8.6752929,-218.40653 9.7121729,-84.804706 13.836443,72.018414 18.216073,234.00268 20.932063,359.86664 21.961193,449.62577 22.216543,483.67233 22.866523,609.54403 23.895663,827.24085 V 1254.7574 H 17.705373 C 18.216073,1103.3508 18.479163,997.21055 18.479163,936.34465 18.479163,836.52625 17.968463,747.15405 16.931593,668.22793 16.157803,605.5513 13.318013,476.07376 8.4199529,279.78757 4.0325829,106.71495 1.8427729,-11.155796 1.8427729,-73.832426 1.8427729,-129.80808 2.4850129,-214.80069 3.7772329,-328.80252 z" style="fill:#512a27;fill-rule:evenodd"/>
            <path inkscape:connector-curvature="0" id="path118" d="M -15.954297,-328.80252 H -9.3771171 C -10.924687,-215.82982 -11.180037,-113.04789 -10.150907,-20.448966 -9.1217671,54.608234 -7.0557671,176.611 -3.9606171,345.55161 -1.6392671,516.04752 -1.2523671,694.39735 -2.7999471,880.62435 L -6.6688671,1254.7574 H -14.019837 L -13.246047,1052.7917 C -14.019837,578.46106 -15.180507,286.87545 -16.728087,178.02703 -18.794087,80.011614 -20.086317,14.371384 -20.597007,-18.901396 -21.370797,-68.934366 -20.597007,-137.93283 -18.275657,-225.88904 L -15.954297,-328.80252 z" style="fill:#512a27;fill-rule:evenodd"/>
            <path inkscape:connector-curvature="0" id="path120" d="M 59.102903,-328.80252 H 64.906293 C 65.680083,-284.44139 67.746083,-206.02596 71.096583,-93.571696 73.162583,-18.769846 74.191723,45.199004 74.191723,98.327124 75.220853,120.51155 75.352403,339.10597 74.578613,754.11035 74.578613,884.87245 73.549483,1051.7625 71.483473,1254.7497 H 64.906293 C 64.132513,1032.1548 64.264053,860.89285 65.293183,740.95605 66.585413,623.34063 67.227653,481.73787 67.227653,316.14776 67.227653,164.23043 66.840763,60.666974 66.066973,5.472854 L 59.102903,-328.80252 z" style="fill:#512a27;fill-rule:evenodd"/>
            <path inkscape:connector-curvature="0" id="path122" d="M 84.637823,-299.39866 84.250933,-328.80252 H 91.215003 C 93.281013,-91.505696 94.310143,44.162134 94.310143,78.208694 94.310143,124.11739 94.820843,230.3891 95.857713,397.00835 96.886853,563.88294 97.405293,685.11195 97.405293,760.68755 97.405293,807.37005 97.149943,889.14375 96.631503,1005.9776 96.120803,1103.4746 96.120803,1186.3935 96.631503,1254.7497 H 88.119863 V 707.68325 C 87.601423,259.66141 86.440743,-76.029976 84.637823,-299.39866 z" style="fill:#512a27;fill-rule:evenodd"/>
            <path inkscape:connector-curvature="0" id="path124" d="M -68.184827,-328.80252 H -55.417357 C -55.935797,-224.8599 -57.738717,-84.541626 -60.833857,92.136834 -63.929007,255.92403 -67.797927,405.1331 -72.440647,539.77179 -74.506647,601.41928 -75.017347,670.92844 -73.988217,748.30705 -73.214427,811.23895 -72.053747,842.70885 -70.506177,842.70885 -69.987747,842.70885 -70.119287,903.96165 -70.893077,1026.483 L -72.827537,1254.7497 H -87.529467 L -86.755677,1145.6382 C -85.208107,1022.0879 -84.434317,918.40825 -84.434317,834.57635 L -84.821217,582.71688 C -84.821217,488.0597 -82.112967,322.72493 -76.696467,86.720334 -71.024617,-153.40854 -68.184827,-291.91616 -68.184827,-328.80252 z" style="fill:#512a27;fill-rule:evenodd"/>
            <path inkscape:connector-curvature="0" id="path126" d="M 124.10089,-328.80252 H 134.93389 L 137.25524,25.204384 C 137.25524,46.096594 135.70767,154.55812 132.61253,350.58121 130.29117,509.20726 130.16737,639.32704 132.22564,740.95605 134.29164,836.13165 137.64214,917.24765 142.28485,984.31165 146.67221,1049.0466 149.24892,1100.3795 150.0227,1138.2872 L 151.57028,1254.3551 H 142.67174 C 141.37952,1155.0552 139.31351,1081.0348 136.48146,1032.2864 125.13776,815.88165 121.00575,610.44162 124.10089,415.96609 125.64846,299.37982 125.64846,51.126204 124.10089,-328.80252 z" style="fill:#512a27;fill-rule:evenodd"/>
            <path inkscape:connector-curvature="0" id="path128" d="M 146.92756,-328.80252 H 156.21299 C 158.7897,-154.70076 159.56348,16.305854 158.53435,184.21732 158.53435,199.95611 155.69455,304.02254 150.0227,496.44753 147.446,589.55715 149.63581,728.32015 156.59988,912.74415 L 170.52802,1254.3628 H 162.79017 C 152.4756,969.60965 145.89069,787.38315 143.05863,707.69095 140.48193,633.39984 140.61347,551.38631 143.44553,461.62718 147.31446,348.13605 149.24892,277.72156 149.24892,250.38372 149.24892,54.352884 148.47513,-138.70662 146.92756,-328.80252 z" style="fill:#512a27;fill-rule:evenodd"/>
            <path inkscape:connector-curvature="0" id="path130" d="M 107.07761,-328.80252 H 114.04168 C 114.04168,-284.95209 113.13635,-175.20608 111.33343,0.44324405 109.78585,135.60037 109.53051,245.47792 110.55964,330.0759 111.58878,414.16317 112.881,515.266 114.42857,633.39984 115.4577,722.90365 115.58925,800.66905 114.81546,866.69615 114.56011,899.71365 113.13635,968.44895 110.55964,1072.9101 108.75672,1147.4489 108.49363,1208.0595 109.78585,1254.7497 H 102.048 V 1178.1449 C 102.5587,1114.4392 104.23781,1032.8048 107.07761,933.24175 109.65431,839.35835 110.94653,777.45555 110.94653,747.53325 110.94653,723.80895 110.0412,649.52553 108.23828,524.68297 106.17228,399.84814 105.14314,297.44536 105.14314,217.4901 106.17228,-41.472716 106.82226,-223.56768 107.07761,-328.80252 z" style="fill:#512a27;fill-rule:evenodd"/>
            <path inkscape:connector-curvature="0" id="path132" d="M 188.32509,-328.80252 H 197.61052 C 197.09208,-209.63954 196.3183,-86.476086 195.28916,40.680094 195.28916,120.63536 197.35517,196.98478 201.47944,269.72062 205.08529,333.94482 209.08576,402.6802 213.47312,475.93448 215.79448,531.64704 217.34205,608.6387 218.11583,706.90945 218.62653,784.03265 217.72894,849.41755 215.40759,903.07185 212.83088,962.39025 211.53866,1029.5858 211.53866,1104.643 211.53866,1171.9624 211.92555,1221.8716 212.69934,1254.3706 H 201.86634 C 201.3479,1224.2007 201.09255,1183.0585 201.09255,1130.9595 200.8372,1071.378 201.61099,994.38625 203.41391,899.97675 204.96148,807.12245 205.73527,745.08805 205.73527,713.88125 205.73527,680.35315 203.41391,588.65182 198.7712,438.80051 193.61005,276.04245 190.5149,157.91634 189.48577,84.406724 188.19355,4.954414 187.80665,-132.77942 188.32509,-328.80252 z" style="fill:#512a27;fill-rule:evenodd"/>
            <path inkscape:connector-curvature="0" id="path134" d="M -32.977577,-328.80252 -34.525147,-206.1575 C -35.298937,-110.98188 -36.328067,-19.032936 -37.620297,69.697054 -38.130987,128.7601 -37.875647,195.8241 -36.846507,270.8813 -35.817377,332.78415 -34.656697,384.75932 -33.364477,426.79909 -32.590687,459.035 -32.722227,517.58735 -33.751367,602.44068 -34.006717,625.65425 -35.422747,666.14644 -38.007187,723.92505 -39.810107,765.70945 -41.365417,910.67045 -42.649897,1158.7926 L -43.423687,1254.742 H -55.417357 C -50.519297,1033.4316 -47.679507,884.47775 -46.905717,807.88075 -46.650367,770.99435 -45.876587,720.96145 -44.584367,657.76635 -43.555227,611.59456 -43.160597,560.00628 -43.423687,503.00923 -44.452817,211.55516 -44.584367,-7.163066 -43.810577,-153.15319 -43.299877,-212.47933 -42.518357,-271.02395 -41.489217,-328.80252 H -32.977577 z" style="fill:#512a27;fill-rule:evenodd"/>
            <path inkscape:connector-curvature="0" id="path136" d="M 25.056343,-328.80252 H 32.407303 C 30.604383,-295.27439 31.501973,-203.7046 35.115553,-54.108636 37.692253,49.323284 41.429643,171.06296 46.335443,311.11815 48.912143,387.20448 50.335913,470.89713 50.591263,562.21157 L 49.817473,1254.7497 H 40.918943 C 39.626723,1117.2712 39.371373,1003.5247 40.145153,913.50245 41.948073,683.95125 40.918943,474.12382 37.050013,284.02792 33.181083,172.33971 30.209753,80.909204 28.151483,9.720934 24.027203,-123.11484 22.734983,-226.02832 24.282553,-299.01951 L 25.056343,-328.80252 z" style="fill:#512a27;fill-rule:evenodd"/>
            <polygon transform="matrix(7.7378556,0,0,7.7378556,-422.9655,-448.73927)" id="polygon140" points="177.65,15.5 178.65,15.5 178.6,29.85 177.7,32.7 " style="fill:#512a27;fill-rule:evenodd"/>
            <path inkscape:connector-curvature="0" id="path142" d="M 885.89279,-241.36475 884.34519,-328.80252 H 890.53549 C 891.30929,-299.39866 895.17819,-214.66915 902.14229,-74.613956 907.55879,30.357794 909.88009,125.02272 909.10639,209.36535 908.32479,291.13127 906.65349,417.25832 904.07679,587.74649 902.01079,739.40845 901.49999,860.63745 902.52919,951.42575 L 907.17189,1254.3628 H 897.49959 L 896.71809,1150.2964 C 894.91509,1052.0256 893.75449,986.25385 893.23599,952.98105 892.46219,903.71405 893.10449,834.71565 895.17049,745.99335 901.10539,476.97135 903.30299,278.24 901.75539,149.7916 901.24469,100.78776 898.66029,29.854834 894.01749,-62.999436 888.85639,-158.43815 886.15589,-217.89583 885.89279,-241.36475 z" style="fill:#512a27;fill-rule:evenodd"/>
            <path inkscape:connector-curvature="0" id="path144" d="M 919.16559,-328.80252 H 925.35589 C 927.15879,-245.23368 929.73549,-156.50368 933.09369,-62.620276 937.21799,43.388344 939.28399,96.648004 939.28399,97.166444 940.32089,158.55859 939.67089,259.9245 937.34949,401.26417 936.06509,466.78059 933.09369,543.77226 928.45869,632.2469 926.39269,669.8993 927.03499,765.21425 930.39319,918.16065 931.67769,971.54415 934.64899,1083.6193 939.28399,1254.3628 H 931.93299 C 928.58249,1142.9454 925.99809,1051.7625 924.19519,980.82955 920.58929,848.24915 919.42869,745.59875 920.72089,672.86285 926.12959,474.00001 929.23249,334.84241 929.99859,255.40559 930.26169,213.36582 928.84559,122.56982 925.74279,-16.966926 921.87379,-190.2949 919.68399,-294.23752 919.16559,-328.80252 z" style="fill:#512a27;fill-rule:evenodd"/>
            <path inkscape:connector-curvature="0" id="path146" d="M 721.46339,-328.80252 H 727.65359 C 727.39829,-153.15319 727.52209,-51.145036 728.04049,-22.770316 729.07739,48.936394 732.68329,148.62318 738.87349,276.2978 744.54539,389.0074 750.34879,474.64225 756.28369,533.19461 759.11579,578.32952 760.66329,687.04635 760.92639,859.33745 761.18179,996.29755 760.67109,1127.9727 759.37889,1254.3551 H 751.64099 L 752.80169,1150.6755 C 753.31239,1081.8086 751.64099,891.96805 747.77209,581.16158 747.51669,565.43052 743.00559,485.59906 734.23079,341.67494 726.23759,205.75177 722.11329,97.800944 721.85029,17.845684 L 721.46339,-328.80252 z" style="fill:#512a27;fill-rule:evenodd"/>
            <path inkscape:connector-curvature="0" id="path148" d="M 775.24149,-328.80252 H 781.04489 C 780.78949,-218.40653 780.40259,-104.53624 779.89189,12.823814 780.40259,86.333444 783.11089,163.06976 788.01669,243.02502 791.63019,302.35116 796.79139,362.83024 803.49239,424.47774 806.85059,456.97673 808.52199,502.50627 808.52199,561.05089 L 809.67489,1254.3628 H 801.55019 V 699.94545 C 801.55019,627.72025 800.90789,573.69455 799.61569,537.83732 799.10499,517.20046 797.29429,482.89855 794.19919,434.92384 789.30109,378.69284 785.30839,332.39725 782.20549,296.02933 776.78899,227.9362 774.33609,161.64599 774.85459,97.166444 775.62839,7.925754 775.75989,-134.0639 775.24149,-328.80252 z" style="fill:#512a27;fill-rule:evenodd"/>
            <path inkscape:connector-curvature="0" id="path150" d="M 752.41479,-328.80252 H 758.21819 C 756.15219,-232.85311 754.99149,-174.17695 754.73609,-152.7663 753.95459,-88.542096 754.22539,-25.091676 755.50989,37.584954 757.31279,111.34993 762.47399,197.75856 770.98559,296.80312 778.97879,389.3943 783.10309,457.62671 783.37389,501.4694 783.62929,534.48683 785.30839,583.62221 788.39579,648.87555 790.71719,705.88035 792.00939,778.22925 792.26469,865.93015 792.26469,925.50385 793.04629,990.50965 794.58609,1060.9164 795.62299,1110.1833 795.49139,1174.6629 794.19919,1254.3628 H 786.07449 C 787.11129,972.44945 787.11129,803.12195 786.07449,746.38025 785.30069,700.46385 782.71619,643.98523 778.33659,576.92123 773.43079,500.57955 770.73029,455.5607 770.21189,441.89565 765.56139,373.29182 761.56869,311.13362 758.21819,255.41333 751.50949,147.60178 748.67739,50.747044 749.69879,-35.143146 L 752.41479,-328.80252 z" style="fill:#512a27;fill-rule:evenodd"/>
            <path inkscape:connector-curvature="0" id="path152" d="M 824.37679,-328.80252 H 834.43609 V -313.7137 C 834.43609,-251.81085 833.79379,-179.72499 832.50159,-97.440626 832.24619,-36.311566 834.56759,17.466534 839.46569,63.893664 843.58989,101.5538 847.84579,141.27222 852.22539,183.05664 854.80979,214.5265 856.60499,260.82209 857.64189,321.95115 858.41569,368.37828 859.70789,442.40635 861.51079,544.02761 862.28459,662.16145 860.73699,835.48945 856.86809,1064.0116 L 853.38609,1254.3628 H 839.07879 C 846.81659,901.26115 850.68559,694.27355 850.68559,633.39984 850.68559,491.79708 850.55399,407.71754 850.29869,381.14574 849.26949,272.56041 846.42969,199.94838 841.78699,163.32511 837.40739,127.47562 833.14379,85.691204 829.01959,37.971844 L 823.99769,-22.383426 824.37679,-328.80252 z" style="fill:#512a27;fill-rule:evenodd"/>
            <path inkscape:connector-curvature="0" id="path154" d="M 856.10209,-328.80252 H 863.06609 V -327.25495 C 863.57679,-198.03276 867.83259,-74.613956 875.82579,43.001454 884.08209,161.90908 888.33789,243.79881 888.59329,288.67837 889.10399,348.77829 888.20639,415.0685 885.88509,487.54126 883.30059,578.84796 881.62149,671.70225 880.85549,766.10405 880.08169,861.02435 879.17629,952.97325 878.14719,1041.9587 877.36569,1100.2479 877.49719,1167.3042 878.53409,1243.1429 L 878.92099,1254.3551 H 872.34379 C 871.82539,1059.3689 871.82539,914.28405 872.34379,819.10065 872.59919,747.92015 874.27829,640.48772 877.36569,496.82669 879.95009,372.24721 880.97929,289.7075 880.46079,249.2153 879.95009,209.75224 877.10259,149.52851 871.94139,68.536374 866.53269,-18.127606 863.17449,-88.155196 861.88219,-141.54641 861.90539,-145.41534 859.97099,-207.83662 856.10209,-328.80252 z" style="fill:#512a27;fill-rule:evenodd"/>
            <path inkscape:connector-curvature="0" id="path156" d="M 799.61569,-328.80252 H 806.57979 L 806.96669,-181.00947 C 807.47739,-44.823206 809.03269,36.292734 811.60939,62.346094 814.96759,101.29845 817.54429,159.20083 819.34719,236.06095 820.38409,276.2978 823.34769,328.78367 828.24579,393.52631 830.82249,428.60975 831.98319,570.46786 831.72779,819.10835 831.46469,969.48585 830.69089,1114.5707 829.39869,1254.3628 H 818.95259 C 820.24479,1093.6708 821.27399,926.54075 822.04769,752.94975 822.82149,603.35375 823.07689,517.20046 822.82149,494.51307 822.82149,465.62765 819.20799,386.18309 811.98849,256.18711 807.86429,187.57555 805.15599,140.62998 803.86379,115.35814 802.06089,77.442654 801.15549,27.146584 801.15549,-35.530046 801.16329,-74.227056 800.65259,-171.9794 799.61569,-328.80252 z" style="fill:#512a27;fill-rule:evenodd"/>
            <path style="fill:#512a27;fill-rule:evenodd" d="M 377.90255,1026.8699 C 377.90255,1138.8134 377.64721,1214.7682 377.12877,1254.7497 H 366.68266 L 367.45645,1169.6333 H 376.74188 L 377.12877,985.85915 377.90255,1026.8699 z" id="path160" inkscape:connector-curvature="0"/>
            <path style="fill:#512a27;fill-rule:evenodd" d="M 375.96809,-190.68179 374.03363,-328.80252 H 385.25352 C 386.0273,-280.82781 386.4142,-208.73421 386.4142,-112.52945 386.66955,70.339294 385.64041,237.34543 383.31905,388.49671 382.28218,474.12382 380.34772,583.09604 377.51566,715.42115 L 376.93532,739.60195 378.28945,178.80082 C 378.55254,114.05818 378.0341,16.437394 376.74188,-114.07702 V -187.58665 L 375.96809,-190.68179 z" id="path162" inkscape:connector-curvature="0"/>
            <path inkscape:connector-curvature="0" id="path164" d="M 427.03794,-271.92928 V -328.80252 H 434.3889 V 72.792194 C 434.64425,147.84939 434.8996,247.66773 435.17043,372.24721 434.90734,495.02377 432.84133,657.90563 428.9724,860.89285 426.65105,993.21015 423.4321,1124.4906 419.30008,1254.7497 H 412.72291 C 414.52583,1163.1799 416.46029,1102.7008 418.5263,1073.297 421.103,1035.8922 423.03747,959.93735 424.32969,845.41705 424.84039,793.31815 425.62191,692.46285 426.65105,542.86693 426.9064,481.22717 427.03794,209.6207 427.03794,-271.92928 z" style="fill:#512a27;fill-rule:evenodd"/>
            <path inkscape:connector-curvature="0" id="path166" d="M 398.79477,-225.50214 C 398.28407,-251.03707 396.99184,-285.47052 394.92584,-328.80252 H 400.72923 C 403.30594,-268.44724 404.7297,-194.29537 404.98505,-106.33917 404.98505,-49.334376 405.75884,18.371864 407.30641,96.779554 408.34328,148.87853 408.08793,224.70952 406.53262,324.2725 404.98505,418.93743 404.08746,511.01018 403.81663,600.51395 403.56128,706.01185 402.91904,799.50835 401.88217,881.01125 401.37147,926.66455 398.53168,1051.2441 393.37053,1254.7574 H 382.92442 C 383.95356,1205.7459 384.85889,1169.5095 385.63267,1146.0328 390.27539,1006.4961 393.37053,899.96895 394.9181,826.45935 397.23946,727.93325 398.27633,631.33383 398.0055,536.67664 400.07925,107.99944 400.34234,-146.05758 398.79477,-225.50214 z" style="fill:#512a27;fill-rule:evenodd"/>
            <path inkscape:connector-curvature="0" id="path168" d="M 687.02989,-328.80252 H 693.98619 C 692.70179,-87.381416 695.27849,134.30815 701.72409,336.26618 707.92209,524.04073 711.52799,691.82065 712.55709,839.61365 713.06779,913.63405 712.94399,968.83585 712.17019,1005.2039 L 710.23569,1254.3551 H 702.11099 L 698.62899,581.16158 C 698.11829,487.02282 696.18379,326.45458 692.82559,99.480064 689.48279,-140.64108 687.54829,-283.40452 687.02989,-328.80252 z" style="fill:#512a27;fill-rule:evenodd"/>
            <path inkscape:connector-curvature="0" id="path170" d="M 447.93015,-328.80252 H 457.21558 V -152.7663 C 456.96023,83.238304 454.89422,357.54528 451.02529,670.15465 448.95928,833.94185 446.37484,1028.812 443.28744,1254.7574 H 435.54958 C 436.06028,1042.7402 437.87094,827.62775 440.96608,609.42022 444.31657,372.11567 446.64566,59.382494 447.93015,-328.80252 z" style="fill:#512a27;fill-rule:evenodd"/>
            <path inkscape:connector-curvature="0" id="path172" d="M 540.39752,-328.80252 H 546.58781 C 545.04024,-215.57447 546.07711,-81.964916 549.68295,72.018414 553.55188,232.71046 555.87324,358.58216 556.63928,449.62577 556.90237,474.90534 557.54461,600.77704 558.57375,827.24085 V 1254.7574 H 553.16499 C 553.42034,1103.3508 553.55188,997.21055 553.55188,936.34465 553.80723,834.20495 553.42034,744.83275 552.3912,668.22793 551.61742,609.42022 549.03297,479.94269 544.65335,279.78757 540.78442,107.75183 538.84995,-10.126666 538.84995,-73.832426 538.84995,-91.892586 539.36065,-176.8852 540.39752,-328.80252 z" style="fill:#512a27;fill-rule:evenodd"/>
            <path inkscape:connector-curvature="0" id="path174" d="M 522.60046,-328.80252 H 528.79074 C 527.49852,-198.03276 527.24317,-95.250816 528.01696,-20.448966 528.79074,54.608234 530.59366,176.611 533.42572,345.55161 535.49172,516.55822 535.87862,694.91575 534.5864,880.62435 L 531.10436,1254.7574 H 524.52718 L 525.30097,1052.7917 C 524.52718,573.82609 523.49805,282.23273 522.21356,178.02703 520.41064,80.011614 519.24223,14.371384 518.73153,-18.901396 517.95001,-68.168316 518.59999,-137.15904 520.66599,-225.88904 L 522.60046,-328.80252 z" style="fill:#512a27;fill-rule:evenodd"/>
            <path inkscape:connector-curvature="0" id="path176" d="M 589.91979,-328.80252 H 594.94169 C 595.72319,-282.63073 597.52609,-204.22304 600.35819,-93.571696 602.42419,-18.514496 603.45329,45.454354 603.45329,98.327124 604.22709,120.51155 604.35089,339.10597 603.84019,754.11035 603.84019,910.41505 602.93489,1077.2975 601.12419,1254.7497 H 595.32079 C 594.54709,1032.1548 594.67859,860.89285 595.71549,740.95605 596.74459,617.92413 597.25529,476.32137 597.25529,316.14776 597.25529,160.09842 596.86839,56.542704 596.10239,5.472854 593.78869,-117.81441 591.73049,-229.23953 589.91979,-328.80252 z" style="fill:#512a27;fill-rule:evenodd"/>
            <path inkscape:connector-curvature="0" id="path178" d="M 612.74649,-299.39866 V -328.80252 H 618.54989 C 620.35279,-121.17263 621.26589,14.502934 621.26589,78.208694 621.26589,110.18925 621.77659,216.46096 622.81339,397.00835 623.84259,558.21883 624.35329,679.44005 624.35329,760.68755 624.35329,793.70505 624.09789,875.47095 623.57949,1005.9776 623.06879,1100.8979 623.06879,1183.8168 623.57949,1254.7497 H 615.84159 V 707.68325 C 615.84159,349.42054 614.80479,13.729144 612.74649,-299.39866 z" style="fill:#512a27;fill-rule:evenodd"/>
            <path inkscape:connector-curvature="0" id="path180" d="M 476.17332,-328.80252 H 487.39321 C 486.87478,-206.5444 485.19566,-66.233856 482.36361,92.136834 479.7869,255.92403 476.42867,405.1331 472.30439,539.77179 470.50147,601.41928 470.11458,670.92844 471.14372,748.30705 471.92524,811.23895 472.94664,842.70885 474.23886,842.70885 474.49421,842.70885 474.23886,903.96165 473.45733,1026.483 L 471.9175,1254.7497 H 458.76315 L 459.15004,1145.6459 C 460.69761,1022.0956 461.4714,918.41605 461.4714,834.58405 V 582.71688 C 461.21605,487.03056 463.5374,321.6958 468.43547,86.720334 473.58888,-155.47455 476.17332,-293.98217 476.17332,-328.80252 z" style="fill:#512a27;fill-rule:evenodd"/>
            <path inkscape:connector-curvature="0" id="path182" d="M 648.34059,-328.80252 H 658.01289 C 659.04209,-204.74148 659.56049,-86.739176 659.56049,25.204384 659.56049,51.257744 658.39979,159.71153 656.07849,350.58121 653.75709,509.98878 653.63329,640.10856 655.69159,740.95605 657.49449,837.16855 660.33429,918.28445 664.20319,984.31165 668.32749,1051.1126 670.78039,1102.4455 671.55419,1138.2872 L 672.70709,1254.3551 H 664.96929 C 663.68479,1157.3765 661.75029,1083.3485 659.16589,1032.2864 649.10669,811.75745 645.36929,606.30961 647.95369,415.96609 649.50129,316.66619 649.62509,68.404834 648.34059,-328.80252 z" style="fill:#512a27;fill-rule:evenodd"/>
            <path inkscape:connector-curvature="0" id="path184" d="M 668.84589,-328.80252 H 676.58379 C 679.16819,-154.70076 679.94199,16.305854 678.91289,184.21732 678.91289,202.01438 676.32849,306.08854 671.17499,496.44753 668.84589,589.8125 670.91199,728.58325 677.36529,912.74415 L 689.35899,1254.3628 H 682.78179 C 680.45269,1170.2833 677.23379,1068.1436 673.10949,947.94365 668.97749,827.75155 666.26919,747.65705 664.97699,707.68325 662.65569,633.3921 662.91099,551.37857 665.75849,461.61944 669.11679,348.9021 670.78039,278.48761 670.78039,250.37598 670.78039,62.346094 670.13819,-130.71341 668.84589,-328.80252 z" style="fill:#512a27;fill-rule:evenodd"/>
            <path inkscape:connector-curvature="0" id="path186" d="M 632.86489,-328.80252 H 639.05519 C 639.05519,-285.98896 638.15759,-176.23522 636.34699,0.44324405 635.31009,135.60037 635.18629,245.47792 635.95229,330.0759 636.98919,414.16317 638.14989,515.266 639.43439,633.39984 640.21589,720.84535 640.33969,798.61085 639.82119,866.69615 639.56589,904.09325 638.28139,972.83635 635.95229,1072.9101 634.41249,1147.9596 634.14939,1208.5779 635.17849,1254.7497 H 628.60139 L 628.20669,1178.1449 C 628.72519,1114.6945 630.27269,1033.0601 632.85719,933.24175 635.17849,839.61365 636.33919,777.71085 636.33919,747.53325 636.33919,723.80895 635.55769,649.52553 634.01009,524.68297 632.20719,399.84814 631.30189,297.44536 631.30189,217.4901 632.09109,-41.472716 632.60959,-223.56768 632.86489,-328.80252 z" style="fill:#512a27;fill-rule:evenodd"/>
            <path inkscape:connector-curvature="0" id="path188" d="M 705.60079,-328.80252 H 714.12009 C 713.60939,-209.63954 712.82789,-86.476086 711.79879,40.680094 711.79879,120.38001 713.73319,196.72943 717.60219,269.72062 720.95269,333.94482 724.43469,402.6802 728.04829,475.93448 730.11429,530.87325 731.53029,607.86492 732.30409,706.90945 732.81479,783.00355 731.91719,848.38845 729.59579,903.07185 727.52979,961.10575 726.50069,1028.3014 726.50069,1104.643 L 727.28219,1254.3706 H 717.60989 L 716.82059,1130.944 C 716.82059,1070.8441 717.60219,993.85235 719.14199,899.96125 720.68959,806.33315 721.47109,744.30655 721.47109,713.86585 721.47109,679.55615 719.27349,587.8703 714.88619,438.78503 710.24349,275.26093 707.40369,157.12708 706.37449,84.391244 705.33769,0.83014405 705.08229,-136.9037 705.60079,-328.80252 z" style="fill:#512a27;fill-rule:evenodd"/>
            <path inkscape:connector-curvature="0" id="path190" d="M 507.51164,-328.80252 506.35096,-206.1575 C 505.57717,-110.98188 504.67958,-19.032936 503.64271,69.697054 502.86892,128.24941 503.00047,195.30566 504.0296,270.8813 505.06648,332.78415 506.09561,384.75932 507.12475,426.79909 507.89853,457.75052 507.76699,516.29513 506.73785,602.44068 506.47477,626.17268 505.31409,666.67262 503.25582,723.92505 501.70825,765.97255 500.28448,910.92575 499,1158.7926 L 498.21847,1254.742 H 487.77237 C 491.89665,1033.4316 494.34955,884.47775 495.12333,807.88075 495.37868,767.38855 496.02092,717.34785 497.05779,657.76635 498.08693,610.56543 498.47382,558.97714 498.21074,503.00923 497.1816,211.54742 497.05779,-7.170806 497.82384,-153.16093 L 499.75831,-328.81025 H 507.51164 z" style="fill:#512a27;fill-rule:evenodd"/>
            <path inkscape:connector-curvature="0" id="path192" d="M 559.35527,-328.80252 H 565.93245 C 564.64796,-295.0113 565.54556,-203.44925 568.64844,-54.108636 570.71444,47.775714 574.0572,169.51539 578.70769,311.11815 581.02899,386.94914 582.18969,470.64178 582.18969,562.21157 582.44499,709.23085 582.32119,940.07425 581.79509,1254.7497 H 573.6703 C 572.38582,1117.2712 572.12273,1003.5247 572.89652,913.50245 574.69944,695.55805 573.79411,485.7306 570.18053,284.02792 566.83004,172.33971 564.2456,80.909204 562.44268,9.720934 558.83683,-123.11484 557.67616,-226.02832 558.96838,-299.01951 L 559.35527,-328.80252 z" style="fill:#512a27;fill-rule:evenodd"/>
            <polygon transform="matrix(7.7378556,0,0,7.7378556,-422.9655,-448.73927)" style="fill:#231313;fill-rule:evenodd" points="42.45,203.35 167.3,203.4 169.7,205.15 39.5,205.2 " id="polygon194"/>
            <rect x="-117.32021" y="950.26508" style="fill:#231313;fill-rule:evenodd" width="1001.2785" height="13.541247" id="rect196"/>
            <polygon transform="matrix(7.7378556,0,0,7.7378556,-422.9655,-448.73927)" style="fill:#231313;fill-rule:evenodd" points="42.45,173.15 167.3,173.2 169.7,175.75 39.5,175.8 " id="polygon198"/>
            <rect x="-117.32021" y="-138.45126" style="fill:#231313;fill-rule:evenodd" width="1001.2785" height="21.279102" id="rect200"/>
            <rect x="-98.36245" y="-123.36243" style="fill:#884844;fill-rule:evenodd" width="969.94019" height="14.701925" id="rect202"/>
            <polygon transform="matrix(7.7378556,0,0,7.7378556,-422.9655,-448.73927)" style="fill:#884844;fill-rule:evenodd" points="41.5,182.5 166.9,182.5 166.9,183.85 41.5,183.9 " id="polygon204"/>
            <polygon transform="matrix(7.7378556,0,0,7.7378556,-422.9655,-448.73927)" style="fill:#3f2120;fill-rule:evenodd" points="108.4,42.1 108.4,173.95 105.4,173.65 105.4,42.1 " id="polygon206"/>
            <polygon transform="matrix(7.7378556,0,0,7.7378556,-422.9655,-448.73927)" style="fill:#3f2120;fill-rule:evenodd" points="75.95,42.1 75.95,173.95 73,173.65 73,42.1 " id="polygon208"/>
            <polygon transform="matrix(7.7378556,0,0,7.7378556,-422.9655,-448.73927)" style="fill:#3f2120;fill-rule:evenodd" points="59.75,42.1 59.75,173.95 56.8,173.65 56.8,42.1 " id="polygon210"/>
            <polygon transform="matrix(7.7378556,0,0,7.7378556,-422.9655,-448.73927)" style="fill:#75413d;fill-rule:evenodd" points="58.9,42 60.35,42 60.35,167.45 58.9,167.75 " id="polygon212"/>
            <polygon transform="matrix(7.7378556,0,0,7.7378556,-422.9655,-448.73927)" style="fill:#774140;fill-rule:evenodd" points="58.9,42.1 60.35,42.1 60.35,173.65 58.9,173.25 " id="polygon214"/>
            <polygon transform="matrix(7.7378556,0,0,7.7378556,-422.9655,-448.73927)" style="fill:#774140;fill-rule:evenodd" points="75.1,42.1 76.55,42.1 76.55,173.65 75.1,173.25 " id="polygon216"/>
            <polygon transform="matrix(7.7378556,0,0,7.7378556,-422.9655,-448.73927)" style="fill:#3f2120;fill-rule:evenodd" points="93.8,42.1 93.8,173.95 90.85,173.65 90.85,42.1 " id="polygon218"/>
            <polygon transform="matrix(7.7378556,0,0,7.7378556,-422.9655,-448.73927)" style="fill:#3f2120;fill-rule:evenodd" points="137.55,42.1 137.55,173.95 134.6,173.65 134.6,42.1 " id="polygon220"/>
            <polygon transform="matrix(7.7378556,0,0,7.7378556,-422.9655,-448.73927)" style="fill:#3f2120;fill-rule:evenodd" points="121.35,42.1 121.35,173.95 118.4,173.65 118.4,42.1 " id="polygon222"/>
            <polygon transform="matrix(7.7378556,0,0,7.7378556,-422.9655,-448.73927)" style="fill:#3f2120;fill-rule:evenodd" points="155.4,42.1 155.4,173.95 152.45,173.65 152.45,42.1 " id="polygon224"/>
            <polygon transform="matrix(7.7378556,0,0,7.7378556,-422.9655,-448.73927)" style="fill:#181010;fill-rule:evenodd" points="107.5,40.65 107.5,168.35 106,168.1 106,40.65 " id="polygon226"/>
            <polygon transform="matrix(7.7378556,0,0,7.7378556,-422.9655,-448.73927)" style="fill:#63352f;fill-rule:evenodd" points="28.8,209.65 181.75,209.65 181.75,216.6 28.8,216.65 " id="polygon228"/>
            <polygon transform="matrix(7.7378556,0,0,7.7378556,-422.9655,-448.73927)" style="fill:#562d29;fill-rule:evenodd" points="28.8,213.95 181.75,213.95 181.75,218.6 28.8,218.65 " id="polygon230"/>
            <polygon transform="matrix(7.7378556,0,0,7.7378556,-422.9655,-448.73927)" style="fill:#492624;fill-rule:evenodd" points="28.8,216.9 181.75,216.9 181.75,220.1 28.8,220.15 " id="polygon232"/>
            <rect x="-200.11528" y="1169.6332" style="fill:#884844;fill-rule:evenodd" width="1183.505" height="20.118423" id="rect234"/>
            <polygon transform="matrix(7.7378556,0,0,7.7378556,-422.9655,-448.73927)" style="fill:#63352f;fill-rule:evenodd" points="185.55,21.35 177.95,33.75 32.6,33.75 25.6,21.35 " id="polygon236"/>
            <polygon transform="matrix(7.7378556,0,0,7.7378556,-422.9655,-448.73927)" style="fill:#3f2120;fill-rule:evenodd" points="185.55,21.35 182.9,25.65 28.05,25.65 25.6,21.35 " id="polygon238"/>
            <polygon transform="matrix(7.7378556,0,0,7.7378556,-422.9655,-448.73927)" style="fill:#301919;fill-rule:evenodd" points="185.55,21.1 182.9,23.85 28.05,23.85 25.6,21.1 " id="polygon240"/>
            <polygon transform="matrix(7.7378556,0,0,7.7378556,-422.9655,-448.73927)" style="fill:#3f2120;fill-rule:evenodd" points="180.9,28.9 177.95,33.75 32.6,33.75 29.85,28.9 " id="polygon242"/>
            <polygon transform="matrix(7.7378556,0,0,7.7378556,-422.9655,-448.73927)" style="fill:#301919;fill-rule:evenodd" points="180.9,28.65 177.95,32.1 32.6,32.1 29.85,28.65 " id="polygon244"/>
            <polygon transform="matrix(7.7378556,0,0,7.7378556,-422.9655,-448.73927)" style="fill:#884844;fill-rule:evenodd" points="181.25,28.4 180.1,30.2 30.6,30.2 29.55,28.4 " id="polygon246"/>
            <rect x="-233.38805" y="-328.02872" style="fill:#63352f;fill-rule:evenodd" width="1246.1816" height="47.20092" id="rect248"/>
            <rect x="-233.38805" y="-300.55936" style="fill:#562d29;fill-rule:evenodd" width="1246.1816" height="20.505318" id="rect250"/>
            <rect x="-233.38805" y="-328.80252" style="fill:#884844;fill-rule:evenodd" width="1246.1816" height="17.410175" id="rect252"/>
            <path style="fill:url(#linearGradient4877);fill-rule:evenodd" d="M 904.07679,-16.580036 H 897.11269 C 892.73309,-16.580036 889.89329,-16.711576 888.60099,-16.966926 V -71.518806 C 890.66709,-72.292596 893.76219,-72.679486 897.88649,-72.679486 905.36899,-72.679486 909.10639,-71.905706 909.10639,-70.358136 L 908.32479,-18.127606 C 908.33259,-17.353816 906.90879,-16.835386 904.07679,-16.580036 z" id="path261" inkscape:connector-curvature="0"/>
            <path style="fill:url(#linearGradient4879);fill-rule:evenodd" d="M -117.7071,-5.360146 C -118.74398,-4.331006 -122.48136,-3.812576 -128.92699,-3.812576 H -135.89106 C -138.73086,-4.331006 -140.14688,-4.973256 -140.14688,-5.747036 L -140.92067,-57.590666 C -140.92067,-59.393586 -137.05174,-60.298916 -129.31389,-60.298916 -121.57603,-60.298916 -117.7071,-59.393586 -117.7071,-57.590666 V -5.360146 z" id="path270" inkscape:connector-curvature="0"/>
            <path style="fill:url(#linearGradient4881);fill-rule:evenodd" d="M -115.77264,841.16125 C -115.77264,842.70885 -119.77311,843.48265 -127.76632,843.48265 L -132.02214,844.25645 C -136.66485,844.25645 -138.98621,843.22725 -138.98621,841.16895 L -142.08135,687.18565 C -142.08135,686.15655 -138.34396,684.99585 -130.86146,683.70365 -122.86825,683.70365 -118.86778,684.60895 -118.86778,686.41965 L -115.77264,841.16125 z" id="path279" inkscape:connector-curvature="0"/>
            <path style="fill:url(#linearGradient4883);fill-rule:evenodd" d="M 911.04079,841.16125 C 911.04079,842.70885 907.04039,843.48265 899.03939,843.48265 H 893.63069 L 891.69619,843.09575 C 891.95149,837.93455 891.43309,820.52445 890.14859,790.86525 888.85639,757.07395 888.34569,725.09345 888.60099,694.91575 891.95929,689.49925 893.63069,686.28035 893.63069,685.24345 895.69669,684.21435 898.91559,683.69585 903.30299,683.69585 911.04079,684.98815 914.90979,686.14875 914.90979,687.17795 L 911.04079,841.16125 z" id="path288" inkscape:connector-curvature="0"/>
            <path style="fill:#3f2120;fill-rule:evenodd" d="M -140.14688,-5.747036 -117.7071,-5.360146 -119.64157,83.625194 C -129.95613,54.476694 -136.15415,34.752904 -138.21242,24.430604 -139.50464,17.721884 -140.14688,10.757814 -140.14688,3.538394 V -5.747036 z" id="path290" inkscape:connector-curvature="0"/>
            <polygon transform="matrix(7.7378556,0,0,7.7378556,-422.9655,-448.73927)" style="fill:#3f2120;fill-rule:evenodd" points="169.7,66 169.5,55.8 171.5,55.85 " id="polygon292"/>
            <polygon transform="matrix(7.7378556,0,0,7.7378556,-422.9655,-448.73927)" style="fill:#3f2120;fill-rule:evenodd" points="39.2,170.4 36.45,166.95 39.45,166.95 " id="polygon294"/>
            <polygon transform="matrix(7.7378556,0,0,7.7378556,-422.9655,-448.73927)" style="fill:#3f2120;fill-rule:evenodd" points="169.45,170.4 169.6,167.2 172.1,166.95 " id="polygon296"/>
            <polygon transform="matrix(7.7378556,0,0,7.7378556,-422.9655,-448.73927)" style="fill:#774140;fill-rule:evenodd" points="94.55,42.1 96,42.1 96,173.65 94.55,173.25 " id="polygon298"/>
            <polygon transform="matrix(7.7378556,0,0,7.7378556,-422.9655,-448.73927)" style="fill:#774140;fill-rule:evenodd" points="109.15,42.1 110.6,42.1 110.6,173.65 109.15,173.25 " id="polygon300"/>
            <polygon transform="matrix(7.7378556,0,0,7.7378556,-422.9655,-448.73927)" style="fill:#774140;fill-rule:evenodd" points="122.15,42.1 123.55,42.1 123.55,173.65 122.15,173.25 " id="polygon302"/>
            <polygon transform="matrix(7.7378556,0,0,7.7378556,-422.9655,-448.73927)" style="fill:#774140;fill-rule:evenodd" points="138.35,42.1 139.8,42.1 139.8,173.65 138.35,173.25 " id="polygon304"/>
            <polygon transform="matrix(7.7378556,0,0,7.7378556,-422.9655,-448.73927)" style="fill:#774140;fill-rule:evenodd" points="156.15,42.1 157.6,42.1 157.6,173.65 156.15,173.25 " id="polygon306"/>
            <path style="fill:url(#linearGradient4885);fill-rule:evenodd" d="M 386.0273,407.45445 C 386.0273,417.25832 384.22438,425.50687 380.6108,432.20785 377.25258,439.17192 373.00449,442.6617 367.84334,442.6617 362.93754,442.6617 358.68172,439.17966 355.07588,432.20785 351.47004,425.50687 349.65938,417.25058 349.65938,407.45445 349.65938,397.65833 351.4623,389.3943 355.07588,382.69331 358.68946,375.72924 362.94528,372.24721 367.84334,372.24721 373.00449,372.24721 377.25258,375.72924 380.6108,382.69331 384.21665,389.3943 386.0273,397.65833 386.0273,407.45445 z" id="path315" inkscape:connector-curvature="0"/>
            <path style="fill:url(#linearGradient4887);fill-rule:evenodd" d="M 386.0273,528.55189 C 386.0273,538.35576 384.22438,546.61205 380.6108,553.31303 377.25258,560.2771 373.00449,563.75914 367.84334,563.75914 362.93754,563.75914 358.68172,560.28484 355.07588,553.31303 351.47004,546.61205 349.65938,538.34802 349.65938,528.55189 349.65938,518.75577 351.4623,510.49948 355.07588,503.79076 358.68946,496.83442 362.94528,493.34465 367.84334,493.34465 373.00449,493.34465 377.25258,496.82669 380.6108,503.79076 384.21665,510.49948 386.0273,518.74803 386.0273,528.55189 z" id="path322" inkscape:connector-curvature="0"/>
            <path style="fill:#554e48;fill-rule:evenodd" d="M 370.93848,380.75885 375.5812,405.12536 C 377.38412,421.63794 375.1943,430.27339 369.00402,431.05491 362.81374,432.08405 357.90794,428.98891 354.30209,421.76949 L 350.82006,410.93649 C 347.46183,411.97336 344.24288,414.80542 341.14774,419.45587 334.70211,428.47821 331.73077,441.50876 332.24921,458.53204 333.02299,479.1689 335.5997,496.57908 339.98706,510.76256 344.62978,525.2014 349.14095,529.59651 353.52831,523.91692 355.84967,521.07713 357.01035,516.31061 357.01035,509.59415 357.01035,505.46987 360.23703,503.14851 366.68266,502.63782 376.48653,502.12712 379.83702,510.37567 376.74188,527.39895 375.1943,535.9106 372.7414,544.54604 369.39091,553.32077 363.45598,555.12369 357.27343,556.41591 350.82006,557.1897 337.92105,558.73727 330.31474,557.05816 327.99339,552.16009 320.51862,537.4659 315.61282,521.6033 313.29146,504.58002 312.78076,500.96644 311.87543,486.26451 310.58321,460.47424 309.80943,444.48783 311.357,427.97525 315.22592,410.95196 319.3502,392.6442 324.51135,382.45344 330.70164,380.38743 339.72397,377.27682 353.14142,377.40836 370.93848,380.75885 z" id="path324" inkscape:connector-curvature="0"/>
            <path style="fill:#3f3b38;fill-rule:evenodd" d="M 367.45645,408.61513 C 372.35451,409.39665 374.42052,401.26417 373.64673,384.24089 L 378.28945,408.61513 C 380.09237,424.87237 377.90255,433.50781 371.71227,434.54469 365.52199,435.57382 360.49238,432.47868 356.62345,425.25926 L 353.14142,414.42626 C 349.79092,415.46313 346.56424,418.29519 343.4691,422.94564 337.27881,431.71263 334.43902,444.61164 334.95746,461.63492 335.73124,482.51939 338.30795,500.06111 342.69531,514.25234 347.33802,528.43583 351.84919,532.81545 356.23656,527.40669 L 358.55792,523.14313 C 359.3317,521.07713 360.10549,516.31061 360.87927,508.8281 362.17149,507.02518 365.01129,506.11985 369.39091,506.11985 371.96762,505.85676 374.16517,506.25139 375.96809,507.27279 L 373.25984,506.8859 C 370.68314,506.11211 368.88022,510.11258 367.84334,518.87958 366.80647,529.20187 365.00355,535.39216 362.42684,537.45043 350.56471,548.54651 340.89239,545.96207 333.40988,529.71257 327.99339,518.10579 324.64289,502.24319 323.35067,482.12476 322.05845,460.20342 323.73756,440.60343 328.38028,423.31706 332.50456,408.09669 339.34482,401.00108 348.8856,402.03795 354.04675,402.55639 360.23703,404.7462 367.45645,408.61513 z" id="path326" inkscape:connector-curvature="0"/>
            <path style="fill:#2d2827;fill-rule:evenodd" d="M 348.4987,409.00202 C 351.84919,407.97289 355.59432,409.90735 359.71859,414.80542 364.36131,419.71122 368.09869,422.15638 370.93848,422.15638 375.06276,421.90103 377.64721,418.41899 378.67634,411.71027 V 412.48406 L 377.51566,428.34666 C 376.74188,432.21559 374.80741,434.2816 371.71227,434.54469 365.52199,435.57382 360.49238,432.47868 356.62345,425.25926 L 353.14142,414.42626 348.11181,425.63841 C 344.76132,436.47141 343.4691,450.39955 344.24288,467.42283 345.27202,492.17624 346.30889,508.68882 347.33802,516.93737 349.14095,529.05486 352.11228,532.54463 356.23656,527.39122 L 358.94481,521.97472 C 361.01082,526.87278 363.58752,529.06259 366.68266,528.55189 358.94481,533.20235 351.98074,534.74218 345.79045,533.20235 341.40309,532.16547 338.43949,525.46449 336.89192,513.07618 335.5997,503.27232 334.95746,487.28591 334.95746,465.10148 334.95746,447.82285 335.46815,435.82917 336.50503,429.12819 338.57103,417.51367 342.56377,410.80494 348.4987,409.00202 z" id="path328" inkscape:connector-curvature="0"/>
            <path style="fill:#776c68;fill-rule:evenodd" d="M 319.86864,390.43117 C 322.18999,386.29916 326.44582,383.59864 332.6361,382.30642 335.99433,381.53264 338.95793,381.27729 341.53463,381.53264 L 343.85599,387.72292 C 345.65891,392.11028 347.98027,394.56319 350.82006,395.07388 350.04627,395.07388 347.72492,395.72386 343.85599,397.00835 335.34435,399.59279 330.57009,405.00155 329.54096,413.26558 328.76717,417.64521 324.7667,419.45587 317.54728,418.67434 317.02884,415.58694 316.7735,412.09717 316.7735,408.22824 316.7735,400.49038 317.80263,394.55545 319.86864,390.43117 z" id="path330" inkscape:connector-curvature="0"/>
            <path style="fill:#3f3b38;fill-rule:evenodd" d="M 373.25984,506.8859 376.74188,515.39754 C 379.31858,522.36161 380.86615,528.68344 381.38459,534.35529 382.15838,540.02713 380.34772,545.06448 375.96809,549.44411 L 369.39091,554.47371 H 357.39724 C 362.81374,552.92614 367.32491,548.80186 370.93848,542.0854 374.54433,535.39216 375.32585,523.65383 373.25984,506.8859 z" id="path332" inkscape:connector-curvature="0"/>
            <path style="fill:url(#linearGradient3885);fill-rule:evenodd" d="M 421.23455,407.45445 C 421.23455,397.65059 423.03747,389.3943 426.65105,382.69331 430.26462,375.72924 434.64425,372.24721 439.8054,372.24721 444.96655,372.24721 449.47772,375.72924 453.34665,382.69331 456.96023,389.64965 458.76315,397.91368 458.76315,407.45445 458.76315,417.25832 456.96023,425.50687 453.34665,432.20785 449.47772,439.17192 444.96655,442.6617 439.8054,442.6617 434.64425,442.6617 430.26462,439.17966 426.65105,432.20785 423.03747,425.50687 421.23455,417.25832 421.23455,407.45445 z" id="path341" inkscape:connector-curvature="0"/>
            <path style="fill:url(#linearGradient3882);fill-rule:evenodd" d="M 421.23455,528.55189 C 421.23455,518.74803 423.03747,510.49948 426.65105,503.79076 430.26462,496.83442 434.64425,493.34465 439.8054,493.34465 444.96655,493.34465 449.47772,496.82669 453.34665,503.79076 456.96023,510.75483 458.76315,519.01112 458.76315,528.55189 458.76315,538.35576 456.96023,546.61205 453.34665,553.31303 449.47772,560.2771 444.96655,563.75914 439.8054,563.75914 434.64425,563.75914 430.26462,560.28484 426.65105,553.31303 423.03747,546.61205 421.23455,538.34802 421.23455,528.55189 z" id="path348" inkscape:connector-curvature="0"/>
            <path style="fill:#554e48;fill-rule:evenodd" d="M 436.71026,380.75885 452.18597,378.82439 C 463.5374,378.0506 472.04905,378.5613 477.72863,380.37196 484.17427,382.43797 489.59076,392.62098 493.97813,410.93649 497.84706,427.95977 499.39463,444.47235 498.62084,460.45876 496.81792,488.83348 495.78879,503.52767 495.53344,504.56454 493.21208,521.58782 488.18247,537.45043 480.44462,552.14462 478.12326,557.05042 470.38541,558.72953 457.23105,557.17422 L 438.27331,553.3053 C 434.65973,544.53057 432.08302,535.89512 430.53545,527.38348 427.44805,510.3602 430.92234,502.1039 440.98929,502.62234 447.69028,503.13304 451.0485,505.4544 451.0485,509.57867 451.0485,516.28739 452.20145,521.05391 454.53054,523.90144 459.17325,529.57329 463.80823,525.18593 468.45868,510.74709 472.83831,496.81895 475.41501,479.40877 476.19654,458.51656 476.97032,441.49328 474.13053,428.46273 467.67716,419.44039 L 457.61794,410.92101 C 457.10725,414.78994 455.93883,418.40352 454.13591,421.75401 450.26698,428.98117 445.11357,432.06857 438.6602,431.03944 432.21456,430.25791 430.02475,421.62247 432.08302,405.10988 L 436.71026,380.75885 z" id="path350" inkscape:connector-curvature="0"/>
            <path style="fill:#3f3b38;fill-rule:evenodd" d="M 440.19229,408.61513 C 442.77674,408.35978 449.09083,406.16997 459.15004,402.03795 468.9539,401.00108 476.04952,408.09669 480.42914,423.31706 485.33494,440.59569 487.00632,460.20342 485.45875,482.12476 484.16653,502.25092 480.8083,518.10579 475.3918,529.71257 467.65394,545.96207 457.59473,548.54651 445.2219,537.45043 442.63746,535.38442 440.84227,529.20187 439.8054,518.87958 438.76853,510.11258 436.97335,506.11985 434.3889,506.8859 L 431.68065,507.27279 C 433.22822,505.98831 435.41804,505.59368 438.25783,506.11985 442.38211,506.11985 445.35344,507.01744 447.15636,508.8281 447.15636,514.76304 447.93015,519.53729 449.47772,523.14313 L 451.79908,527.40669 C 456.44953,532.81545 461.0845,528.43583 465.72722,514.25234 470.11458,500.06111 472.69129,482.51939 473.46507,461.63492 474.2466,444.61164 471.39907,431.71263 464.95343,422.94564 L 454.89422,414.42626 C 454.38352,418.29519 453.2151,421.90877 451.41218,425.25926 447.54326,432.48642 442.38211,435.57382 435.93647,434.54469 429.49084,433.50781 427.30103,424.87237 429.3593,408.61513 L 434.00201,384.24089 434.3889,397.00835 C 435.16269,405.2569 437.09715,409.12583 440.19229,408.61513 z" id="path352" inkscape:connector-curvature="0"/>
            <path style="fill:#2d2827;fill-rule:evenodd" d="M 459.53693,409.00202 C 465.72722,410.80494 469.85923,417.5214 471.92524,429.12819 473.20972,436.08452 473.8597,448.08593 473.8597,465.10148 473.8597,487.03056 473.07818,503.01697 471.53061,513.07618 469.99078,525.46449 466.8879,532.16547 462.25292,533.20235 458.38399,534.23148 453.73354,533.71304 448.31704,531.65478 L 440.97382,528.55963 C 444.32431,529.07033 447.03256,526.88052 449.09857,521.98246 449.35391,523.53003 450.25151,525.34068 451.80681,527.39895 455.93109,532.55237 459.03397,529.07033 461.09224,516.94511 462.12911,508.69656 463.15825,492.18397 464.18738,467.43057 464.96117,450.40729 463.66895,436.47915 460.31846,425.64615 L 454.90196,414.42626 C 454.39126,418.29519 453.22284,421.90877 451.41992,425.25926 447.55099,432.48642 442.38984,435.57382 435.94421,434.54469 433.11216,434.2816 431.03841,432.21559 429.75393,428.34666 L 428.59325,412.48406 428.98014,411.71027 C 430.01701,418.41126 432.59372,421.89329 436.718,422.15638 439.55779,422.41173 443.42672,419.96657 448.32478,414.80542 452.44906,409.90735 456.1787,407.97289 459.53693,409.00202 z" id="path354" inkscape:connector-curvature="0"/>
            <path style="fill:#776c68;fill-rule:evenodd" d="M 488.94078,390.43117 C 492.55436,397.13215 493.45969,406.54912 491.65677,418.66661 483.91892,419.44813 479.79464,417.63747 479.26846,413.25784 478.23933,405.00155 473.46507,399.58505 464.95343,397.00061 457.72627,396.22682 455.14957,395.57684 457.21558,395.06615 461.85829,394.29236 465.08498,389.77345 466.8879,381.5249 L 475.78643,382.29868 C 482.23206,383.59864 486.61943,386.30689 488.94078,390.43117 z" id="path356" inkscape:connector-curvature="0"/>
            <path style="fill:#3f3b38;fill-rule:evenodd" d="M 434.3889,506.8859 433.61512,520.81404 C 433.35977,530.87325 434.3889,537.96887 436.70252,542.09314 440.3161,548.80186 444.95881,552.92614 450.6384,554.48145 H 438.25783 C 435.93647,553.44458 433.74666,551.76546 431.68065,549.45184 427.30103,545.07222 425.36656,540.03487 425.87726,534.36302 426.38796,528.69118 427.94327,522.36935 430.51997,515.40528 L 434.3889,506.8859 z" id="path358" inkscape:connector-curvature="0"/>
            <path style="fill:url(#linearGradient3864);fill-rule:evenodd" d="M 455.28111,1004.817 C 464.05584,1004.817 471.65441,1006.883 478.10779,1011.015 484.29807,1014.8839 487.39321,1019.5266 487.39321,1024.9431 487.39321,1030.615 484.29807,1035.3892 478.10779,1039.2582 471.9175,1043.1271 464.31119,1045.0616 455.28111,1045.0616 446.25103,1045.0616 438.64472,1043.1271 432.45444,1039.2582 426.0088,1035.3892 422.78212,1030.6227 422.78212,1024.9431 422.78212,1019.5266 426.0088,1014.8839 432.45444,1011.015 438.90781,1006.8752 446.50638,1004.817 455.28111,1004.817 z" id="path367" inkscape:connector-curvature="0"/>
            <path style="fill:url(#linearGradient3861);fill-rule:evenodd" d="M 343.85599,1004.817 C 352.62298,1004.817 360.23703,1006.883 366.68266,1011.015 372.87295,1014.8839 375.96809,1019.5266 375.96809,1024.9431 375.96809,1030.615 372.87295,1035.3892 366.68266,1039.2582 360.49238,1043.1271 352.88607,1045.0616 343.85599,1045.0616 334.82591,1045.0616 327.2196,1043.1271 321.02932,1039.2582 314.58368,1035.3892 311.357,1030.6227 311.357,1024.9431 311.357,1019.5266 314.58368,1014.8839 321.02932,1011.015 327.47495,1006.8752 335.089,1004.817 343.85599,1004.817 z" id="path374" inkscape:connector-curvature="0"/>
            <path style="fill:#554e48;fill-rule:evenodd" d="M 479.65536,1021.4534 481.58982,1038.0897 C 482.36361,1050.4703 481.97671,1059.7557 480.42914,1065.946 478.36314,1072.9101 468.82236,1078.7135 451.79908,1083.3562 436.06802,1087.4805 420.84765,1089.0281 406.15347,1087.9989 381.12924,1086.196 367.71954,1085.1669 365.91662,1084.9115 350.17782,1082.3271 335.47589,1076.9183 321.81084,1068.6543 317.42348,1066.0776 316.00745,1057.6975 317.55502,1043.5062 L 321.03705,1023.0087 345.02441,1014.8839 C 360.75547,1011.7888 368.36952,1015.5262 367.85108,1026.0961 367.33264,1033.3232 365.14283,1036.9291 361.2739,1036.9291 355.08362,1037.1844 350.69625,1038.4766 348.11955,1040.798 342.9584,1045.7038 347.09041,1050.6019 360.50012,1055.4999 373.39912,1060.398 389.38553,1063.2378 408.47482,1064.0116 424.20588,1064.7853 436.19956,1061.6902 444.44811,1054.7261 448.58013,1051.1126 451.15683,1047.499 452.18597,1043.9009 448.83548,1043.3824 445.48499,1042.098 442.12676,1040.0319 435.42577,1036.163 432.45444,1030.7465 433.23596,1023.7747 434.2651,1016.8184 442.2583,1014.3577 457.22331,1016.4237 464.95343,1017.4529 472.43594,1019.132 479.65536,1021.4534 z" id="path376" inkscape:connector-curvature="0"/>
            <path style="fill:#3f3b38;fill-rule:evenodd" d="M 464.95343,1019.132 C 457.47093,1019.9058 453.85735,1021.9641 454.12043,1025.3223 454.63887,1028.1543 456.70488,1034.9946 460.31846,1045.8276 461.09224,1056.3975 454.51506,1064.0116 440.57919,1068.6465 424.84813,1073.8077 406.79571,1075.6106 386.4142,1074.063 367.84334,1072.5155 353.26522,1068.7703 342.69531,1062.8431 327.99339,1054.8499 325.54048,1044.1485 335.34435,1030.7388 337.41036,1028.1543 343.0822,1026.2199 352.36763,1024.9354 360.61619,1023.8985 364.36131,1021.9641 363.58752,1019.132 L 363.20063,1016.416 C 364.22976,1017.7082 364.7482,1019.898 364.7482,1023.0009 364.49285,1027.899 363.58752,1031.1257 362.03995,1032.6732 355.59432,1033.1839 351.20695,1034.097 348.8856,1035.3815 347.59337,1035.6368 346.17735,1036.5422 344.62978,1038.0975 339.72397,1042.7402 343.85599,1047.6383 357.01035,1052.7917 370.1647,1057.4421 386.29039,1060.2742 405.37194,1061.3111 421.103,1062.0848 433.10442,1058.8582 441.35297,1051.6387 445.47725,1048.0251 448.05395,1044.4116 449.09083,1040.8057 445.7326,1040.295 442.38211,1039.0028 439.03161,1036.9368 432.32289,1033.0679 429.3593,1027.6514 430.13308,1020.6873 431.16995,1013.9786 439.16316,1011.6572 454.12043,1013.7232 461.85829,1014.7601 469.3408,1016.4315 476.56022,1018.7528 472.69129,1018.482 468.82236,1018.6213 464.95343,1019.132 z" id="path378" inkscape:connector-curvature="0"/>
            <path style="fill:#2d2827;fill-rule:evenodd" d="M 451.41218,1013.3286 C 445.2219,1014.3577 441.99521,1017.1975 441.73986,1021.8403 441.73986,1024.9354 443.92968,1028.9359 448.31704,1033.8339 452.70441,1038.4844 454.51506,1042.6087 453.73354,1046.2222 451.93062,1052.9232 445.86414,1057.3183 435.54958,1059.3766 429.3593,1060.6611 418.27095,1061.3111 402.2768,1061.3111 381.89529,1061.3111 367.06956,1060.5295 357.78413,1058.982 346.69578,1057.179 340.6293,1053.9601 339.60017,1049.3096 338.82638,1045.1854 339.34482,1040.1558 341.14774,1034.2286 L 343.85599,1026.4907 344.24288,1029.5781 C 345.01667,1031.6441 346.81959,1033.3155 349.65938,1034.6077 347.59337,1035.6368 345.922,1036.7975 344.62978,1038.0897 339.98706,1042.4694 343.20601,1045.6961 354.30209,1047.7621 361.52151,1048.7912 376.74188,1049.9519 399.94771,1051.2364 415.6865,1052.0179 428.57777,1050.4626 438.63698,1046.5937 443.79813,1044.7907 447.28017,1042.8563 449.09083,1040.7903 445.7326,1040.2796 442.38211,1038.9873 439.03161,1036.9213 432.32289,1033.0524 429.3593,1027.6359 430.13308,1020.6718 430.38843,1018.0874 432.32289,1015.8976 435.93647,1014.0869 L 451.41218,1013.3286 z" id="path380" inkscape:connector-curvature="0"/>
            <path style="fill:#776c68;fill-rule:evenodd" d="M 470.75682,1077.5528 C 466.8879,1079.8742 461.4714,1081.1664 454.50733,1081.4217 L 444.83501,1080.648 C 444.57192,1078.5819 444.70346,1076.5159 445.2219,1074.4499 445.7326,1070.0703 447.28791,1067.6174 449.86461,1067.1067 457.60247,1066.0698 462.63207,1060.9087 464.95343,1051.631 466.24565,1047.499 466.8879,1044.9223 466.8879,1043.8931 467.39859,1048.7912 471.53061,1052.1417 479.26846,1053.9524 480.04225,1065.8145 477.20246,1073.6839 470.75682,1077.5528 z" id="path382" inkscape:connector-curvature="0"/>
            <path style="fill:#3f3b38;fill-rule:evenodd" d="M 363.58752,1019.132 C 359.71859,1018.6213 355.46277,1018.3505 350.82006,1018.3505 341.78998,1018.0951 335.21281,1019.2558 331.08853,1021.8325 327.2196,1024.1539 324.24826,1027.3806 322.18999,1031.5048 L 319.86864,1036.5344 V 1022.9932 L 324.51135,1016.0291 C 328.63563,1011.3864 333.27834,1009.3281 338.43949,1009.8388 346.95113,1010.8834 355.33123,1013.9709 363.58752,1019.132 z" id="path384" inkscape:connector-curvature="0"/>
            <path style="fill:#776c68;fill-rule:evenodd" d="M 352.36763,1081.0348 C 350.56471,1078.9688 344.62978,1076.6552 334.57056,1074.0708 328.38028,1072.5232 323.60602,1069.3043 320.25553,1064.3985 L 317.54728,1057.8213 C 324.51135,1063.7562 329.54096,1064.5223 332.6361,1060.1426 334.95746,1056.854 335.089,1053.4417 333.02299,1049.89 L 337.66571,1055.8868 C 343.60064,1062.3324 349.40403,1065.4276 355.07588,1065.1722 360.23703,1064.9091 359.3317,1070.2018 352.36763,1081.0348 z" id="path386" inkscape:connector-curvature="0"/>
        </g>
    </g>
</svg>