<?xml version="1.0" encoding="UTF-8" standalone="no"?>
<!-- Created with Inkscape (http://www.inkscape.org/) -->
<svg xmlns:inkscape="http://www.inkscape.org/namespaces/inkscape" xmlns:rdf="http://www.w3.org/1999/02/22-rdf-syntax-ns#" xmlns="http://www.w3.org/2000/svg" xmlns:cc="http://web.resource.org/cc/" xmlns:dc="http://purl.org/dc/elements/1.1/" xmlns:sodipodi="http://sodipodi.sourceforge.net/DTD/sodipodi-0.dtd" xmlns:svg="http://www.w3.org/2000/svg" xmlns:ns1="http://sozi.baierouge.fr" xmlns:xlink="http://www.w3.org/1999/xlink" id="svg9456" sodipodi:docname="blue sofa.svg" inkscape:export-filename="C:\Documents and Settings\Owner\Desktop\SVG\Paul's Images\blue sofa.png" viewBox="0 0 429.88 178.35" sodipodi:version="0.32" inkscape:export-xdpi="89.419998" version="1.0" inkscape:output_extension="org.inkscape.output.svg.inkscape" inkscape:export-ydpi="89.419998" inkscape:version="0.45.1" sodipodi:docbase="C:\Documents and Settings\Owner\Desktop\SVG\Paul's Images">
  <sodipodi:namedview id="base" bordercolor="#666666" inkscape:pageshadow="2" guidetolerance="10" pagecolor="#ffffff" gridtolerance="10000" inkscape:window-height="573" inkscape:zoom="0.87532978" objecttolerance="10" borderopacity="1.0" inkscape:current-layer="layer1" inkscape:cx="159.58785" inkscape:cy="148.2708" inkscape:window-y="113" inkscape:window-x="50" inkscape:window-width="744" inkscape:pageopacity="0.0" inkscape:document-units="px"/>
  <g id="layer1" inkscape:label="Layer 1" inkscape:groupmode="layer" transform="translate(-125.03 -313.08)">
    <path id="path9515" sodipodi:nodetypes="cccccccc" style="fill-rule:evenodd;stroke:#000066;stroke-width:1px;fill:#008aff" d="m169.33 319.47l7.19-5.89 323.63 0.66 9.15 5.23 1.14 113.72-371.58 2.25 24.59-84.59 5.88-31.38z"/>
    <path id="path9494" sodipodi:nodetypes="cccccccccc" style="fill-rule:evenodd;stroke:#000000;stroke-width:1px;fill:#242321" d="m143.57 454.34l3.93 36.59h5.79l4.34-36.54c-5.18 1.35-9.75 1.63-14.06-0.05zm378.87-1.37l2.95 35.24c1.34 1.19 3.53 0.91 6.22-0.26l3.81-34.83c-4.19 0.8-8.79 1.97-12.98-0.15z"/>
    <path id="path9509" style="fill-rule:evenodd;stroke:#000066;stroke-width:1px;fill:#0090ff" d="m150.37 425.38l-1.31 4.58-1.3 17.65 1.96 9.81 383.77-1.31v-26.15l-6.54-5.23-370.04 0.65h-6.54z"/>
    <path id="path9539" sodipodi:nodetypes="ccccccc" style="fill-rule:evenodd;stroke:#000000;stroke-width:1px;fill:#0077ff" d="m496.51 357.99v19.42l27.73 48.08 10.17 5.55-0.92-55.48-1.85-9.25-35.13-8.32z"/>
    <path id="path9517" sodipodi:nodetypes="cccccccc" style="fill-rule:evenodd;stroke:#000000;stroke-width:1px;fill:#00bfff" d="m497.18 358.54l35.66 12.64 0.07 2.41 20.27-0.51v-4.58l-39.96-13.73-10.86 0.18-5.18 3.59z"/>
    <path id="path9519" sodipodi:nodetypes="cccccccc" style="fill-rule:evenodd;stroke:#000066;stroke-width:1px;fill:#0092ff" d="m166.72 356.08l-41.19 13.08 7.19-1.97h7.84l7.2 5.89-0.25-1.71 32.12-11.53-12.91-3.76z"/>
    <path id="path9521" style="fill-rule:evenodd;stroke:#000066;stroke-width:1px;fill:#0084ff" d="m126.18 369.16v86.95l23.54 1.96-0.66-85.64-6.53-5.89-13.08-0.65-3.27 3.27z"/>
    <path id="path9523" sodipodi:nodetypes="cccccc" style="fill-rule:evenodd;stroke:#000066;stroke-width:1px;fill:#00a0ff" d="m532.4 371.49l2.4 85.93 15.69-0.66 3.92-5.88-1.01-82.58c-7.63-1.21-10.77-3.08-21 3.19z"/>
    <path id="path9525" sodipodi:nodetypes="cccccccc" style="fill-rule:evenodd;stroke:#000066;stroke-width:1px;fill:#00bcff" d="m503.91 382.89l18.46 6.53 7.2 7.2-124.31 1.3-12.49-12.81 11.07-4.67 84.89-0.16 15.18 2.61z"/>
    <path id="path9527" sodipodi:nodetypes="ccccccc" style="fill-rule:evenodd;stroke:#000066;stroke-width:1px;fill:#00a4ff" d="m403.88 398.85l0.65 19.69 11.38 6.73 106.46-1.2 7.85-7.84-0.35-19.76-125.99 2.38z"/>
    <path id="path9529" sodipodi:nodetypes="ccccccc" style="fill-rule:evenodd;stroke:#000066;stroke-width:1px;fill:#00b2ff" d="m285.7 383.54l-11.11 14.38 129.21-0.27-10.49-12.28-8.82-5.54-92.29 0.27-6.5 3.44z"/>
    <path id="path9533" sodipodi:nodetypes="ccccccc" style="fill-rule:evenodd;stroke:#000066;stroke-width:1px;fill:#008cff" d="m149.06 397.27l0.66 24.84 7.84 3.35 106.22-0.15 9.46-4.04-0.85-23.08-123.33-0.92z"/>
    <path id="path9535" sodipodi:nodetypes="ccccccc" style="fill-rule:evenodd;stroke:#000066;stroke-width:1px;fill:#009bff" d="m272.28 398.93l0.85 18.27 8.93 7.01 113.11-0.46 10.25-7.55-1.66-18-131.48 0.73z"/>
    <path id="path9531" sodipodi:nodetypes="cccccccc" style="fill-rule:evenodd;stroke:#000066;stroke-width:1px;fill:#009bff" d="m176.02 383.54l-15.19 3.27-11.77 10.46h123.27l12.64-15.27-8.42-2.38-85.17-0.41-15.36 4.33z"/>
    <path id="path9537" sodipodi:nodetypes="ccccc" style="fill-rule:evenodd;stroke:#000066;stroke-width:1px;fill:#009aff" d="m183.34 380.83l-3.05-21.89-31.64 12.82-0.4 23.93 35.09-14.86z"/>
    <path id="path9545" style="fill-rule:evenodd;fill:#0077ff" d="m200.13 347.61c0 1.58-0.73 2.86-1.64 2.86-0.9 0-1.63-1.28-1.63-2.86 0-1.59 0.73-2.87 1.63-2.87s1.63 1.26 1.64 2.83m35.61 0.85c0 1.59-0.74 2.87-1.64 2.87s-1.64-1.28-1.64-2.87c0-1.58 0.74-2.86 1.64-2.86s1.63 1.26 1.64 2.83m33.56 1.26c0 1.58-0.74 2.87-1.64 2.87s-1.64-1.29-1.64-2.87 0.74-2.86 1.64-2.86 1.63 1.26 1.64 2.82m32.33-0.37c0 1.58-0.73 2.87-1.64 2.87-0.9 0-1.63-1.29-1.63-2.87s0.73-2.86 1.63-2.86 1.63 1.26 1.64 2.82m38.47-0.78c0 1.59-0.73 2.87-1.64 2.87-0.9 0-1.63-1.28-1.63-2.87 0-1.58 0.73-2.86 1.63-2.86s1.63 1.26 1.64 2.83m36.43 0.85c0 1.58-0.74 2.87-1.64 2.87-0.91 0-1.64-1.29-1.64-2.87s0.73-2.86 1.64-2.86c0.89 0 1.62 1.26 1.63 2.82m29.88 0.45c0 1.58-0.73 2.87-1.64 2.87-0.9 0-1.63-1.29-1.63-2.87s0.73-2.86 1.63-2.86 1.63 1.26 1.64 2.82m33.97 0.45c0 1.58-0.73 2.87-1.64 2.87-0.9 0-1.63-1.29-1.63-2.87s0.73-2.86 1.63-2.86 1.63 1.25 1.64 2.82m34.79-1.19c0 1.58-0.74 2.87-1.64 2.87s-1.64-1.29-1.64-2.87 0.74-2.86 1.64-2.86 1.63 1.26 1.64 2.82"/>
  </g>
  <metadata>
    <rdf:RDF>
      <cc:Work>
        <dc:format>image/svg+xml</dc:format>
        <dc:type rdf:resource="http://purl.org/dc/dcmitype/StillImage"/>
        <cc:license rdf:resource="http://creativecommons.org/licenses/publicdomain/"/>
        <dc:publisher>
          <cc:Agent rdf:about="http://openclipart.org/">
            <dc:title>Openclipart</dc:title>
          </cc:Agent>
        </dc:publisher>
        <dc:title>Blue Sofa</dc:title>
        <dc:date>2010-01-28T21:07:56</dc:date>
        <dc:description>Ordinary 3-cushion sofa/couch in a shade of blue. Also available in at least one other color in this collection.</dc:description>
        <dc:source>https://openclipart.org/detail/29102/blue-sofa-by-rfc1394-29102</dc:source>
        <dc:creator>
          <cc:Agent>
            <dc:title>Rfc1394</dc:title>
          </cc:Agent>
        </dc:creator>
        <dc:subject>
          <rdf:Bag>
            <rdf:li>blue</rdf:li>
            <rdf:li>cartoon</rdf:li>
            <rdf:li>colour</rdf:li>
            <rdf:li>couch</rdf:li>
            <rdf:li>furniture</rdf:li>
            <rdf:li>sofa</rdf:li>
            <rdf:li>unchecked</rdf:li>
          </rdf:Bag>
        </dc:subject>
      </cc:Work>
      <cc:License rdf:about="http://creativecommons.org/licenses/publicdomain/">
        <cc:permits rdf:resource="http://creativecommons.org/ns#Reproduction"/>
        <cc:permits rdf:resource="http://creativecommons.org/ns#Distribution"/>
        <cc:permits rdf:resource="http://creativecommons.org/ns#DerivativeWorks"/>
      </cc:License>
    </rdf:RDF>
  </metadata>
</svg>