<?xml version="1.0" encoding="UTF-8" standalone="no"?>
<!-- Created with Inkscape (http://www.inkscape.org/) -->
<svg xmlns:rdf="http://www.w3.org/1999/02/22-rdf-syntax-ns#" xmlns="http://www.w3.org/2000/svg" xmlns:cc="http://web.resource.org/cc/" xmlns:dc="http://purl.org/dc/elements/1.1/" xmlns:svg="http://www.w3.org/2000/svg" xmlns:inkscape="http://www.inkscape.org/namespaces/inkscape" xmlns:sodipodi="http://sodipodi.sourceforge.net/DTD/sodipodi-0.dtd" xmlns:ns1="http://sozi.baierouge.fr" xmlns:xlink="http://www.w3.org/1999/xlink" id="svg2" viewBox="0 0 257.9 362.9" version="1.0" inkscape:version="0.91 r13725">
  <g id="layer1" transform="translate(13.952 9.5893)">
    <path id="path1882" style="fill:black" d="m98.804 304.21c-2.603-1.23-3.757-4.01-6.23-5.32-2.894-2.22-6.281-3.78-8.765-6.51-2.063-1.52-3.653-3.34-5.77-4.82-3.273-2.68-7.043-5.22-8.93-9.15-1.008-2.08-2.798-4.27-2.43-7.03 0.004-1.83-0.363-3.92-2.59-3.81-1.343-2.13-1.217-5.03-1.732-7.23-0.447-2.82-0.607-5.72-1.221-8.49-0.331-2.85-0.877-5.73-1.287-8.63-0.696-2.58-0.883-5.29-1.214-7.87-0.445-2.6-0.254-5.41-0.806-8.05-0.187-2.41-0.543-4.52-0.802-7.09-0.227-2.9-0.415-5.87-0.965-8.68-0.333-2.55-1.012-5.09-1.248-7.7-0.176-2.59-0.402-5.17-0.646-7.52-0.705-2.48-0.5-5.28-1.022-7.84-0.727-2.84-0.426-4.97-1.408-7.68-0.145-2.41-0.992-4.64-0.922-6.93-0.124-1.88-0.829-5.38-1.255-7.84-0.177-2.5-0.44-4.19-0.753-6.58-0.288-2.41-0.538-4.61-0.788-7.09-0.857-0.26 0.682-0.77-0.092-1.8 0.352-1.19-0.829-3.32-0.58-5.04-0.195-3.26-0.891-6.44-1.137-9.69-0.057-2.97-1.351-5.73-1.37-8.7-0.168-2.28-1-4.95-1.183-6.87-0.422-2.1-0.762-4.69-1.047-6.98-0.529-4.16-0.631-8.4-1.408-12.52-0.529-4.057-1.924-7.966-2.161-12.08-0.82-2.858-1.044-5.929-1.809-8.828-0.011-2.735-1.138-5.178-1.361-7.843-0.624-2.95-1.269-5.905-1.965-8.835-0.537-2.924-1.357-5.744-2.171-8.6-1.14-2.494-0.77-6.088 2.64-6.005 4.392-1.156 8.266-3.611 12.53-5.122 5.078-2.366 10.388-4.225 15.543-6.425 2.698-1.267 5.74-1.711 8.398-3.178 2.221-0.965 4.663-1.642 7.011-2.632 2.812-0.916 5.5-1.896 8.284-2.846 3.509-1.409 7.223-2.588 10.518-4.355 2.544-0.592 4.79-1.582 7.27-2.405 3.51-1.638 7.37-2.357 10.76-4.261 3.18-1.756 6.8-2.204 10.13-3.589 2.25-0.603 4.13-1.824 6.56-1.948 2.45 0.923 4.46 2.519 6.89 3.482 3.92 2.265 7.78 4.73 12.17 5.996 1.95 1.171 3.99 2.241 6.06 3.426 2.81 1.465 5.61 2.938 8.27 4.653 4.08 2.089 8.66 3.579 12.64 5.991 1.7 3.774 0.9 8.138 2.02 12.089 0.42 3.533 0.59 7.082 0.82 10.636 1.04 4.858 0.64 9.863 1.36 14.754 0.24 4.946 0.56 9.88 1.35 14.77 0.55 2.704 0.56 5.103 0.74 7.849-0.15 2.569 1.44 6.626-2.2 7.136-1.12 1.71 3.38 1.7 3.72 3.64 2.45 2.8 1.06 6.76 0.64 10.03-0.77 6.69 0.99 13.33 0.8 20.03-0.04 5.34 0.4 10.67 0.34 16 0.12 1.88-0.16 3.78 0.07 6.08-0.1 2.79 0.1 5.55 0.14 8.36 0.18 7.22 0.65 14.42 0.53 21.64-0.08 3.21 0.2 6.38 0.7 9.54 0.45 3.45 0.66 7.12 0.52 10.48 0.63 2.58 1.16 5.34 0.76 8.05 0.04 3.39 0.34 6.83 1.14 10.08 0.21 1.85 0.94 3.8 1.12 5.91 0.54 2.99 0.99 5.98 0.82 9.03-0.36 2.82 0.69 5.96-0.11 8.57-1.83 1.12-3.52 2.25-2.39 4.58 0.23 3.2-0.06 6.43-0.26 9.49-2.83 1.07-5.22 2.99-8.22 3.65-2.74 1.1-5.38 2.27-8.12 3.36-6.06 2.61-11.98 5.51-17.92 8.37-2.55 1.24-5.28 2.09-7.91 3.27-4.47 1.88-8.95 3.69-13.35 5.7-2.17 1.22-4.57 2.12-6.81 3.28-5.28 2.21-10.41 4.76-15.67 7.02-2.6 1.37-5.42 2.3-8.1 3.57-1.74 0.3-3.51 2.31-5.136 1.9zm2.856-5.4c1.64-1.77 3.77-1.68 6.13-2.97 4.08-1.76 7.98-3.96 12.25-5.26 2.45-1.16 5.08-2.05 7.66-3.1 2.8-1 5.73-1.9 8.27-3.41 2.48-1.11 5.26-2.84 7.36-3.61 2.45-1.21 5.62-1.05 7.69-2.83 2.48-1.18 4.7-2.88 7.23-4.01 3.32-1.22 6.61-2.51 9.77-4.11 3.58-1.23 7.01-2.91 10.47-4.44 2.36-1.48 4.81-2.73 7.16-4.19 0.66-1.86-0.04-5.08 0.36-6.7-3.22 1.05-6.3 2.48-9.45 3.71-2.26 0.8-3.65 2.09-5.95 2.86-2.79 0.87-5.27 2.36-8.03 3.43-2.54 0.86-4.95 2.37-7.57 3.33-2.72 0.82-5.15 2.41-7.7 3.5-2.98 1.24-6.1 2.41-8.89 3.98-2.03 1.09-4.71 2.11-6.98 3.33-2.38 1.31-5.16 2.16-7.28 3.76-2.75 1.11-5.35 2.47-7.94 3.88-2.53 1.07-4.75 2.26-6.92 3.1-3.19 1.22-6.4 2.42-9.647 3.46-1.336 0.72 1.007 4.16 1.027 5.96 0.1 0.39 0.61 0.7 0.98 0.33zm3.85-4.87c-1.48-2.47 3.97-2.85 5.61-4 1.53-0.97 7.1-4.26 5.9-0.28-2.76 0.93-5 2.84-7.82 3.7-1.18 0.32-2.46 1.2-3.69 0.58zm21.09-9.07c-1.42-3.45 4.25-3.09 6.26-4.41 2.71-0.69 5.42-3.31 8.02-3.02 2.06 2.17-2.12 2.47-3.58 3.54-1.93 1.26-4.1 2.03-6.26 2.86-1.38 0.35-3.07 1.68-4.44 1.03zm19.88-9.37c-0.53-2.91 4.52-2.34 6.15-4.05 2.41-0.92 4.56-2.68 6.9-3.26 2.96 0.42 0.33 3.34-1.5 3.48-2.76 0.97-5.22 2.68-7.96 3.72-1.07 0.02-2.86 1.36-3.59 0.11zm20.63-9.18c-0.79-3.1 4.67-2.51 6.27-4.4 2.64-1.37 5.48-2.73 8.53-2.64 2.41 2.98-3.54 2.66-5.11 3.96-2.66 0.91-4.8 2.86-7.69 3.35-0.66 0.11-1.53 0.43-2-0.27zm-70.859 26.55c-0.358-2.64-2.846-4.25-4.91-6.02-2.694-1.9-4.945-4.44-7.783-6.24-2.614-1.93-5.078-4.05-7.668-6.02-1.409-1.08-3.893-3.57-4.907-3.43-0.467 3.16 2.649 4.05 4.433 5.95 3.511 2.92 6.677 6.41 10.397 8.96 2.405 2.12 5.326 3.57 7.765 5.67 0.533 0.06 2.772 2.89 2.673 1.13zm1.121-5.95c-0.486-2.19-1.364-4.06-1.25-6.73-0.357-3.23-0.802-6.46-1.151-9.69-0.107-3.27-0.476-6.53-0.699-9.79-0.135-2.6-1.35-5.04-0.946-7.35-0.486-2.48-1.006-5.1-1.369-7.53-0.056-1.92-0.615-3.68-0.583-5.71-0.354-1.75-0.413-4-0.815-4.87-0.303-2.38-0.693-4.69-1.199-6.92-0.325-2.46-0.553-4.84-1.002-7.46-0.285-3.46-1.013-6.86-1.142-10.34-0.419-4.12-0.758-8.24-1.329-12.34-0.442-2.85-0.973-5.72-1.314-8.59-0.156-2.63-0.313-4.1-0.848-6.77-0.408-1.98 0.036-4.09-0.409-6.3-0.281-2.75-1.108-4.66-0.745-7.35-0.286-1.94-0.218-4.94-0.435-7.28-0.863-2.87-0.587-5.93-1.435-8.8-0.31-3-1.009-5.93-1.351-8.95-0.48-2.01-0.473-4.56-1.102-6.81-0.339-2.53-0.184-5.36-1.605-7.49 0.46-2.29-0.506-4.46-0.083-6.55-0.579-4.36-0.35-8.84-1.106-13.13 0.234-2.62-1.145-5.24-0.596-7.49-0.146-2.18 0.107-5.282-0.461-7.776-0.117-2.801-0.979-5.396-1.062-8.144-0.091-2.64-0.443-5.18-0.758-7.804-0.959-3.399-0.767-7.095-1.675-10.445-2.266-1.407-3.409-1.787-5.803-2.533-4.731-1.466-8.957-4.123-13.476-6.102-2.793-1.716-6.029-2.473-8.88-4.035-1.597-0.879-4.006-2.377-5.537-2.052 0.901 4.312 2.524 8.561 2.26 13.034 0.271 2.089 0.2 4.587 0.684 6.879 0.606 2.778 0.691 5.735 1.418 8.42 0.328 3.222 1.268 6.325 1.582 9.552 0.538 3.411 0.953 6.84 1.546 10.236-0.037 2.3 0.911 5.2 1.473 7.69 0.874 3.97 1.924 7.91 1.902 12.02 0.346 5.62 2.071 11.05 2.36 16.67-0.142 2.71 0.946 5 0.935 7.73 0.394 2.5 0.868 4.87 1.175 7.3 0.085 2.83 0.707 5.58 1.262 8.34 0.759 2.83 0.299 6.06 1.737 8.62-0.246 2.42 1.36 5.14 1.305 7.79 0.097 2.84 0.479 5.63 1.357 8.29 0.508 2.66 0.739 5.36 0.728 8.12 0.089 2.97 0.836 5.85 1.322 8.79 0.14 1.9 0.037 3.35 0.035 5.45 0.338 2.53 1.096 4.91 1.631 7.39 0.569 3.61-0.218 7.44 1.298 10.86 0.372 2.26-0.745 4.86 0.394 6.49-0.061 2.13 0.597 4.82 1.256 6.97-0.248 2.55 0.659 5.46 0.764 8.15 0.746 5.03 1.379 10.06 1.867 15.11 1.44 2.24 3.648 4.3 6.025 5.75 2.527 1.45 4.444 3.78 6.984 5.17 1.595 1.51 3.781 3.44 6.006 4.59 2.777 2.08 5.294 4.48 8.046 6.6 0.576 0.28 3.753 3.57 2.814 1.12zm9.258-0.17c1.73-0.74 3.39-1.42 5.06-2.12 2.66-1.12 5.34-2.17 7.89-3.56 8.59-3.88 16.93-8.39 25.56-12.11 3.3-1.43 6.38-3.34 9.81-4.52 2.09-1.07 4.19-1.92 6.31-2.69 2.92-1.07 5.41-2.82 8.35-3.86 4.68-2.38 9.62-4.19 14.47-6.16 3.73-0.74 2.75-4.37 2.58-7.14-0.46-2.76-0.58-5.64-1.2-8.4-0.36-2.57-0.99-5.4-0.51-7.92-0.64-2.42-0.04-5.05-0.48-7.29 0.4-2.07-0.03-4.29-0.4-6.56-0.24-3.64 0.07-7.32-0.4-10.93 0.39-2.5-0.09-4.65-0.38-7.04-0.26-10.88-0.39-21.77-1.13-32.63 0.1-2.68-0.48-5.61-0.04-8.1-0.51-2.47-0.04-5.18-0.7-7.72-0.8-1.76 0.52-1.61-0.25-3.47-0.22-4.54 0.01-9.14-0.52-13.64-0.18-7.07 0.36-14.17-0.36-21.22 0.16-1.85-1.31-1.56-2.49-1.16-2.7 0.42-4.94 2.32-7.59 2.68-2.58 0.88-4.99 2.19-7.56 3.11-2.99 1.51-6.18 2.55-9.28 3.8-1.18 0.43-3.84 2.05-4.71 1.57-1.13 1.54-3.78 1.98-5.6 2.95-1.94 0.84-4.38 1.46-6.08 2.15-2.3 0.96-5.24 1.87-7.6 3.21-2.82 1.24-5.52 2.64-8.45 3.55-2.79 1.18-5.51 2.66-8.49 3.42-2.28 1.97-5.78 1.29-8.17 3.01-2.65 1.31-5.579 1.87-8.176 3.17-2.866 1.02-5.904 1.54-8.842 2.35 0.051 2.77-0.19 5.59 0.368 8.28 0.184 3.84 1.108 7.6 1.339 11.44 0.585 3.19 0.519 6.31 0.83 9.49 0.147 2.45 0.59 4.94 0.387 7.11 0.277 2.03-0.029 3.99 0.211 5.83 0.393 4.78 0.502 9.62 0.906 14.38 1.05 4.76 1.266 9.68 2.217 14.47 1.102 4.87 1.524 9.86 2.083 14.8 0.192 3.5 1.017 6.93 1.124 10.46 0.268 1.97 0.531 4.06 0.665 6.38 0.189 2.67 0.448 5.39 1.271 7.91 0.453 4.28 0.391 8.62 1.269 12.84 0.338 3.03 0.478 6.09 1.118 9.08 0.38 4.05 1.78 7.9 2.53 11.87 1.03-0.33 2.15-0.47 3.06-1.07zm-0.96-49.68c-0.79-2.55 0.77-5.59 0.14-8.35-0.34-4.87-0.07-9.77-0.64-14.61-0.24-3.24-0.62-6.48-0.79-9.73-0.84-1.98-0.93-5-1.14-7.48-0.34-2.63-0.71-5.58-1.59-7.94 0.51-1.72-0.7-4.71-0.19-6.55-0.42-4.42-0.85-8.86-1.503-13.26-0.567-1.26-0.623-3.21-0.69-4.43-0.213-2.78-0.608-5.58-0.724-8.37-0.531-2.84-1.334-5.55-1.818-8.39-0.814-2.18-2.623-6.4 1.557-6.01 2.768 0.1 5.768 1.9 6.688 4.63 2.09 2.06 1.49 5.04 1.92 7.63 0.4 2.6-0.31 5.16 0.29 7.74 0.55 2.61 0.38 5.35 0.97 7.98 0.21 2.83 0.71 5.63 0.88 8.48 0.48 2.79 0.42 5.19 0.63 7.66 0.2 3.88 0.36 7.78 0.7 11.64-0.13 4.39 0.57 8.74 1.31 13.05 0.09 3.19 0.55 6.33 0.65 9.52-0.03 2.61 0.39 5.42 0.59 8.13 0.3 2.84-1.27 5.39-2.39 7.77-1.25 0.88-3.41 1.67-4.85 0.89zm3.23-3.4c1.9-2.57 1.15-5.51 1.14-8.45-0.12-4.41-0.32-8.84-0.94-13.2 0.23-2.77-0.73-5.78-0.91-8.67-0.44-2.22 0.05-4.57-0.27-6.74-0.17-2.88-0.09-5.93-0.61-8.67-0.25-2.08-0.17-4.66-0.43-6.33 0.1-2.62-0.08-4.42-0.7-7.08-0.28-2.77-0.68-5.62-1.03-8.33 0.05-2.66-1.3-5.28-0.68-7.67 0.11-2.78-0.51-5.48-0.48-8.13-0.68-2.03-3.35-6.33-5.162-4.88 0.464 2.62 1.126 5.18 1.552 7.8 0.68 2.41 1.05 5.8 0.78 7.76 0.86 1.77 0.16 4.92 1.02 4.95 0.13 2.82 0.76 5.62 0.85 8.46 1.02 5.58 0.29 11.39 1.73 16.93 0.51 2.56 0.76 5.51 1 7.88-0.16 2.47 1.54 5.16 1.09 7.61 0.68 4 0.82 8.1 1.3 12.11-0.4 2.12-0.13 4.52 0.09 6.83 0.96 1.61-0.43 3.98 0.21 6.46 0.94 0.7-1.05 2.93 0.45 1.36zm-8.11-77.02c-0.68-0.71-0.07 0.77 0 0zm-1.44-4.97c-0.946-0.8-0.537 0.4 0 0zm-1.554-1.81c-0.617-0.42-0.435 0.78 0 0zm3.014 137.34c-0.75-3.28-1.496-6.63-1.661-9.98-0.803-2.38-0.643-4.88-1.18-7.37-0.412-2.87-0.326-5.88-1.07-8.65 0.044 2.47 0.35 5.21 0.491 7.78 0.387 3.46 0.588 6.98 1.145 10.39 0.1 2.64 0.779 5.37 1.865 7.71-0.36 0.47 0.81 0.38 0.41 0.12zm-3.68-26.43c-0.42-1.07-0.573 0.73 0 0zm-0.348-1.51c-0.312-2.08-0.375-5.49-1.144-6.75 0.055 2.51 0.613 5.06 1.092 7.53 0.371 0.18-0.218-0.99 0.052-0.78zm-1.159-8.94c-0.876-2.21 0.045 2.02 0 0zm-0.159-2.63c-0.652-5.25-0.942-10.57-1.704-15.81-0.594-2.66-0.303-5.47-0.907-8.14 0.173-2.12-1.049-4.77-0.949-6.1-0.447-3.78-1.388-7.52-1.528-11.34-0.922-3.66-0.986-7.47-1.49-11.19-0.276-5.19-0.391-10.39-0.789-15.57 0.054-2.37-0.302-5.07-0.351-7.61-0.202-3.6-0.572-7.19-1.073-10.75-0.406-3.59-0.779-7.28-1.398-10.79 0.026-2.38-0.179-4.32-0.318-6.55-0.72-2.7 0.881-6.22-1.712-8.37-1.081-0.88-4.055-4.57-3.153-1 0.353 3.23 1.447 6.31 1.47 9.59 0.579 1.74 0.85 4.42 1.188 6.75 0.444 2.79 0.665 5.62 1.246 8.36 0.796 3.07 0.5 6.27 0.874 9.38 0.026 2.46 0.75 5.24 0.882 7.4-0.41 4.74 1.207 9.35 1.343 14.07 0.588 3.35 0.834 6.76 1.335 10.13 0.855 2.12 0.653 4.31 0.557 6.52 0.793 2.99 0.52 6.21 1.155 9.26 0.569 2.98 0.685 6.05 1.265 9 0.016 1.85 0.551 4.3 1.01 5.71-0.249 2.66 0.943 5.37 1.209 8.07 0.202 3.53 0.399 7.13 1.592 10.48 0.501 0.62 0.314-1.37 0.246-1.5zm-11.098-68.18c-0.681-0.72-0.071 0.76 0 0zm3.616-38.15c3.136-1.31 6.543-1.89 9.63-3.34 3.108-0.86 5.928-2.63 9.008-3.46 2.59-0.25 4.63-1.87 7.11-2.4 3.45-1.66 7.11-2.87 10.62-4.42 1.91-0.64 3.35-1.35 5.42-2.31 1.98-1.69 4.65-1.61 6.93-2.88 2.27-1.11 4.65-1.5 6.78-2.67 2.09-1.37 4.58-1.69 6.68-2.9 2.44-0.81 4.85-1.74 7.16-2.93 2.68-0.72 5.14-2.11 7.74-3.12 2.44-1.69 5.52-1.88 8.01-3.42 1.12-0.77 5.51-0.94 4.56-2.39-2.57 0.07-5.02 1.69-7.53 2.38-2.23 1.32-5.08 1.87-7.56 2.88-4.29 1.47-8.46 3.24-12.65 4.97-3.21 1.19-6.24 2.86-9.53 3.8-3.2 1.47-6.4 3.12-9.71 4.17-2.41 0.55-4.19 2.36-6.49 2.74-2.67 1.2-5.56 2.1-8.19 3.34-2.78 1.21-5.89 1.83-8.5 3.33-2.03 1.2-4.73 1.31-6.94 2.52-3.062 0.81-5.879 2.62-9.071 2.81-1.945 1.41-5.707-0.96-4.574 2.67 0.06 0.67-0.072 1.53 1.097 0.63zm3.043-6.02c5.328-1.46 10.575-3.56 15.705-5.38 3.2-1.57 6.69-2.41 9.92-3.88 2.9-1.52 6.16-1.94 8.99-3.49 2.04-1.2 5.61-2.4 6.74-2.9 2.55-0.57 4.86-2.16 7.37-3.01 2.42-0.78 4.65-1.87 7-2.83 3.27-1.25 6.4-2.83 9.68-4.07 2.97-1.09 5.97-2.18 8.88-3.39 2.41-0.62 4.7-1.82 6.98-2.64 1.91-0.59 3.33-1.9 4.41-3.41 1.79-0.19 2.71-0.914 2.07-2.768-0.66-2.949 0.03-6.079-1-8.967-0.79-2.246 0.65-5.222-0.8-7.564 0.64-2.105-0.29-5.011-0.63-7.304 0.76-1.669-0.64-4.758-0.27-6.609-0.31-3.203-0.32-6.465-0.9-9.647-0.46-3.258 0.3-6.74-0.68-9.861-0.86-0.9 1.14 0.776 0.07-0.944-0.91-1.916-0.14-5.885-1.94-6.515-2.78 1.149-5.78 1.761-8.71 2.31-1.82 1.165-4.82 1.443-6.98 2.524-2.36 0.518-4.74 1.763-7.1 2.39-3.39 0.753-6.49 2.437-9.87 3.287-2.15 0.977-4.21 1.734-6.31 2.304-2.33 0.671-4.56 1.955-6.97 2.79-4.44 1.934-9.03 3.424-13.56 5.096-4.41 0.983-8.58 2.705-12.82 4.218-2.586 0.961-5.113 2.245-7.678 3.219-2.29 0.536-4.798 1.359-6.69 2.593-3.673 0.143-3.611 3.409-3.408 6.265 0.268 2.462 0.086 5.107 0.582 7.713 0.354 4.601 1.15 9.14 1.201 13.771-0.016 2.409 0.395 5.369 0.258 7.459 0.743 3 0.259 6.2 0.965 9.19 0.063 5.36 0.716 10.67 0.842 16.02-0.143 2.61 0.813 5.61 4.052 4.18l0.601-0.15zm5.173-5.78c-2.45-0.28-4.128-3.59-1.371-4.63 1.663-2.03 0.615-4.55 0.768-6.83-0.047-1.91-0.317-4.9-0.832-6.79 0.062-2.18-0.693-5.76-1.214-7.12 0.318-2.84-0.251-5.902-0.715-8.754-0.09-3.121-1.177-6.073-1.759-9.078-0.408-1.395-0.819-2.704-1.599-2.734-1.796-1.484-3.05-4.992-0.822-6.415 2.878-1.055 6.027 0.398 8.553 1.767 2.715 1.596 3.563 5.119 3.973 8.039 1.24 4.58 0.36 9.44 1.53 14.025 0.2 3.15 1.2 6.11 1.24 9.28 0.2 4.75 0.8 9.51 0.43 14.25-0.85 2.58-3.61 4.72-6.005 5.1-0.726-0.01-1.457 0-2.177-0.11zm3.374-3.33c2.968-1.32 2.558-4.2 2.298-6.75-0.4-4.85 0.01-9.83-1.21-14.57-0.47-4.19-1.35-8.329-1.261-12.574-0.182-3.475-0.758-7.034-2.538-10.093-1.67-1.329-4.863-3.164-6.642-2.383 2.621 2.142 3.295 5.277 4.031 8.375 0.488 1.921 0.785 3.829 0.943 6.126 0.887 4.458 0.888 9.059 1.736 13.549 0.631 3.38 0.944 6.79 1.449 10.18 0.325 1.92-0.218 2.69 0.163 4.89 0.561 1.04-1.186 3.1-1.746 3.78 0.933 0.1 1.954-0.07 2.777-0.53zm3.548-4.67c-0.45-0.49-0.5 0.74 0 0zm5.37 13.84c-1.36-0.22 0.42 0.43 0 0zm-24.282-4.45c-0.415-2.87-0.021-5.71-0.415-8.59-0.229-2.82 0.102-5.58-0.771-8.27 0.334-2.13-0.06-3.64-0.255-5.18-0.294-2.88-0.303-5.73-0.429-8.62-0.43-2.795-0.151-5.653-0.81-8.395 0.014-2.415-0.658-5.036-0.509-7.246-0.689-3.113-0.86-6.376-0.881-9.579 0.559-2.246 0.011-3.857-2.618-3.761-1.197-0.386-4.683-2.173-4.679-1.485 1.008 2.906 1.22 6.041 1.861 9.046 0.497 4.812 0.906 9.649 1.865 14.391 0.425 2.523 0.656 4.862 0.576 7.529-0.101 2.81 0.557 5.33 0.755 8.13 0.111 4.25 1.155 8.41 1.033 12.67 0.51 2.61-0.666 6.6 2.069 8.01 0.472 0.48 3.966 4.03 3.208 1.35zm-6.571-3.98c-1.365-0.22 0.412 0.43 0 0zm45.283-1.56c-1.36-0.22 0.41 0.43 0 0zm-45.505-3.77c-1.365-0.22 0.412 0.43 0 0zm61.935-4.22c-1.37-0.22 0.41 0.43 0 0zm-55.469-48.543c3.705-1.748 7.672-2.79 11.49-4.217 3.402-1.75 7.079-2.744 10.649-4.103 2.56-1.009 5.34-1.546 7.83-2.383 3.44-1.127 6.86-2.47 10.21-3.692 2.85-1.001 5.58-2.273 8.43-3.29 2.29-1.038 4.82-1.512 6.97-2.8 3.13-0.851 6.15-2.045 9.22-3.142 6.84-2.546 13.85-4.552 20.83-6.667 1.04-0.433 2.89-0.593 0.76-1.138-2.61-0.646-4.73-2.068-7.16-3.164-1.86-1.216-4.3-1.971-5.92-2.961-3.03-1.635-6.1-3.419-9.16-5.086-2.14-1.964-4.9-2.653-7.5-3.901-2.46-1.224-4.27-2.476-6.65-3.87-1.34-0.726-2.77-1.287-4.17-1.906-3.91 1.88-8.23 2.736-12.12 4.69-4.38 1.587-8.68 3.364-13.02 4.955-5.776 1.747-11.222 4.326-16.837 6.483-3.463 0.687-6.524 2.603-9.886 3.552-2.975 1.035-6.034 1.783-8.841 3.258-2.095 1.065-4.314 1.842-6.633 2.742-6.391 2.038-12.453 4.902-18.586 7.594-1.422 0.872-5.633 1.925-1.839 2.647 2.994 1.587 6.178 2.631 9.194 4.142 2.801 1.828 6.059 2.764 8.928 4.483 3.28 1.782 6.873 2.805 10.292 4.239 2.583 1.539 5.424 2.261 8.138 3.489 1.723 0.735 3.678 1.026 5.381 0.046z"/>
  </g>
  <metadata>
    <rdf:RDF>
      <cc:Work>
        <dc:format>image/svg+xml</dc:format>
        <dc:type rdf:resource="http://purl.org/dc/dcmitype/StillImage"/>
        <cc:license rdf:resource="http://creativecommons.org/licenses/publicdomain/"/>
        <dc:publisher>
          <cc:Agent rdf:about="http://openclipart.org/">
            <dc:title>Openclipart</dc:title>
          </cc:Agent>
        </dc:publisher>
        <dc:title>fridge outline</dc:title>
        <dc:date>2006-10-15T19:33:27</dc:date>
        <dc:description>an image from the US government EPA "Sunwise" program. I converted it from PDF format. the source link is here - http://www.epa.gov/sunwise/doc/poster.pdf</dc:description>
        <dc:source>https://openclipart.org/detail/631/fridge-outline-by-ryanlerch</dc:source>
        <dc:creator>
          <cc:Agent>
            <dc:title>ryanlerch</dc:title>
          </cc:Agent>
        </dc:creator>
        <dc:subject>
          <rdf:Bag>
            <rdf:li>appliance</rdf:li>
            <rdf:li>cartoon</rdf:li>
            <rdf:li>coloring book</rdf:li>
            <rdf:li>contour</rdf:li>
            <rdf:li>electrical appliance</rdf:li>
            <rdf:li>epa</rdf:li>
            <rdf:li>epa sunwise</rdf:li>
            <rdf:li>freezer</rdf:li>
            <rdf:li>fridge</rdf:li>
            <rdf:li>household</rdf:li>
            <rdf:li>kitchen</rdf:li>
            <rdf:li>line art</rdf:li>
            <rdf:li>outline</rdf:li>
          </rdf:Bag>
        </dc:subject>
      </cc:Work>
      <cc:License rdf:about="http://creativecommons.org/licenses/publicdomain/">
        <cc:permits rdf:resource="http://creativecommons.org/ns#Reproduction"/>
        <cc:permits rdf:resource="http://creativecommons.org/ns#Distribution"/>
        <cc:permits rdf:resource="http://creativecommons.org/ns#DerivativeWorks"/>
      </cc:License>
    </rdf:RDF>
  </metadata>
</svg>