<?xml version="1.0" encoding="UTF-8" standalone="no"?>
<!-- Created with Inkscape (http://www.inkscape.org/) -->
<svg xmlns:inkscape="http://www.inkscape.org/namespaces/inkscape" xmlns:rdf="http://www.w3.org/1999/02/22-rdf-syntax-ns#" xmlns="http://www.w3.org/2000/svg" xmlns:sodipodi="http://sodipodi.sourceforge.net/DTD/sodipodi-0.dtd" xmlns:cc="http://creativecommons.org/ns#" xmlns:xlink="http://www.w3.org/1999/xlink" xmlns:dc="http://purl.org/dc/elements/1.1/" xmlns:svg="http://www.w3.org/2000/svg" xmlns:ns1="http://sozi.baierouge.fr" id="svg2" sodipodi:docname="statue.svg" viewBox="0 0 128 128" sodipodi:version="0.32" version="1.0" inkscape:output_extension="org.inkscape.output.svg.inkscape" inkscape:version="0.45+devel">
  <defs id="defs4">
    <linearGradient id="linearGradient2404">
      <stop id="stop2406" style="stop-color:#b49900" offset="0"/>
      <stop id="stop2412" style="stop-color:#ffda0a" offset=".5"/>
      <stop id="stop2408" style="stop-color:#c6a800" offset="1"/>
    </linearGradient>
    <filter id="filter3032" inkscape:collect="always">
      <feGaussianBlur id="feGaussianBlur3034" stdDeviation="1.9321456" inkscape:collect="always"/>
    </filter>
    <linearGradient id="linearGradient2338">
      <stop id="stop2340" style="stop-color:#b1b1b1" offset="0"/>
      <stop id="stop2342" style="stop-color:#e4e4e4" offset="1"/>
    </linearGradient>
    <linearGradient id="linearGradient2380" y2="108.52" xlink:href="#linearGradient2338" gradientUnits="userSpaceOnUse" x2="46.111" y1="110.23" x1="44.643" inkscape:collect="always"/>
    <linearGradient id="linearGradient2384" y2="106.84" xlink:href="#linearGradient2338" gradientUnits="userSpaceOnUse" x2="87.83" y1="117.85" x1="65.609" inkscape:collect="always"/>
    <linearGradient id="linearGradient2388" y2="84.977" xlink:href="#linearGradient2338" gradientUnits="userSpaceOnUse" x2="56.752" y1="101.12" x1="43.848" inkscape:collect="always"/>
    <linearGradient id="linearGradient2392" y2="76.324" xlink:href="#linearGradient2338" gradientUnits="userSpaceOnUse" x2="80.919" y1="110.63" x1="61.022" inkscape:collect="always"/>
    <linearGradient id="linearGradient2396" y2="104.91" xlink:href="#linearGradient2338" gradientUnits="userSpaceOnUse" x2="85.006" y1="117.33" x1="56.079" inkscape:collect="always"/>
    <linearGradient id="linearGradient2400" y2="73.358" xlink:href="#linearGradient2338" gradientUnits="userSpaceOnUse" x2="78.768" y1="70.239" x1="46.967" inkscape:collect="always"/>
    <linearGradient id="linearGradient2410" y2="44.324" xlink:href="#linearGradient2404" gradientUnits="userSpaceOnUse" x2="69.535" y1="47.395" x1="52.843" inkscape:collect="always"/>
    <linearGradient id="linearGradient2999" y2="48.338" xlink:href="#linearGradient2404" gradientUnits="userSpaceOnUse" x2="75.691" y1="62.176" x1="66.382" inkscape:collect="always"/>
    <linearGradient id="linearGradient3001" y2="33.345" xlink:href="#linearGradient2404" gradientUnits="userSpaceOnUse" x2="43.368" y1="37.669" x1="34.271" inkscape:collect="always"/>
    <linearGradient id="linearGradient3003" y2="33.5" xlink:href="#linearGradient2404" gradientUnits="userSpaceOnUse" x2="55.697" y1="21.103" x1="64.346" inkscape:collect="always"/>
    <linearGradient id="linearGradient3007" y2="34.768" xlink:href="#linearGradient2404" gradientUnits="userSpaceOnUse" x2="38.746" y1="-16.908" x1="23.914" inkscape:collect="always"/>
    <linearGradient id="linearGradient3019" y2="31.524" xlink:href="#linearGradient2404" gradientUnits="userSpaceOnUse" x2="101.38" y1="72.801" x1="50.028" inkscape:collect="always"/>
  </defs>
  <sodipodi:namedview id="base" inkscape:zoom="1" borderopacity="1.0" inkscape:current-layer="layer2" inkscape:cx="64" inkscape:cy="92.284271" showgrid="false" width="744.09px" inkscape:guide-bbox="true" showguides="true" bordercolor="#666666" inkscape:window-x="409" guidetolerance="10" objecttolerance="10" inkscape:window-y="24" inkscape:window-width="1248" inkscape:pageopacity="0.0" inkscape:pageshadow="2" pagecolor="#ffffff" gridtolerance="10000" inkscape:document-units="px" inkscape:window-height="975"/>
  <g id="layer2" inkscape:label="colors" inkscape:groupmode="layer">
    <path id="path2964" sodipodi:nodetypes="ccccccccccccccccccccccccccccccccccccccccccccc" style="filter:url(#filter3032);fill-rule:evenodd;fill:#000000;fill-opacity:.70588" d="m10.371 46.277c0.615 1.764 0.711 3.607 1.644 5.323 3.589 4.056 7.434 8.171 10.864 12.191-1.051 0.026-2.537 0.861-2.527 1.813-0.855 1.158 1.296 1.109 2.625 1.314 0.261 0.521-0.239 1.831 0.476 2.734 0.689 0.831 1.695 2.392 2.947 1.245 1.217-0.625 2.489-1.144 4.266-0.696 2.461 0.277 5.06 0.414 7.433 0.944 2.153 1.258 4.611 2.355 5.819 4.105 1.207 0.92 1.599 1.892 1.113 2.92 1.327 0.737 0.829 1.995 1.071 3.003-0.15 0.979 0.792 2.258 0.384 3.059-4.083 1.111-9.85 4.18-13.991 5.219 1.094 5.783 2.188 5.685 3.282 11.469-1.984 0.71-1.001 0.75-3.036 1.41 4.54 6.62 16.437 15.34 23.899 19.28 6.708-4.11 28.874-9.8 32.972-15.42-0.793-2.34-7.042 2.38-9.344 0.36-1.514-5.4-3.048-10.801-4.574-16.199-3.304-1.681-6.619-3.351-9.928-5.028-0.372-2.605 1.854-4.823 1.191-7.467-0.221-3.448-1.678-6.969-3.762-10.315-1.832 1.112-3.822 2.427-6.444 2.906 0.208-1.012 0.688-2.023-0.392-3.037-0.465-1.364-2.674-1.906-4.497-2.094-2.976-0.565 1.518-1.289-0.123-1.984-2.787-1.153 0.002-1.023-0.394-1.916-0.939-0.962-1.593-1.912-0.907-2.887 0.593-1.621-0.033-3.467-1.523-5.033-1.281-1.815 0.07 0.628-0.417 1.242-0.308 1.005-0.511 2.038-1.208 2.934-1.45-0.751-2.819-0.992-4.14-0.33-1.169 0.812-2.337 1.442-3.497-0.039-1.776-1.328-3.051-2.884-4.615-4.309 1.087 2.142 0.511 4.513 2.88 6.421 0.572 0.915 3.367 1.379 2.764 2.375-0.321 1.05 0.553 1.852 1.014 2.796 1.176 1.4-0.106 1.662-1.988 1.648-2.049-0.127-2.547 1.582-4.368 1.658-1.972-0.725-3.735-1.644-5.351-2.7 0.339-0.818 1.552-2.226-0.265-2.697-1.253-0.295-3.038 1.008-3.499-0.288-2.907-4.117-6.088-8.185-8.194-12.448-2.554-1.16-5.107-2.321-7.66-3.482z"/>
    <path id="path2398" style="fill-rule:evenodd;fill:url(#linearGradient2400)" d="m42.503 70.208l15.227 14.127 25.135-10.152-14.677-12.903-13.393 3.975-12.292 4.953z"/>
    <path id="path2394" style="fill-rule:evenodd;fill:url(#linearGradient2396)" d="m35.653 99.441l21.405 19.329 33.757-13.15-9.846-9.91-38.16 0.306-7.156 3.425z"/>
    <path id="path2386" style="fill-rule:evenodd;fill:url(#linearGradient2388)" d="m42.136 70.025l-0.428 30.575 15.961 13.52 0.061-29.846-15.594-14.249z"/>
    <path id="path2378" sodipodi:nodetypes="cccccc" style="fill-rule:evenodd;fill:url(#linearGradient2380)" d="m35.103 99.563l-0.306 2.267 22.138 19.99 0.49-0.24-0.367-2.88-21.955-19.137z"/>
    <path id="path2949" style="fill-rule:evenodd;fill:#ffffff;fill-opacity:.12549" d="m70.062 63.125l-7 2.187-7.624 13.126-0.688 2.437 2.938 3.719 25.25-10.469-12.876-11zm13.75 35.813l0.344 5.532-26.468 9.69-0.688 4.93 34.062-13.5-7.25-6.652z"/>
    <path id="path3017" sodipodi:nodetypes="cccccccccccccccc" style="fill-rule:evenodd;fill:url(#linearGradient3019)" d="m55.331 78.326l-3.27-2.298-2.033-2.74 0.088-2.21 2.563-2.829 2.829-0.972 8.839-0.53 2.563 0.353 5.834 1.061 2.298 0.972 1.414 3.271-2.033 3.27-4.419 2.21-5.569 0.972-3.447-0.088-5.657-0.442z"/>
    <path id="path2954" sodipodi:nodetypes="ccccccccccccccccccccccccccccccccccccccccccccccccccccccccccccccccccccccccccccccccccccccc" style="fill-rule:evenodd;fill:url(#linearGradient2410)" d="m28.195 7.5243l0.173 7.6107 8.302 18.941-2.421 1.21-0.952 2.682 3.027 0.864-0.692 1.557 0.173 2.854 1.298 2.422 3.719-2.162 5.102 0.778 3.979 0.778 3.805 3.806 2.249 4.757-0.606 2.421 0.692 0.692-0.173 2.422-0.259 2.508 0.086 5.535c0.165 2.402-1.779 3.991-3.228 5.471l2.796 5.513 1.384 2.421 1.556 0.519 1.817-0.692 0.951-1.556-1.563-7.34 3.16-0.956 5.938 4.441c1.424-0.358 2.707 0.55 4.341-1.705l-0.688-2.44c-2.807-2.93-5.688-2.831-8.819-2.444l1.004-1.664 0.778-1.644 1.99-1.297 3.891 1.557 3.287 2.94 0.346-3.632 2.421-6.4 0.433-3.978v-3.979-2.162l-0.951-6.573-0.519-1.816-1.817 1.557-2.94 1.902-2.422 1.125 0.865-3.027-0.865-3.114-1.297-1.211-2.335-0.605-0.865-0.433-0.087-0.605 1.817-1.384-1.903-2.248 1.73-0.519-1.211-3.027 1.211-3.633 0.086-3.373-1.384-3.978v2.421l-1.297 3.633-0.865 1.557-2.075-1.298-1.99 0.779-2.248 1.643-1.903-2.595-2.941-5.621 0.173 2.075v2.076l0.173 3.46 1.298 2.681 2.335 2.162-0.519 1.124-0.087 2.422 0.433 0.259 0.346 3.46-3.806 0.519-2.94 2.335h-0.606l-2.508-1.73-2.248-2.422 1.297-3.459-0.951-0.606-3.027 0.692-4.152-13.146-1.47-6.832-6.832-5.2757z"/>
    <path id="path2370" sodipodi:nodetypes="ccccsscccccccc" style="fill-rule:evenodd;fill:#000000;fill-opacity:.15686" d="m42.378 70.141l13.801-5.069c-1.096 0.598-0.24 1.092-0.774 2.239-0.034 2.747-2.018 4.358-2.643 5.617 0.872 1.999 0.923 2.944 2.359 5.131 0.503 0.766-0.849 2.341-0.457 3.196 0.59 1.284 2.867 1.978 3.109 3.156l-0.087 29.839-0.778 4.76 0.173 2.76-22.054-19.8 0.087-2.251 6.486-3.287 0.778-26.291z"/>
    <path id="path2997" style="fill-rule:evenodd;fill:url(#linearGradient3003)" d="m51.562 18.5v6l2.063 4.125 1.687 1.875-0.562 3 2.875-1.438 3.813-0.312 4.374-0.688-1.062-2.937-1.688-2.437-2.187-1.5h-2.125l-1.688 1.25-0.874 1-1.563-1.938-1.563-3.188-1.5-2.812z"/>
    <path id="path2995" style="fill-rule:evenodd;fill:url(#linearGradient3001)" d="m42.688 32.094l-1.594 0.5-0.563 0.125 0.25 1.219-0.656 1.156-0.937 0.562-1.282-0.25-0.781-0.312-0.625-1.219-2.062 1.344-0.938 1.906-0.094 1.156 3.782 0.813 2.374-0.063 1.782-0.687 1.656-1.344 1.406-2.875-0.062-1.469-1.656-0.562z"/>
    <path id="path2956" style="fill-rule:evenodd;fill:url(#linearGradient2999)" d="m75.719 40l-2.531 2.125-3.157 1.781-5.156 1.219-2.125 0.313 1.031 10.343-0.5 6.531 3.688 1.532 5.062 2.281 2.407 2.313-0.126-2.5 2.438-7.094 0.844-5.344v-3.594l-0.719-6.656-1.156-3.25z"/>
    <path id="path2382" style="fill-rule:evenodd;fill:url(#linearGradient2384)" d="m57.18 118.77v2.93l34.064-13.82 0.061-2.32-34.125 13.21z"/>
    <path id="path2390" style="fill-rule:evenodd;fill:url(#linearGradient2392)" d="m57.486 114.12l0.367-29.601 25.44-10.397 0.734 30.458-26.541 9.54z"/>
    <path id="path3005" style="fill-rule:evenodd;fill:url(#linearGradient3007)" d="m28.107 7.4383l0.442 7.8667 8.751 19.799 1.414 0.707 0.707-0.265 1.326-1.503s-5.215-20.683-5.745-21.301c-0.531-0.619-6.806-5.2153-6.895-5.3037z"/>
  </g>
  <g id="layer1" inkscape:label="outline" inkscape:groupmode="layer">
    <path id="path2309" sodipodi:nodetypes="ccccccccccccccccccccccccccccscscccccccccccccccccccccccccscccccccsccccccccccsccccccccccccccccccccccccccccccccccccccccccccccccsccccccccccccccccccccccccccccccccccccccccccccccccccccccccccccccccccccccccccccccccccccccccccccccccccccccccccccccccccccccccccccccccccccccccccccccccccccccccccccccccccccccccccccccccccccccccccccccccccccccccccccccccccccccccc" style="fill-rule:evenodd;fill:#000000" d="m28.062 6.8125l0.094 8.5625 8.156 18.406c-3.113 1.57-3.322 3.083-3.343 4.657 1.11 0.355 2.091 0.544 3 0.687-1.33 1.958-0.472 4.273 0.937 6.687 1.685 0.048 3.407-1.725 4-2.218l8.5 1.718c2.762 1.731 5.442 4.364 6.094 8.626 0.323 0.557-0.445 2.014-0.5 2.656l0.688 0.187 0.031 2.031c-0.431 1.958-0.291 4-0.344 6.032l-13.406 5.344-0.657 26.25c-2.111 1.153-4.415 2.199-6.562 3.124l-0.094 2.318 22.094 20.21 34.75-13.97 0.125-2.56-7.344-6.685-0.875-24.625-8.812-7.781c0.346-2.864 1.555-5.45 2.562-8.094 1.131-6.453 0.494-12.729-1.062-18.937-2.015 1.916-4.328 3.711-6.813 4.593 1.319-3.461 0.798-6.741-3.687-7.687-0.043-0.28-1.13-0.422-1.156-0.719-0.098-0.44 2.106-1.247 2-1.687-0.174-0.717-1.639-1.192-1.813-1.907 0.159-0.617 1.623-0.523 1.563-1.031-0.138-1.165-0.646-2.082-1.188-2.906 1.713-3.872 1.813-8.029-0.594-11.438 0.432 2.752-0.382 5.105-1.937 7.813-1.945-1.725-4.222-0.992-6.281 1.469-2.184-2.505-3.331-6.553-5.469-9.126 1.818 4.33-1.393 9.707 4.093 13.25l-0.5 3.594 0.407 0.532c0.093 1.011 0.216 2.014 0.375 3-2.438 0.878-4.257-0.173-6.75 2.968-1.599-0.298-3.259-2.514-4.438-4.156 0.772-1.563 0.796-3.159 0.844-3.5 0.306-0.369-2.644-1.03-4.219 0.094l-5.343-19.969-7.126-5.8125zm1.063 1.8125l5.406 4.469 5.875 20.75c-0.568 1.657-1.146 2.058-2.906 1.218l-8.625-19.718-0.094-6.6252 9.781 24.656-9.437-24.75zm35.687 9.656c1.307 2.965 1.345 5.566-0.374 8.938-0.146-0.23-0.3-0.465-0.407-0.688-0.316-0.585-0.623-1.091-0.969-1.5 0.513-1.591 1.851-3.69 1.75-6.75zm-13.062 1.375c2.552 3.201 2.678 8.548 7.656 8.594-0.052 0.867 0.392 1.8-2.062 2.156-4.39 0.173-6.256-7.541-5.594-10.75zm7.688 4.563c0.154-0.018 0.313-0.012 0.468 0 1.326 0.096 2.652 1.235 3.532 2.562 0.971 1.577 1.773 2.315 1.968 4.157l-8.031 0.968-2.563 1.469c-0.024-0.9 0.467-2.042 0.657-2.906 0.397 0.218 0.804 0.455 1.281 0.656 2.407-0.222 3.842-1.037 3.562-2.969-1.576-0.122-2.76-0.84-3.75-1.844 0.77-1.16 1.796-1.971 2.876-2.093zm4.312 7.406c-0.146 0.572 1.418 1.717 1.562 2.563 0.081 0.472-1.31 0.841-1.312 0.968 0.163 0.873 0.592 1.827 0.781 2.438l-3.781 1-5.5-2.875c-0.074-0.423-0.141-0.858-0.188-1.281 0.502-1.115 1.302-1.984 2.938-2.126l5.5-0.687zm-21.094 0.844c1.113-0.084 1.941 0.28 1.25 1.093-1.26 7.528-8.301 4.895-9.937 4.407-0.537-1.789 1.471-2.795 2.531-3.719l0.5 1.094c3.535 1.378 3.264-0.458 3.906-1.406l-0.218-0.876c0.613-0.342 1.331-0.545 1.968-0.593zm12.938 3.75c2.446 0.865 4.39 4.212 9.468 1.656 0.389 1.475 0.136 3.196-2.968 4.125-1.706 1.108-4.289-0.58-5.844-3.125-0.236-0.872-0.478-1.751-0.656-2.656zm-12.032 0.375c1.935 3.307 5.638 4.616 8.969 5.812 0.154 1.16 1.549 2.834-1.719 2.625l-9.343-1.937c1.407-1.513 0.926-2.168 0.969-3.063-0.436 2.383-2.999 4.026-5.063 5.219-2.101-1.361-1.713-4.639-0.906-6l-0.094-0.062c4.033 0.522 6.119-0.9 7.187-2.594zm22 0.125c2.41 0.091 4.969 1.596 3.032 7.281-2 0.652-4.109 0.809-6.219 1.219 0.185 3.131 0.63 6.324 0.875 9.5-2.07 1.384-5.357 2.317-7.688 1.562l0.844-2.5c-1.755-2.851-2.737-6.141-5.781-8.187l0.969 0.156c3.846-0.832 1.589-2.146 1.625-3.875-1.426-0.412-2.91-0.792-4.313-1.344 2.59-2.575 3.948-2.136 6.282-2.75 0.06 0.38 0.133 0.775 0.187 1.157 2.314 2.974 4.861 4.944 8.281 2.843 2.351-1.227 2.171-3.369 1.906-5.062zm10.219 3.531c1.961 5.736 2.157 12.076 0.938 17.812-1.054 2.947-3.092 6.371-2.625 9.969-2.432-3.588-7.396-3.934-10.5-5.687 1.023-4.942-0.09-11.742-0.625-16.782 1.701-0.454 3.938-0.587 5.937-1.187 2.391-0.718 4.969-2.307 6.875-4.125zm-3.75 4.875l-3.312 1.063 0.562 4.406h0.313l-0.5-4.188 3.031-1.062-0.094-0.219zm-11.812 0.219c-1.464 1.851-1.026 3.711-4.625 5.562l0.468-0.062c3.582-0.768 2.863-3.524 4.313-5.406l-0.156-0.094zm13.593 3.312l-0.374 0.032 0.281 2.406 3.25-0.656-0.188-0.282-2.75 0.625-0.219-2.125zm-5.062 2.625l-4.062 0.719 0.187 2.219 0.313-0.063-0.282-2.062 3.813-0.594 0.031-0.219zm8 0.813l-3.062 0.875 0.343 3.25 0.438-0.094-0.375-2.937 2.687-0.813-0.031-0.281zm-13.438 3.25c0.165 2.401 0.198 4.81-0.093 7.125 0.85 0.43 2.201 0.942 3.062 1.281-2.323 0.834-2.146 3.22-3.031 4.875 5.127-0.338 9.106 0.61 9.062 4.219 0.077 1.949-2.547 1.672-3.562 1.875l-6.219-4.407-0.375 0.094c1.052-3.806 0.339-7.429-0.968-11l-0.094 0.188c1.173 3.828 1.447 7.507 0.437 11.094l-2.406 0.468 1.156 7.063c0.847 0.991-1.992 3.699-3.781 1.75l-3.625-7.313c5.208-4.482 2.211-8.955 3.313-13.437v-0.063-0.031l0.093-2.313c2.069 0.764 5.058-0.788 7.031-1.468zm7.469 0.687l-2.75 0.469 0.094 0.219 2.25-0.438 0.531 4.907 0.438 0.031-0.563-5.188zm-3.531 8.125c2.479 0.96 4.946 2.016 7.25 4.375-0.018-0.435-0.026-0.861 0-1.281l7.906 6.844-24.344 9.718-15.218-13.593 12.468-4.907c-0.021 0.398-0.046 1.172-0.093 1.563-3.217 1.295-5.372 2.367-5.688 6 0.447 2.231 2.682 3.827 5.281 5.375l0.063-0.094 1.125 2.563c1.275 0.964 3.593 1.475 5.375-1.375 3.555-0.27 6.94-0.362 9.5-1.406 4.414-1.761 7.614-4.699 4.187-8.907-1.807-1.328-5.821-1.697-10.531-2.343 0.319-1.148 1.285-2.342 2.719-2.532zm-2.25 2.719c4.739 0.652 8.242 1.446 9.719 2.531 3.545 3.262-1.104 6.888-4.031 8.125-2.316 0.945-6.442 0.75-9.75 0.969l-1.032-6.906 2.344-0.875 6.188 4.75c3.177-0.429 5.003-1.379 5-3.031-3.619-5.285-7.332-4.447-10-4.032 0.179-0.441 1.434-1.044 1.562-1.531zm-9.875 0.594c-0.311 1.853-1.012 3.593-2.781 5.093l2.187 4.876c-2.289-1.484-4.152-3.543-4.406-4.813 0.205-2.737 3.014-4.235 5-5.156zm-12.625 3l14.781 14.406-0.031 26.965-2.125-3.28-0.469-4.22-2.25-2.87 3.032-6.658-3.094 5.568-0.875-3.068-0.125 0.063 0.531 3.845-0.094 0.19 2.5 3.03 0.031 3.65-2.624-1.47-3.907-5.71-0.156 0.03 3.437 5.65 0.032 0.03 0.031 0.07 3.531 2.06 1.75 3.91-14-12.16 2.313-1.719 2.219-1.156-0.157-0.063-2.062 0.719-0.063-3.281 0.125-0.125v-0.031l1.375-1.719-1.468 1.281-0.969-4.781-0.125-0.031 0.687 5.156-0.093 0.094 0.062 3.625-2.094 1.125 0.344-29.125zm3.656 22.656l0.156-0.156v-0.063l-0.156 0.219zm36.844-18.594l0.656 28.879-4.812-2.07 0.875-3.871 2.406-2.063-2.719-2.781-0.187-0.125 2.219 2.969-2.063 1.469-3.281-0.969 0.25-1.625-2.094-2.313 1.688 2.531-0.407 1.063-3.875-2.594 0.063 0.219 3.969 3.031 3.5 1-0.719 3.499-2.157 0.84v0.13l2.094-0.16 4.875 2.94-24.719 9.03 1.032-2.22 8.031-2.37 0.063-0.13-3.407 0.82 0.75-2.63-0.062-0.19-1.031 2.85-4.438 1.15-0.531-2.81 3.031-2.41 2.031-1.93 2.157 1.03 0.062-0.1c0.969 0.54 2.25 1.44 2.25 1.44l0.125-0.22s-1.263-1.22-2.125-1.68l0.969-1.82 2.75 0.91 0.093-0.03-3-1.31-1.437 2.18-1.5-0.81 0.187-3.28 2.407-1-2.719 0.688-0.188 3.342-2.406 1.78-2.062-4.998 1.687-3.656-1.437-3.031 1 3.094-1.656 3.656 2.281 5.535-3.125 2.56 0.875 3.28-1.313 1.87 0.125-28.308 24.969-10.281zm-41.688 22.594l-0.093 3.565 16.343 14 26.907-9.88-0.063-5.31 5.813 6.09-33.188 12.88-21-18.751 5.281-2.594zm-5.937 2.656l21.437 19.309 0.25 2.22-21.75-19.34 0.063-2.189zm55.563 6.189l-0.126 1.72-33.406 13.37-0.094-1.9 33.626-13.19z"/>
  </g>
  <metadata>
    <rdf:RDF>
      <cc:Work>
        <dc:format>image/svg+xml</dc:format>
        <dc:type rdf:resource="http://purl.org/dc/dcmitype/StillImage"/>
        <cc:license rdf:resource="http://creativecommons.org/licenses/publicdomain/"/>
        <dc:publisher>
          <cc:Agent rdf:about="http://openclipart.org/">
            <dc:title>Openclipart</dc:title>
          </cc:Agent>
        </dc:publisher>
        <dc:title>RPG map symbols: Statue</dc:title>
        <dc:date>2008-01-23T11:12:33</dc:date>
        <dc:description>Part of the fantasy RPG map elements collection (houses and various buildings): a statue</dc:description>
        <dc:source>https://openclipart.org/detail/11512/rpg-map-symbols:-statue-by-nicubunu</dc:source>
        <dc:creator>
          <cc:Agent>
            <dc:title>nicubunu</dc:title>
          </cc:Agent>
        </dc:creator>
        <dc:subject>
          <rdf:Bag>
            <rdf:li>building</rdf:li>
            <rdf:li>cartography</rdf:li>
            <rdf:li>fantasy</rdf:li>
            <rdf:li>geography</rdf:li>
            <rdf:li>map</rdf:li>
          </rdf:Bag>
        </dc:subject>
      </cc:Work>
      <cc:License rdf:about="http://creativecommons.org/licenses/publicdomain/">
        <cc:permits rdf:resource="http://creativecommons.org/ns#Reproduction"/>
        <cc:permits rdf:resource="http://creativecommons.org/ns#Distribution"/>
        <cc:permits rdf:resource="http://creativecommons.org/ns#DerivativeWorks"/>
      </cc:License>
    </rdf:RDF>
  </metadata>
</svg>