<?xml version="1.0" encoding="UTF-8"?>
<!-- Generator: Adobe Illustrator 16.0.0, SVG Export Plug-In . SVG Version: 6.00 Build 0)  -->
<!DOCTYPE svg PUBLIC "-//W3C//DTD SVG 1.1//EN" "http://www.w3.org/Graphics/SVG/1.1/DTD/svg11.dtd">
<svg version="1.1" id="stove" xmlns="http://www.w3.org/2000/svg" xmlns:xlink="http://www.w3.org/1999/xlink" x="0px" y="0px" width="577px" height="771px" viewBox="0 0 577 771" enable-background="new 0 0 577 771" xml:space="preserve">
<filter id="AI_GaussianBlur_7">
	<feGaussianBlur stdDeviation="7"/>
</filter>
<g id="stove_parts">
	<polygon fill="#FFFFFF" stroke="#000000" stroke-width="2.252" stroke-linejoin="round" points="108.875,766.875 570.125,698.625    570.125,253.875 400.625,156.375 400.625,94.625 405.875,94.125 413.375,93.875 413.375,31.125 411.375,26.375 346.625,7.125    8.125,7.125 37.625,27.875 37.625,172.625 110.375,286.375  "/>
	<polygon fill="#757575" stroke="#000000" stroke-width="2.252" stroke-linejoin="round" points="108.875,766.125 7.375,525.375    7.375,7.125 38.625,28.125 38.625,174.625 108.875,287.125  "/>
	<polygon fill="#FFFFFF" stroke="#000000" stroke-width="2.252" stroke-linejoin="round" points="109.625,620.375 109.625,315.375    569.125,282.625 569.125,561.875  "/>
	<polygon stroke="#000000" stroke-width="2.252" stroke-linejoin="round" points="122.125,602.625 122.125,327.125 557.125,292.625    557.125,554.375  "/>
	
		<line fill="none" stroke="#000000" stroke-width="2.252" stroke-linejoin="round" x1="38.625" y1="174.125" x2="403.125" y2="156.875"/>
	
		<line fill="none" stroke="#000000" stroke-width="2.252" stroke-linejoin="round" x1="111.125" y1="285.125" x2="566.375" y2="254.625"/>
	<polygon fill="#FFFFFF" stroke="#000000" stroke-width="2.252" stroke-linejoin="round" points="146.875,339.375 146.875,365.375    180.375,362.375 185.375,355.625 520.875,328.125 526.375,334.375 547.625,331.875 547.625,318.125 534.125,309.125  "/>
	<polyline fill="none" stroke="#000000" stroke-width="2.252" stroke-linejoin="round" points="547.625,318.375 154.625,348.125    154.625,364.375  "/>
	
		<line fill="none" stroke="#000000" stroke-width="2.252" stroke-linejoin="round" x1="147.125" y1="339.875" x2="155.125" y2="348.875"/>
	<polygon fill="#FFFFFF" stroke="#000000" stroke-width="2.252" stroke-linejoin="round" points="109.625,736.375 109.625,634.875    570.625,578.625 570.625,668.625 110.375,736.375  "/>
	<polygon fill="#FFFFFF" stroke="#000000" stroke-width="2.252" stroke-linejoin="round" points="38.625,28.125 411.375,26.375    414.375,30.625 414.375,96.375 48.375,107.875 38.625,100.125  "/>
	<polygon stroke="#000000" stroke-width="2.252" stroke-linejoin="round" points="54.125,98.375 54.125,42.375 407.125,38.125    406.875,88.625  "/>
	<polyline fill="none" stroke="#000000" stroke-width="2.252" stroke-linejoin="round" points="48.375,107.375 48.375,34.875    39.125,28.375  "/>
	
		<line fill="none" stroke="#000000" stroke-width="2.252" stroke-linejoin="round" x1="48.375" y1="34.625" x2="415.125" y2="31.125"/>
	<polygon fill="#A89187" stroke="#000000" stroke-width="2.252" stroke-linejoin="round" points="38.875,100.125 38.875,28.375    48.125,34.875 48.125,107.375 39.125,100.125  "/>
	<polygon fill="#A89187" stroke="#000000" stroke-width="2.252" stroke-linejoin="round" points="147.125,645.625 147.125,656.625    152.375,660.375 152.375,671.125 157.375,676.125 552.375,623.625 552.375,602.625 532.875,596.875  "/>
	<polyline fill="none" stroke="#000000" stroke-width="2.252" stroke-linejoin="round" points="157.875,676.625 157.875,653.125    551.125,602.625  "/>
	
		<line fill="none" stroke="#FFFFFF" stroke-width="2.252" stroke-linejoin="round" x1="157.375" y1="652.875" x2="147.875" y2="646.125"/>
	
		<line fill="none" stroke="#000000" stroke-width="2.252" stroke-linejoin="round" x1="110.375" y1="317.125" x2="7.625" y2="156.375"/>
	<polygon fill="#FFFFFF" stroke="#000000" stroke-width="2.252" stroke-linejoin="round" points="162.625,217.375 166.375,217.375    169.875,217.375 176.875,217.125 183.375,216.625 189.875,215.625 196.125,214.875 201.875,213.625 207.375,212.625    212.375,210.875 216.875,209.375 220.875,207.875 224.625,205.875 227.625,203.875 229.875,202.125 231.625,199.875    232.875,197.875 233.125,195.625 232.875,193.125 231.625,191.125 229.875,188.875 227.625,186.875 224.625,185.125    220.875,183.125 216.875,181.625 212.375,179.875 207.375,178.375 201.875,177.375 196.125,176.125 189.875,175.375    183.375,174.375 176.875,174.125 169.875,173.625 162.625,173.375 158.875,173.625 155.625,173.625 148.375,174.125    141.875,174.375 135.375,175.375 129.125,176.125 123.375,177.375 117.875,178.375 113.125,179.875 108.375,181.625    104.125,183.125 100.875,185.125 97.875,186.875 95.375,188.875 93.625,191.125 92.625,193.125 92.375,195.625 92.375,196.875    93.625,199.875 95.375,202.125 97.875,203.875 100.875,205.875 104.125,207.875 108.375,209.375 113.125,210.875 117.875,212.625    123.375,213.625 129.125,214.875 135.375,215.625 141.875,216.625 148.375,217.125 155.625,217.375  "/>
	<polygon stroke="#000000" stroke-width="2.252" stroke-linejoin="round" points="163.375,210.875 166.625,210.875 169.875,210.875    175.875,210.875 181.875,210.125 187.625,209.875 193.125,208.875 198.125,208.125 202.875,207.125 207.125,205.875    211.375,204.625 214.875,203.375 217.875,201.875 220.625,200.375 222.625,198.625 224.125,197.125 225.125,195.375    225.625,193.625 225.125,191.875 224.125,190.125 222.625,188.375 220.625,186.625 217.875,185.375 214.875,183.875    211.375,182.375 207.125,181.125 202.875,180.125 198.125,179.125 193.125,178.375 187.625,177.375 181.875,176.875    175.875,176.375 169.875,176.125 163.375,176.125 160.375,176.125 157.125,176.125 151.125,176.375 145.125,176.875    139.125,177.375 134.125,178.375 128.875,179.125 123.875,180.125 119.625,181.125 115.625,182.375 112.125,183.875    108.875,185.375 106.375,186.625 104.125,188.375 102.625,190.125 101.875,191.875 101.375,193.625 101.875,195.375    102.625,197.125 104.125,198.625 106.375,200.375 108.875,201.875 112.125,203.375 115.625,204.625 119.625,205.875    123.875,207.125 128.875,208.125 134.125,208.875 139.125,209.875 145.125,210.125 151.125,210.875 157.125,210.875  "/>
	<polygon fill="#FFFFFF" stroke="#000000" stroke-width="2.252" stroke-linejoin="round" points="340.125,203.875 343.125,203.875    346.375,203.875 352.375,203.375 358.125,202.875 363.875,202.125 369.125,201.375 374.125,200.625 378.875,199.375    383.375,198.125 387.375,196.875 390.875,195.125 393.875,193.625 396.625,191.875 398.625,190.125 400.125,188.375    400.875,186.625 401.375,184.625 400.875,182.625 400.125,180.625 398.625,178.875 396.625,177.125 393.875,175.375    390.875,173.875 387.375,172.625 383.375,171.125 378.875,169.875 374.125,168.625 369.125,167.625 363.875,167.125    358.125,166.375 352.375,165.625 346.375,165.375 340.125,165.375 337.125,165.375 333.875,165.375 327.875,165.625    322.125,166.375 316.375,167.125 310.875,167.625 306.125,168.625 301.375,169.875 296.875,171.125 293.125,172.625    289.375,173.875 286.375,175.375 283.875,177.125 281.875,178.875 280.125,180.625 279.125,182.625 279.125,184.625    279.125,186.625 280.125,188.375 281.875,190.125 283.875,191.875 286.375,193.625 289.375,195.125 293.125,196.875    296.875,198.125 301.375,199.375 306.125,200.625 310.875,201.375 316.375,202.125 322.125,202.875 327.875,203.375    333.875,203.875  "/>
	<polygon stroke="#000000" stroke-width="2.252" stroke-linejoin="round" points="340.625,198.125 343.375,198.125 346.125,198.125    351.375,197.875 356.625,197.375 361.625,196.875 366.375,196.125 370.625,195.625 374.875,194.625 378.875,193.625    382.375,192.375 385.375,191.375 387.875,190.125 390.375,188.875 392.375,187.375 394.375,184.375 394.625,182.875    393.625,179.875 390.375,176.875 387.875,175.625 385.375,174.375 382.375,173.125 378.875,172.125 374.875,171.125    370.625,170.375 366.375,169.625 361.625,168.875 356.625,168.375 351.375,167.875 346.125,167.625 340.625,167.625    337.625,167.625 335.125,167.625 329.875,167.875 324.375,168.375 319.625,168.875 315.125,169.625 310.875,170.375    306.375,171.125 302.625,172.125 299.125,173.125 293.125,175.625 291.125,176.875 289.375,178.375 286.875,181.375    286.875,182.875 287.875,185.875 291.125,188.875 293.125,190.125 295.875,191.375 302.625,193.625 306.375,194.625    310.875,195.625 315.125,196.125 319.625,196.875 324.375,197.375 329.875,197.875 335.125,198.125  "/>
	<polygon fill="#A89187" stroke="#000000" stroke-width="2.252" stroke-linejoin="round" points="340.625,194.375 342.875,194.375    345.375,194.375 349.875,194.125 354.625,193.625 358.875,193.625 363.125,193.125 367.125,192.375 370.625,191.875    374.125,191.125 377.375,190.125 379.875,189.125 382.375,188.375 384.375,187.375 387.375,185.125 388.375,182.875    387.375,180.375 384.375,178.375 382.375,177.375 379.875,176.125 377.375,175.375 374.125,174.375 370.625,173.625    367.125,173.125 363.125,172.625 358.875,171.875 354.625,171.625 349.875,171.375 345.375,171.125 340.625,170.875    338.375,171.125 335.625,171.125 330.875,171.375 326.375,171.625 322.125,171.875 318.125,172.625 314.125,173.125    310.375,173.625 306.875,174.375 304.125,175.375 301.125,176.125 298.875,177.375 295.125,179.375 293.125,181.625    293.125,182.875 293.875,185.125 296.625,187.375 301.125,189.125 304.125,190.125 306.875,191.125 310.375,191.875    314.125,192.375 318.125,193.125 322.125,193.625 326.375,193.625 330.875,194.125 335.625,194.375  "/>
	<polygon stroke="#000000" stroke-width="2.252" stroke-linejoin="round" points="340.875,189.875 342.875,189.875 344.875,189.875    348.875,189.625 352.875,189.375 356.625,189.125 360.125,188.875 363.625,188.375 366.875,187.875 369.625,187.375    372.125,186.875 374.625,186.375 376.625,185.625 378.375,185.125 380.875,183.625 381.625,181.875 379.875,179.625    376.625,178.375 374.625,177.625 372.125,176.875 369.625,176.375 366.875,175.875 363.625,175.375 360.125,175.125    356.625,174.625 352.875,174.375 348.875,174.375 344.875,174.125 340.875,174.125 338.875,174.125 336.375,174.125    332.625,174.375 328.875,174.375 324.875,174.625 321.375,175.125 318.125,175.375 315.125,175.875 312.125,176.375    309.375,176.875 307.125,177.625 305.125,178.375 303.375,178.875 300.875,180.375 300.125,181.875 300.875,183.625    303.375,185.125 305.125,185.625 307.125,186.375 309.375,186.875 312.125,187.375 315.125,187.875 318.125,188.375    321.375,188.875 324.875,189.125 328.875,189.375 332.625,189.625 336.375,189.875  "/>
	<polygon fill="#A89187" stroke="#000000" stroke-width="2.252" stroke-linejoin="round" points="340.625,186.875 342.375,186.875    343.875,186.875 347.375,186.875 350.625,186.875 353.625,186.625 356.625,186.625 359.375,186.375 362.125,185.875    364.375,185.625 366.625,185.375 368.625,185.125 370.375,184.625 372.875,183.875 374.125,182.375 371.625,180.375    368.625,179.625 366.625,179.375 364.375,178.875 362.125,178.375 359.375,178.375 356.625,177.875 353.625,177.875    350.625,177.875 347.375,177.375 343.875,177.375 340.625,177.375 338.875,177.375 337.125,177.375 333.875,177.375    330.625,177.875 327.625,177.875 324.375,177.875 321.875,178.375 319.375,178.375 317.125,178.875 314.875,179.375    312.875,179.625 311.125,179.875 308.625,180.875 307.125,182.375 309.875,184.125 312.875,185.125 314.875,185.375    317.125,185.625 319.375,185.875 321.875,186.375 324.375,186.625 327.625,186.625 330.625,186.875 333.875,186.875    337.125,186.875  "/>
	<polygon stroke="#000000" stroke-width="2.252" stroke-linejoin="round" points="340.625,183.625 341.625,183.625 345.125,183.625    347.125,183.625 349.375,183.375 351.375,183.125 353.375,183.125 355.125,183.125 356.625,183.125 359.375,182.875    361.625,182.375 363.375,181.875 361.625,180.875 359.375,180.375 356.625,180.125 355.125,180.125 353.375,179.875    351.375,179.875 349.375,179.875 347.125,179.625 345.125,179.625 342.625,179.625 340.625,179.625 339.375,179.625    335.875,179.625 333.625,179.625 331.625,179.875 329.625,179.875 327.875,179.875 325.875,180.125 324.375,180.125    321.625,180.375 319.625,180.875 317.875,181.375 319.625,182.375 321.625,182.875 324.375,183.125 325.875,183.125    327.875,183.125 329.625,183.125 331.625,183.375 333.625,183.625 335.875,183.625 338.375,183.625  "/>
	<polygon fill="#FFFFFF" stroke="#000000" stroke-width="2.252" stroke-linejoin="round" points="206.875,268.125 210.625,268.125    213.875,267.875 220.875,267.625 227.875,267.125 234.125,266.375 240.375,265.375 246.125,264.375 251.625,263.125    256.625,261.625 261.125,260.125 265.125,258.375 268.875,256.625 271.875,254.625 274.125,252.875 275.875,250.625    277.125,248.375 277.375,246.125 277.125,243.875 275.875,241.875 274.125,239.625 271.875,237.625 268.875,235.625    265.125,233.875 261.125,232.125 256.625,230.625 251.625,229.375 246.125,227.875 240.375,226.625 234.125,225.875    227.875,225.125 220.875,224.625 213.875,224.125 206.875,224.125 203.375,224.125 199.875,224.125 192.625,224.625    185.875,225.125 179.625,225.875 173.375,226.625 167.625,227.875 162.125,229.375 157.125,230.625 152.625,232.125    148.375,233.875 145.125,235.625 142.125,237.625 139.625,239.625 137.875,241.875 136.625,243.875 136.375,246.125    136.375,247.375 137.875,250.625 139.625,252.875 142.125,254.625 145.125,256.625 148.375,258.375 152.625,260.125    157.125,261.625 162.125,263.125 167.625,264.375 173.375,265.375 179.625,266.375 185.875,267.125 192.625,267.625    199.875,267.875  "/>
	<polygon stroke="#000000" stroke-width="2.252" stroke-linejoin="round" points="207.625,261.625 210.625,261.625 213.875,261.625    220.125,261.375 225.875,261.125 231.625,260.375 237.125,259.625 242.375,258.625 247.125,257.625 251.625,256.625    255.375,255.375 259.125,254.125 262.125,252.625 264.875,250.875 266.875,249.375 268.375,247.625 269.375,246.125    269.875,244.125 269.375,242.375 268.375,240.625 266.875,238.875 264.875,237.375 262.125,236.125 259.125,234.375    255.375,233.125 251.625,231.875 247.125,230.625 242.375,229.625 237.125,228.875 231.625,228.375 225.875,227.625    220.125,227.125 213.875,226.625 207.625,226.625 204.625,226.625 201.375,226.625 195.375,227.125 189.375,227.625    183.625,228.375 178.375,228.875 173.125,229.625 168.375,230.625 163.625,231.875 159.875,233.125 156.125,234.375    153.125,236.125 150.375,237.375 148.375,238.875 146.875,240.625 145.875,242.375 145.625,244.125 145.875,246.125    146.875,247.625 148.375,249.375 150.375,250.875 153.125,252.625 156.125,254.125 159.875,255.375 163.625,256.625    168.375,257.625 173.125,258.625 178.375,259.625 183.625,260.375 189.375,261.125 195.375,261.375 201.375,261.625  "/>
	<polygon fill="#A89187" stroke="#000000" stroke-width="2.252" stroke-linejoin="round" points="207.625,257.375 210.125,257.375    213.125,257.375 218.375,257.125 223.625,256.875 228.625,256.125 233.375,256.125 237.875,255.125 242.125,254.375    246.125,253.625 249.625,252.625 252.625,251.625 255.375,250.375 257.875,249.125 259.625,248.125 261.875,245.375    262.125,244.125 261.125,241.375 257.875,238.875 255.375,237.625 252.625,236.375 249.625,235.625 246.125,234.625    242.125,233.625 237.875,233.125 233.375,232.375 228.625,231.875 223.625,231.375 218.375,230.875 213.125,230.625    207.625,230.625 204.625,230.625 201.875,230.625 196.375,230.875 191.375,231.375 186.375,231.875 181.375,232.375    176.875,233.125 172.625,233.625 168.625,234.625 165.375,235.625 162.125,236.375 159.125,237.625 157.125,238.875    155.125,240.125 152.875,242.625 152.875,244.125 153.875,246.625 157.125,249.125 159.125,250.375 162.125,251.625    165.375,252.625 168.625,253.625 172.625,254.375 176.875,255.125 181.375,256.125 186.375,256.125 191.375,256.875    196.375,257.125 201.875,257.375  "/>
	<polygon stroke="#000000" stroke-width="2.252" stroke-linejoin="round" points="208.125,252.125 210.625,252.125 212.625,252.125    217.375,252.125 221.625,251.875 225.875,251.625 230.125,250.875 234.125,250.625 237.875,250.375 240.875,249.375    244.125,248.875 246.625,248.125 249.125,247.375 251.125,246.625 252.625,245.625 254.625,244.125 254.875,242.625    252.625,240.625 251.125,239.625 249.125,238.875 246.625,238.125 244.125,237.375 240.875,236.875 237.875,236.125    234.125,235.625 230.125,235.125 225.875,234.875 221.625,234.375 217.375,234.375 212.625,234.125 208.125,234.125    205.375,234.125 203.375,234.125 198.625,234.375 194.125,234.375 189.875,234.875 185.875,235.125 181.875,235.625    178.375,236.125 174.875,236.875 171.875,237.375 169.125,238.125 166.875,238.875 164.875,239.625 163.125,240.625    161.375,242.375 161.125,243.625 163.125,245.625 164.875,246.625 166.875,247.375 169.125,248.125 171.875,248.875    174.875,249.375 178.375,250.375 181.875,250.625 185.875,250.875 189.875,251.625 194.125,251.875 198.625,252.125    203.375,252.125  "/>
	<polygon fill="#A89187" stroke="#000000" stroke-width="2.252" stroke-linejoin="round" points="207.875,249.125 209.625,249.125    211.625,249.125 215.375,248.875 219.125,248.875 222.625,248.375 226.125,248.375 229.375,248.125 232.375,247.625    235.125,247.375 237.625,247.125 239.875,246.625 241.875,246.125 243.375,245.625 245.875,244.625 246.625,243.375    244.875,241.875 241.875,240.625 239.875,240.375 237.625,239.875 235.125,239.625 232.375,239.375 229.375,238.875    226.125,238.625 222.625,238.375 219.125,238.375 215.375,238.125 211.625,238.125 207.875,237.875 205.875,238.125    203.875,238.125 200.125,238.125 196.375,238.375 192.875,238.375 189.375,238.625 186.375,238.875 183.125,239.375    180.625,239.625 177.875,239.875 175.625,240.375 173.625,240.625 172.125,241.375 169.875,242.375 169.125,243.875    171.125,245.125 173.625,246.125 175.625,246.625 177.875,247.125 180.625,247.375 183.125,247.625 186.375,248.125    189.375,248.375 192.875,248.375 196.375,248.875 200.125,248.875 203.875,249.125  "/>
	<polygon stroke="#000000" stroke-width="2.252" stroke-linejoin="round" points="207.625,245.125 208.875,245.125 212.625,245.125    215.375,244.875 217.625,244.875 220.125,244.875 222.125,244.875 224.125,244.625 225.875,244.625 227.875,244.375    230.625,243.875 232.875,243.375 233.875,242.875 231.625,241.875 229.375,241.625 225.875,241.125 224.125,241.125    222.125,240.625 220.125,240.625 217.625,240.625 215.375,240.625 212.625,240.625 210.125,240.625 207.625,240.625    206.375,240.625 202.125,240.625 199.875,240.625 197.125,240.625 195.125,240.625 192.875,240.625 190.875,241.125    188.875,241.125 187.375,241.375 184.375,241.875 182.375,242.125 181.125,242.875 183.125,243.875 185.875,244.125    188.875,244.625 190.875,244.625 192.875,244.875 195.125,244.875 197.125,244.875 199.875,244.875 202.125,245.125    204.875,245.125  "/>
	<polygon fill="#FFFFFF" stroke="#000000" stroke-width="2.252" stroke-linejoin="round" points="407.375,253.625 411.125,253.625    414.375,253.625 421.375,253.125 428.125,252.875 434.375,251.875 440.625,250.875 446.625,249.875 452.125,248.375    457.125,247.125 461.625,245.625 465.625,243.875 469.125,242.125 472.125,240.125 474.625,238.375 476.375,236.125    477.375,234.125 477.875,231.875 477.375,229.375 476.375,227.375 474.625,225.125 472.125,223.125 469.125,221.375    465.625,219.375 461.625,217.875 457.125,216.125 452.125,214.625 446.625,213.625 440.625,212.375 434.375,211.625    428.125,210.875 421.375,210.125 414.375,209.875 407.375,209.625 403.625,209.875 400.125,209.875 393.125,210.125    386.625,210.875 379.875,211.625 374.125,212.375 367.875,213.625 362.625,214.625 357.375,216.125 353.125,217.875    348.875,219.375 345.375,221.375 342.625,223.125 339.875,225.125 338.375,227.375 337.125,229.375 337.125,231.875    337.125,232.875 338.375,236.125 339.875,238.375 342.625,240.125 345.375,242.125 348.875,243.875 353.125,245.625    357.375,247.125 362.625,248.375 367.875,249.875 374.125,250.875 379.875,251.875 386.625,252.875 393.125,253.125    400.125,253.625  "/>
	<polygon fill="#BC0000" points="408.125,247.375 411.125,247.375 414.375,247.375 420.625,247.125 426.375,246.625    432.125,246.125 437.625,245.125 442.625,244.375 447.625,243.375 452.125,242.125 455.875,240.625 459.375,239.625    462.625,238.125 465.375,236.375 467.375,235.125 468.875,233.125 469.875,231.625 470.375,229.625 469.875,227.875    468.875,226.375 467.375,224.625 465.375,222.875 462.625,221.625 459.375,220.125 455.875,218.625 452.125,217.375    447.625,216.375 442.625,215.375 437.625,214.625 432.125,213.625 426.375,212.875 420.625,212.625 414.375,212.375    408.125,212.125 404.875,212.375 401.875,212.375 395.875,212.625 389.875,212.875 384.125,213.625 378.875,214.625    373.625,215.375 368.625,216.375 364.125,217.375 360.375,218.625 356.625,220.125 353.625,221.625 350.875,222.875    348.875,224.625 347.375,226.375 346.375,227.875 346.125,229.625 346.375,231.625 347.375,233.125 348.875,235.125    350.875,236.375 353.625,238.125 356.625,239.625 360.375,240.625 364.125,242.125 368.625,243.375 373.625,244.375    378.875,245.125 384.125,246.125 389.875,246.625 395.875,247.125 401.875,247.375  "/>
	<polygon fill="#A89187" stroke="#000000" stroke-width="2.252" stroke-linejoin="round" points="407.875,243.125 410.625,243.125    413.375,243.125 418.875,242.875 423.875,242.375 429.125,241.875 433.875,241.375 438.375,240.625 442.625,239.875    446.375,239.375 450.125,238.125 453.125,237.125 455.875,236.125 458.125,235.125 460.125,233.625 462.375,231.125    462.625,229.625 461.625,227.125 458.125,224.375 455.875,223.125 453.125,222.125 450.125,221.375 446.375,220.125    442.625,219.125 438.375,218.625 433.875,217.875 429.125,217.375 423.875,216.875 418.875,216.625 413.375,216.375    407.875,216.125 405.125,216.375 402.375,216.375 396.875,216.625 391.625,216.875 386.625,217.375 381.875,217.875    377.375,218.625 373.125,219.125 369.125,220.125 365.875,221.375 362.625,222.125 359.875,223.125 357.375,224.375    355.625,225.625 353.375,228.375 353.125,229.625 354.125,232.375 357.375,235.125 359.875,236.125 362.625,237.125    365.875,238.125 369.125,239.375 373.125,239.875 377.375,240.625 381.875,241.375 386.625,241.875 391.625,242.375    396.875,242.875 402.375,243.125  "/>
	<polygon fill="#BC0000" points="408.375,237.625 410.875,237.625 413.125,237.625 417.625,237.625 422.125,237.375    426.375,236.875 430.625,236.875 434.375,236.125 438.125,235.625 441.375,235.125 444.375,234.375 447.125,233.625    449.625,233.125 451.625,232.125 453.125,231.375 455.125,229.625 455.375,228.375 453.125,226.125 451.625,225.125    449.625,224.375 447.125,223.625 444.375,222.875 441.375,222.375 438.125,221.625 434.375,221.375 430.625,220.625    426.375,220.375 422.125,220.125 417.625,219.875 413.125,219.625 408.375,219.625 405.875,219.625 403.625,219.625    399.125,219.875 394.625,220.125 390.125,220.375 386.125,220.625 382.375,221.375 378.875,221.625 375.375,222.375    372.375,222.875 369.625,223.625 367.375,224.375 365.375,225.125 363.625,226.125 361.625,227.875 361.625,229.375    363.625,231.375 365.375,232.125 367.375,233.125 369.625,233.625 372.375,234.375 375.375,235.125 378.875,235.625    382.375,236.125 386.125,236.875 390.125,236.875 394.625,237.375 399.125,237.625 403.625,237.625  "/>
	<polygon fill="#A89187" stroke="#000000" stroke-width="2.252" stroke-linejoin="round" points="408.125,234.625 410.375,234.625    412.375,234.625 415.875,234.375 419.625,234.375 423.125,234.125 426.625,234.125 429.875,233.625 432.875,233.125    435.625,233.125 438.125,232.625 440.375,232.125 442.125,231.875 443.875,231.375 446.125,230.375 446.875,229.125    445.125,227.375 442.125,226.625 440.375,225.875 438.125,225.625 435.625,225.125 432.875,224.875 429.875,224.625    426.625,224.125 423.125,223.875 419.625,223.625 415.875,223.625 412.375,223.625 408.125,223.625 406.375,223.625    404.375,223.625 400.625,223.625 396.875,223.625 393.375,223.875 389.875,224.125 386.625,224.625 383.625,224.875    380.875,225.125 378.375,225.625 376.125,225.875 374.125,226.625 372.625,226.875 370.375,227.875 369.625,229.375    371.375,230.625 374.125,231.875 376.125,232.125 378.375,232.625 380.875,233.125 383.625,233.125 386.625,233.625    389.875,234.125 393.375,234.125 396.875,234.375 400.625,234.375 404.375,234.625  "/>
	<polygon fill="#BC0000" points="407.875,230.625 409.125,230.625 413.125,230.625 415.875,230.625 418.125,230.625    420.375,230.375 422.625,230.375 424.625,230.125 426.375,229.875 428.125,229.875 431.125,229.375 433.125,229.125    434.375,228.375 432.125,227.625 429.875,227.125 426.375,226.625 424.625,226.625 422.625,226.625 420.375,226.375    418.125,226.375 415.875,226.375 413.125,226.125 410.625,226.125 407.875,226.125 406.375,226.125 402.625,226.125    400.125,226.375 397.875,226.375 395.625,226.375 393.375,226.625 391.125,226.625 389.375,226.625 387.625,227.125    384.875,227.375 382.625,227.625 381.625,228.375 383.625,229.375 386.125,229.625 389.375,229.875 391.125,230.125    393.375,230.375 395.625,230.375 397.875,230.625 400.125,230.625 402.625,230.625 405.125,230.625  "/>
	<polygon fill="#FFFFFF" stroke="#FFFFFF" stroke-width="2.252" stroke-linejoin="round" points="114.625,86.625 210.125,84.375    209.875,45.875 114.625,47.875  "/>
	<polygon stroke="#000000" stroke-width="2.252" stroke-linejoin="round" points="120.625,81.875 205.125,79.125 203.875,50.125    120.625,50.625  "/>
	<polygon fill="#FFFFFF" stroke="#000000" stroke-width="2.252" stroke-linejoin="round" points="101.125,68.375 101.125,67.125    100.875,65.625 100.625,64.375 100.375,63.125 99.875,62.125 99.375,60.625 98.875,59.625 97.875,58.625 97.125,57.625    96.375,56.875 95.625,56.125 94.625,55.375 93.375,54.875 92.375,54.375 91.375,53.875 90.125,53.875 88.875,53.375 87.875,53.125    86.625,53.375 85.625,53.875 84.375,53.875 83.375,54.375 82.375,54.875 81.125,55.375 80.125,56.125 79.125,56.875 78.375,57.625    77.625,58.625 76.875,59.625 76.375,60.625 75.625,62.125 75.375,63.125 74.875,64.375 74.875,65.625 74.625,67.125 74.375,68.375    74.625,69.375 74.875,70.875 74.875,72.125 75.375,73.375 75.625,74.375 76.375,75.625 76.875,76.875 77.625,77.625 78.375,78.625    79.125,79.625 80.125,80.375 81.125,81.125 82.375,81.625 83.375,82.125 84.375,82.375 85.625,82.875 86.625,83.125 87.875,83.125    88.875,83.125 90.125,82.875 91.375,82.375 92.375,82.125 93.375,81.625 94.625,81.125 95.625,80.375 96.375,79.625 97.125,78.625    97.875,77.625 98.875,76.875 99.375,75.625 99.875,74.375 100.375,73.375 100.625,72.125 100.875,70.875 101.125,69.375  "/>
	<polygon fill="#FFFFFF" stroke="#000000" stroke-width="2.252" stroke-linejoin="round" points="285.625,64.625 285.375,63.375    285.375,62.125 285.125,60.625 284.625,59.625 284.375,58.625 283.875,57.375 283.125,56.125 282.375,55.125 281.625,54.125    280.875,53.125 279.875,52.375 278.875,51.875 277.625,51.375 276.875,50.625 275.625,50.375 274.625,50.125 273.375,50.125    272.375,49.875 271.125,50.125 269.875,50.125 268.875,50.375 267.625,50.625 266.625,51.375 265.625,51.875 264.625,52.375    263.625,53.125 262.875,54.125 262.125,55.125 261.375,56.125 260.875,57.375 260.125,58.625 259.625,59.625 259.375,60.625    259.125,62.125 258.875,63.375 258.875,64.625 258.875,65.875 259.125,67.375 259.375,68.375 259.625,69.625 260.125,70.875    260.875,72.125 261.375,73.375 262.125,74.125 262.875,75.125 263.625,76.125 264.625,76.875 265.625,77.375 266.625,77.875    267.625,78.375 268.875,78.875 269.875,79.375 271.125,79.375 272.375,79.375 273.375,79.375 274.625,79.375 275.625,78.875    276.875,78.375 277.625,77.875 278.875,77.375 279.875,76.875 280.875,76.125 281.625,75.125 282.375,74.125 283.125,73.375    283.875,72.125 284.375,70.875 284.625,69.625 285.125,68.375 285.375,67.375 285.375,65.875  "/>
	<polygon fill="#FFFFFF" stroke="#000000" stroke-width="2.252" stroke-linejoin="round" points="323.125,64.375 323.125,62.875    322.875,61.625 322.625,60.375 322.125,59.125 321.875,57.875 321.125,56.875 320.625,55.625 319.875,54.625 319.125,53.875    318.125,52.875 317.125,52.125 316.375,51.375 315.375,50.625 314.375,50.125 313.125,50.125 311.875,49.625 310.875,49.375    309.875,49.375 308.625,49.375 307.375,49.625 306.375,50.125 305.125,50.125 304.125,50.625 303.125,51.375 302.125,52.125    301.125,52.875 300.375,53.875 299.625,54.625 298.875,55.625 298.375,56.875 297.625,57.875 297.375,59.125 296.875,60.375    296.625,61.625 296.625,62.875 296.375,64.375 296.625,65.375 296.625,66.875 296.875,68.125 297.375,69.125 297.625,70.375    298.375,71.625 298.875,72.875 299.625,73.625 300.375,74.625 301.125,75.375 302.125,76.375 303.125,76.875 304.125,77.625    305.125,78.125 306.375,78.375 307.375,78.625 308.625,78.875 309.875,79.125 310.875,78.875 311.875,78.625 313.125,78.375    314.375,78.125 315.375,77.625 316.375,76.875 317.125,76.375 318.125,75.375 319.125,74.625 319.875,73.625 320.625,72.875    321.125,71.625 321.875,70.375 322.125,69.125 322.625,68.125 322.875,66.875 323.125,65.375  "/>
	<polygon fill="#FFFFFF" stroke="#000000" stroke-width="2.252" stroke-linejoin="round" points="358.875,63.375 358.625,62.125    358.625,60.625 358.375,59.625 358.125,58.125 357.625,56.875 357.125,55.875 356.625,54.625 355.625,53.875 354.875,52.875    354.125,51.875 353.125,51.125 352.125,50.625 351.125,49.875 349.875,49.375 348.875,48.875 347.875,48.625 346.625,48.625    345.625,48.375 344.375,48.625 343.125,48.625 342.125,48.875 340.875,49.375 339.875,49.875 338.875,50.625 337.875,51.125    336.875,51.875 336.125,52.875 335.125,53.875 334.625,54.625 333.875,55.875 333.375,56.875 333.125,58.125 332.625,59.625    332.375,60.625 332.125,62.125 332.125,63.375 332.125,64.375 332.375,65.875 332.625,67.125 333.125,68.375 333.375,69.625    333.875,70.625 334.625,71.875 335.125,72.875 336.125,73.625 336.875,74.625 337.875,75.375 338.875,76.125 339.875,76.625    340.875,77.125 342.125,77.625 343.125,77.875 344.375,78.125 345.625,78.125 346.625,78.125 347.875,77.875 348.875,77.625    349.875,77.125 351.125,76.625 352.125,76.125 353.125,75.375 354.125,74.625 354.875,73.625 355.625,72.875 356.625,71.875    357.125,70.625 357.625,69.625 358.125,68.375 358.375,67.125 358.625,65.875 358.625,64.375  "/>
	<polygon fill="#FFFFFF" stroke="#000000" stroke-width="2.252" stroke-linejoin="round" points="391.875,63.375 391.625,62.125    391.125,60.625 391.125,59.625 390.875,58.125 390.375,56.875 389.875,55.875 389.125,54.625 388.375,53.875 387.625,52.875    386.625,51.875 385.875,51.125 384.875,50.625 384.125,49.875 382.875,49.375 381.625,48.875 380.625,48.625 379.375,48.625    378.375,48.375 377.125,48.625 375.875,48.625 374.875,48.875 373.875,49.375 372.625,49.875 371.625,50.625 370.625,51.125    369.625,51.875 368.875,52.875 367.875,53.875 367.375,54.625 366.875,55.875 366.125,56.875 365.875,58.125 365.375,59.625    365.375,60.625 365.125,62.125 364.875,63.375 365.125,64.625 365.375,65.875 365.375,67.125 365.875,68.375 366.125,69.625    366.875,70.625 367.375,71.875 367.875,72.875 368.875,73.625 369.625,74.625 370.625,75.375 371.625,76.125 372.625,76.625    373.875,77.375 374.875,77.625 375.875,77.875 377.125,78.125 378.375,78.125 379.375,78.125 380.625,77.875 381.625,77.625    382.875,77.375 384.125,76.625 384.875,76.125 385.875,75.375 386.625,74.625 387.625,73.625 388.375,72.875 389.125,71.875    389.875,70.625 390.375,69.625 390.875,68.375 391.125,67.125 391.125,65.875 391.625,64.625  "/>
	<polygon fill="#A89187" stroke="#000000" stroke-width="2.252" stroke-linejoin="round" points="86.875,55.125 92.625,56.375    89.375,80.875 83.375,79.625  "/>
	<polygon fill="#A89187" stroke="#000000" stroke-width="2.252" stroke-linejoin="round" points="271.125,51.875 277.125,52.875    274.125,77.375 267.875,76.375  "/>
	<polygon fill="#A89187" stroke="#000000" stroke-width="2.252" stroke-linejoin="round" points="308.875,51.375 314.625,52.375    311.625,76.875 305.125,75.625  "/>
	<polygon fill="#A89187" stroke="#000000" stroke-width="2.252" stroke-linejoin="round" points="344.625,50.375 350.375,51.375    347.125,76.125 341.125,74.625  "/>
	<polygon fill="#A89187" stroke="#000000" stroke-width="2.252" stroke-linejoin="round" points="377.125,50.375 383.125,51.375    379.875,76.125 373.875,74.625  "/>
	<polygon fill="#FFFFFF" stroke="#FFFFFF" stroke-width="2.252" stroke-linejoin="round" points="142.625,54.375 144.625,54.875    146.625,55.625 148.375,56.625 150.125,58.125 151.375,60.125 152.375,62.125 153.125,64.375 153.125,66.625 153.125,69.125    152.375,71.625 151.375,73.375 150.125,75.125 148.375,76.875 146.625,77.875 144.625,78.375 142.625,78.625 140.375,78.375    138.375,77.875 136.625,76.875 135.125,75.125 133.625,73.375 132.875,71.625 132.375,69.125 131.875,66.625 132.375,64.375    132.875,62.125 133.625,60.125 135.125,58.125 136.625,56.625 138.375,55.625 140.375,54.875  "/>
	<polygon fill="#FFFFFF" stroke="#FFFFFF" stroke-width="2.252" stroke-linejoin="round" points="168.125,57.625 170.125,58.125    172.125,59.125 173.625,60.625 174.875,62.875 175.375,65.375 175.375,66.625 175.125,68.625 174.125,70.875 172.875,72.875    171.125,74.125 168.625,74.625 167.625,74.625 165.625,74.375 163.625,73.375 162.125,71.875 160.875,69.625 160.375,67.125    160.375,65.875 160.625,63.875 161.625,61.625 162.875,59.625 165.125,58.625 167.125,57.875  "/>
	<polygon fill="#FFFFFF" stroke="#FFFFFF" stroke-width="2.252" stroke-linejoin="round" points="186.875,57.625 189.125,57.875    190.875,58.875 192.625,60.625 193.625,62.625 194.125,64.875 194.125,66.375 193.875,68.375 192.875,70.375 191.625,72.125    189.625,73.375 187.625,74.125 186.625,74.125 184.875,73.625 182.875,72.625 181.125,70.875 180.125,69.125 179.625,66.625    179.625,65.375 179.875,63.375 180.875,61.375 182.125,59.625 184.125,58.125 186.125,57.625  "/>
	<polygon stroke="#000000" stroke-width="2.252" stroke-linejoin="round" points="143.125,58.125 145.375,58.875 147.125,59.625    148.625,61.625 149.875,63.375 150.375,65.875 150.375,67.125 150.125,69.125 149.125,71.125 147.625,72.875 145.875,74.125    144.125,74.625 142.875,74.625 141.125,74.375 139.125,73.375 137.375,71.875 136.375,69.625 135.875,67.375 135.875,66.375    136.125,64.125 137.125,62.125 138.375,60.125 140.375,59.125 142.375,58.625  "/>
	<polygon stroke="#000000" stroke-width="2.252" stroke-linejoin="round" points="168.375,60.625 170.625,61.375 172.125,62.375    173.375,64.375 173.625,66.375 173.625,67.875 172.875,70.125 171.375,71.625 169.625,72.625 168.375,72.625 166.375,72.125    164.875,70.875 163.625,69.125 163.125,67.375 163.375,65.625 163.625,63.875 165.125,62.125 166.875,60.875  "/>
	<polygon stroke="#000000" stroke-width="2.252" stroke-linejoin="round" points="187.375,59.875 189.375,60.375 191.125,61.625    192.125,63.625 192.625,65.375 192.375,67.125 191.625,69.125 190.125,70.875 188.375,71.875 187.125,71.875 185.125,71.625    183.625,70.125 182.375,68.375 182.125,66.625 182.125,64.875 182.625,63.125 183.875,61.375 185.875,60.125  "/>
	<polygon fill="#A89187" stroke="#A89187" stroke-width="2.252" stroke-linejoin="round" points="144.125,61.625 145.375,62.125    147.125,63.375 147.875,65.375 148.375,66.625 147.625,68.375 146.625,70.125 144.625,71.375 143.625,71.375 141.875,70.875    140.125,68.625 139.625,67.125 139.875,65.375 140.375,63.375 142.125,62.125  "/>
	<polygon fill="#A89187" stroke="#A89187" stroke-width="2.252" stroke-linejoin="round" points="168.625,63.125 170.625,63.875    171.875,65.625 171.875,67.125 171.375,68.625 169.875,70.125 168.375,70.375 166.875,69.625 165.625,67.875 165.375,66.625    165.875,65.125 167.375,63.375  "/>
	<polygon fill="#A89187" stroke="#A89187" stroke-width="2.252" stroke-linejoin="round" points="187.625,62.625 189.375,63.125    190.875,65.125 190.875,66.375 190.375,68.375 188.625,69.625 187.625,69.625 185.875,69.125 184.875,67.375 184.625,66.375    185.125,64.375 186.875,62.625  "/>
	<polygon fill="#A89187" stroke="#000000" stroke-width="2.252" stroke-linejoin="round" points="163.375,206.875 166.125,206.875    168.875,206.875 174.125,206.625 179.375,206.375 184.625,205.875 189.375,205.125 193.625,204.625 197.875,203.875    201.875,203.125 205.375,201.875 208.625,200.875 211.375,199.875 213.625,198.625 215.375,197.375 217.625,194.875    217.875,193.375 216.875,190.875 213.625,188.125 211.375,186.875 208.625,185.875 205.375,185.125 201.875,183.875    197.875,183.125 193.625,182.375 189.375,181.625 184.625,181.125 179.375,180.375 174.125,180.375 168.875,180.125    163.375,179.875 160.375,180.125 157.625,180.125 152.125,180.375 146.875,180.375 142.125,181.125 137.125,181.625    132.625,182.375 128.375,183.125 124.625,183.875 121.125,185.125 117.875,185.875 115.125,186.875 112.875,188.125    110.875,189.375 108.875,192.125 108.625,193.375 109.625,196.125 112.875,198.625 115.125,199.875 117.875,200.875    121.125,201.875 124.625,203.125 128.375,203.875 132.625,204.625 137.125,205.125 142.125,205.875 146.875,206.375    152.125,206.625 157.625,206.875  "/>
	<polygon stroke="#000000" stroke-width="2.252" stroke-linejoin="round" points="163.625,201.375 166.125,201.375 168.375,201.375    173.125,201.375 177.625,201.125 181.875,200.875 185.875,200.625 189.875,199.875 193.625,199.625 197.125,198.875    200.125,198.125 202.625,197.375 204.875,196.875 206.875,196.125 208.625,195.125 210.625,193.375 210.625,192.125    208.625,189.875 206.875,188.875 204.875,188.125 202.625,187.375 200.125,186.625 197.125,186.125 193.625,185.375    189.875,185.125 185.875,184.625 181.875,184.125 177.625,183.875 173.125,183.625 168.375,183.625 163.625,183.375    161.375,183.625 158.875,183.625 154.375,183.625 150.125,183.875 145.625,184.125 141.375,184.625 137.375,185.125    134.125,185.375 130.875,186.125 127.875,186.625 125.125,187.375 122.875,188.125 120.875,188.875 119.125,189.875    117.125,191.625 116.875,193.125 119.125,195.125 120.875,196.125 122.875,196.875 125.125,197.375 127.875,198.125    130.875,198.875 134.125,199.625 137.375,199.875 141.375,200.625 145.625,200.875 150.125,201.125 154.375,201.375    158.875,201.375  "/>
	<polygon fill="#A89187" stroke="#000000" stroke-width="2.252" stroke-linejoin="round" points="163.625,198.375 165.375,198.375    167.375,198.375 171.125,198.125 174.875,198.125 178.625,197.875 182.125,197.875 185.125,197.375 188.125,197.125    190.875,196.875 193.375,196.625 195.625,196.125 197.625,195.625 199.375,194.875 201.625,194.125 202.625,192.875    200.625,191.125 197.625,190.375 195.625,189.875 193.375,189.375 190.875,188.875 188.125,188.375 185.125,188.375    182.125,187.875 178.625,187.625 174.875,187.625 171.125,187.375 167.375,187.375 163.625,187.375 161.625,187.375    159.625,187.375 155.625,187.375 152.125,187.625 148.625,187.625 145.125,187.875 142.125,188.375 139.125,188.375    136.375,188.875 133.625,189.375 131.625,189.875 129.875,190.375 127.875,190.625 125.875,191.875 125.125,193.125    126.875,194.625 129.875,195.625 131.625,196.125 133.625,196.625 136.375,196.875 139.125,197.125 142.125,197.375    145.125,197.875 148.625,197.875 152.125,198.125 155.625,198.125 159.625,198.375  "/>
	<polygon stroke="#000000" stroke-width="2.252" stroke-linejoin="round" points="163.375,194.375 164.625,194.375 168.375,194.375    171.125,194.375 173.625,194.375 175.875,194.375 177.875,194.125 180.125,193.875 181.875,193.625 183.875,193.625    186.375,193.125 188.625,192.875 189.625,192.125 187.625,191.125 185.125,191.125 181.875,190.375 180.125,190.375    177.875,190.375 175.875,190.125 173.625,190.125 171.125,190.125 168.375,189.875 165.875,189.875 163.375,189.875    161.875,189.875 158.125,189.875 155.625,190.125 153.125,190.125 150.875,190.125 148.625,190.375 146.625,190.375    144.625,190.375 142.875,190.875 140.125,191.125 138.125,191.625 136.875,192.125 139.125,193.125 141.375,193.625    144.625,193.625 146.625,193.875 148.625,194.125 150.875,194.375 153.125,194.375 155.625,194.375 158.125,194.375    160.625,194.375  "/>
	<g opacity="0.5" filter="url(#AI_GaussianBlur_7)">
		<path fill="#5E5E5E" d="M163.777,388.223c6.977,2.986,8.658,10.92,16.74,13.238c7.319,2.1,14.995,1.91,22.392,3.529    c20.118,4.403,11.384,21.562,2.961,32.747c-3.241,4.305-2.06,7.991-1.742,13.089c6.011,2.091,15.083,2.375,16.813,10.133    c1.658,7.434,12.433,6.995,18.657,8.011c12.174,1.987,24.397,4.313,36.63,5.86c3.723,0.471,17.076-0.447,19.509,3.502    c2.07,3.359-0.145,8.465,2.409,12.6c2.278,3.689-6.967,8.148-6.742,13.047c0.349,7.626-1.885,11.872,6.091,14.084    c4.053,1.124,12.261,1.737,14.354,6.163c3.31,6.999-4.69,12.025-10.05,14.356c-7.644,3.326-16.842,1.186-24.073,5.171    c-5.482,3.021-10.415,11.793-1.829,14.494c-10.626,13.869-26.521,13.461-42.469,15.277c-21.323,2.429-41.926,5.604-63.428,6.476    c-6.504,0.264-38.247,9.071-36.883-2.771c0.804-6.983,5.335-12.247,4.84-19.593c-0.691-10.252-3.562-20.126-3.749-30.453    c-0.387-21.473,0.262-43.212,0.418-64.715c0.062-8.464,0.153-17.169-1.876-25.445c-2.76-11.259-7.472-20.796-7.128-32.692    c0.224-7.744-0.937-16.514,0.451-24.137c0.73-4.013,7.879-12.512,10.639-5.554c1.316,3.319,0.901,9.013,3.83,11.47    C146.844,391.396,156.688,385.188,163.777,388.223C168.75,390.352,157.376,385.482,163.777,388.223z"/>
	</g>
</g>
</svg>